%
M48
M72
T01C0.0197
T02C0.0276
T03C0.0315
T04C0.0400
T05C0.0472
T06C0.0512
T07C0.0748
T08C0.0866
%
T01
X8699Y5750
X10699Y4750
X6299Y6350
X10199Y8650
X11299Y9650
X9399Y10250
X7999Y11150
X7499Y11150
X9399Y11450
X10699Y11450
X6299Y12450
X5599Y10950
X5599Y8950
X7699Y14150
X6999Y15950
X8099Y16150
X4699Y16150
X5299Y18650
T02
X10105Y17250
X10893Y17250
X9999Y13750
X8999Y13750
X9699Y4750
X11699Y4750
T03
X4107Y14120
X3634Y14435
X4107Y14750
X3634Y15065
X4107Y15380
T04
X11599Y14950
X12599Y14950
X12599Y13950
X11599Y13950
X11599Y12950
X12599Y12950
X12599Y11550
X12599Y10550
X7599Y5350
X6599Y5350
X6599Y4350
X7599Y4350
X7599Y3350
X6599Y3350
T05
X4668Y5250
X2699Y7219
X1715Y7219
X1715Y8281
X2699Y8281
X4668Y10250
X2699Y12219
X1715Y12219
X1715Y3281
X2699Y3281
T06
X4668Y3281
X4668Y4266
X2699Y5250
X4668Y6234
X4668Y7219
X4668Y8281
X4668Y9266
X2699Y10250
X4668Y11234
X4668Y12219
T07
X2099Y13313
X2099Y16187
T08
X2299Y2150
X13299Y2150
X13299Y18650
X2299Y18650
M30
