G75*
%MOIN*%
%OFA0B0*%
%FSLAX25Y25*%
%IPPOS*%
%LPD*%
%AMOC8*
5,1,8,0,0,1.08239X$1,22.5*
%
%ADD10C,0.07100*%
%ADD11C,0.05324*%
%ADD12C,0.11820*%
%ADD13C,0.09200*%
%ADD14C,0.08000*%
%ADD15R,0.07100X0.07100*%
%ADD16C,0.00500*%
%ADD17OC8,0.08000*%
%ADD18C,0.13261*%
%ADD19C,0.03969*%
D10*
X0096991Y0047500D03*
X0116991Y0047500D03*
X0099991Y0137500D03*
D11*
X0041069Y0141201D03*
X0036345Y0144350D03*
X0041069Y0147500D03*
X0036345Y0150650D03*
X0041069Y0153799D03*
X0026991Y0122185D03*
X0017148Y0122185D03*
X0046676Y0102500D03*
X0026991Y0082815D03*
X0017148Y0082815D03*
X0017148Y0072185D03*
X0026991Y0072185D03*
X0046676Y0052500D03*
X0026991Y0032815D03*
X0017148Y0032815D03*
D12*
X0020991Y0133130D03*
X0020991Y0161870D03*
D13*
X0046676Y0122185D03*
X0046676Y0112343D03*
X0026991Y0102500D03*
X0046676Y0092657D03*
X0046676Y0082815D03*
X0046676Y0072185D03*
X0046676Y0062343D03*
X0026991Y0052500D03*
X0046676Y0042657D03*
X0046676Y0032815D03*
D14*
X0125991Y0105500D03*
X0125991Y0115500D03*
X0125991Y0129500D03*
X0115991Y0129500D03*
X0115991Y0139500D03*
X0125991Y0139500D03*
X0125991Y0149500D03*
X0115991Y0149500D03*
D15*
X0089991Y0137500D03*
D16*
X0100066Y0170096D02*
X0099615Y0170336D01*
X0099220Y0170659D01*
X0098895Y0171053D01*
X0098654Y0171503D01*
X0098504Y0171992D01*
X0098454Y0172500D01*
X0098503Y0173007D01*
X0098651Y0173495D01*
X0098892Y0173945D01*
X0099215Y0174339D01*
X0099609Y0174662D01*
X0100059Y0174902D01*
X0100546Y0175050D01*
X0101054Y0175100D01*
X0101561Y0175050D01*
X0102049Y0174902D01*
X0102498Y0174662D01*
X0102892Y0174338D01*
X0103215Y0173944D01*
X0103456Y0173495D01*
X0103604Y0173007D01*
X0103654Y0172500D01*
X0103605Y0171994D01*
X0103458Y0171506D01*
X0103219Y0171057D01*
X0102897Y0170663D01*
X0102505Y0170340D01*
X0102056Y0170099D01*
X0101570Y0169951D01*
X0101063Y0169900D01*
X0100555Y0169949D01*
X0100066Y0170096D01*
X0100297Y0170027D02*
X0101819Y0170027D01*
X0102730Y0170525D02*
X0099384Y0170525D01*
X0098920Y0171024D02*
X0103192Y0171024D01*
X0103463Y0171522D02*
X0098648Y0171522D01*
X0098502Y0172021D02*
X0103608Y0172021D01*
X0103652Y0172519D02*
X0098455Y0172519D01*
X0098507Y0173018D02*
X0103600Y0173018D01*
X0103444Y0173516D02*
X0098663Y0173516D01*
X0098949Y0174015D02*
X0103158Y0174015D01*
X0102679Y0174513D02*
X0099428Y0174513D01*
X0100420Y0175012D02*
X0101687Y0175012D01*
X0106525Y0173495D02*
X0106766Y0173945D01*
X0107089Y0174339D01*
X0107483Y0174662D01*
X0107933Y0174902D01*
X0108420Y0175050D01*
X0108928Y0175100D01*
X0109435Y0175050D01*
X0109923Y0174902D01*
X0110372Y0174662D01*
X0110766Y0174338D01*
X0111089Y0173944D01*
X0111330Y0173495D01*
X0111478Y0173007D01*
X0111528Y0172500D01*
X0111479Y0171994D01*
X0111332Y0171506D01*
X0111093Y0171057D01*
X0110771Y0170663D01*
X0110379Y0170340D01*
X0109930Y0170099D01*
X0109444Y0169951D01*
X0108937Y0169900D01*
X0108429Y0169949D01*
X0107940Y0170096D01*
X0107489Y0170336D01*
X0107094Y0170659D01*
X0106769Y0171053D01*
X0106528Y0171503D01*
X0106378Y0171992D01*
X0106328Y0172500D01*
X0106377Y0173007D01*
X0106525Y0173495D01*
X0106537Y0173516D02*
X0111318Y0173516D01*
X0111474Y0173018D02*
X0106381Y0173018D01*
X0106329Y0172519D02*
X0111526Y0172519D01*
X0111482Y0172021D02*
X0106376Y0172021D01*
X0106522Y0171522D02*
X0111337Y0171522D01*
X0111066Y0171024D02*
X0106794Y0171024D01*
X0107258Y0170525D02*
X0110604Y0170525D01*
X0109693Y0170027D02*
X0108171Y0170027D01*
X0106823Y0174015D02*
X0111032Y0174015D01*
X0110553Y0174513D02*
X0107302Y0174513D01*
X0108294Y0175012D02*
X0109561Y0175012D01*
D17*
X0075991Y0053500D03*
X0065991Y0053500D03*
X0065991Y0043500D03*
X0075991Y0043500D03*
X0075991Y0033500D03*
X0065991Y0033500D03*
D18*
X0022991Y0021500D03*
X0132991Y0021500D03*
X0132991Y0186500D03*
X0022991Y0186500D03*
D19*
X0052991Y0186500D03*
X0046991Y0161500D03*
X0069991Y0159500D03*
X0080991Y0161500D03*
X0076991Y0141500D03*
X0062991Y0124500D03*
X0074991Y0111500D03*
X0079991Y0111500D03*
X0093991Y0114500D03*
X0106991Y0114500D03*
X0093991Y0102500D03*
X0112991Y0096500D03*
X0101991Y0086500D03*
X0062991Y0063500D03*
X0086991Y0057500D03*
X0106991Y0047500D03*
X0055991Y0089500D03*
X0055991Y0109500D03*
M02*
