G75*
%MOIN*%
%OFA0B0*%
%FSLAX25Y25*%
%IPPOS*%
%LPD*%
%AMOC8*
5,1,8,0,0,1.08239X$1,22.5*
%
%ADD10R,0.04537X0.04931*%
%ADD11R,0.04931X0.04537*%
%ADD12C,0.07100*%
%ADD13C,0.05324*%
%ADD14C,0.11820*%
%ADD15R,0.02765X0.05324*%
%ADD16R,0.06899X0.01781*%
%ADD17R,0.10285X0.09694*%
%ADD18C,0.09200*%
%ADD19C,0.08000*%
%ADD20R,0.07100X0.07100*%
%ADD21C,0.00500*%
%ADD22OC8,0.08000*%
%ADD23R,0.08080X0.06506*%
%ADD24R,0.06506X0.02569*%
%ADD25R,0.02569X0.06506*%
%ADD26C,0.04362*%
D10*
X0221700Y0106454D03*
X0221700Y0113146D03*
X0284200Y0128954D03*
X0284200Y0135646D03*
X0284200Y0143954D03*
X0284200Y0150646D03*
X0304200Y0113146D03*
X0304200Y0106454D03*
X0081700Y0151454D03*
X0081700Y0158146D03*
D11*
X0065046Y0104800D03*
X0058354Y0104800D03*
X0088354Y0094800D03*
X0095046Y0094800D03*
X0095046Y0084800D03*
X0088354Y0084800D03*
X0088354Y0074800D03*
X0095046Y0074800D03*
X0055046Y0064800D03*
X0048354Y0064800D03*
X0048354Y0049800D03*
X0055046Y0049800D03*
X0040046Y0049800D03*
X0033354Y0049800D03*
X0025046Y0049800D03*
X0018354Y0049800D03*
X0018354Y0079800D03*
X0025046Y0079800D03*
X0033354Y0079800D03*
X0040046Y0079800D03*
X0238354Y0064800D03*
X0245046Y0064800D03*
X0308354Y0059800D03*
X0315046Y0059800D03*
X0315046Y0049800D03*
X0308354Y0049800D03*
X0308354Y0069800D03*
X0315046Y0069800D03*
X0315046Y0079800D03*
X0308354Y0079800D03*
D12*
X0299700Y0129800D03*
X0299700Y0149800D03*
X0066700Y0129800D03*
D13*
X0322015Y0139800D03*
X0341700Y0159485D03*
X0351543Y0159485D03*
X0351543Y0120115D03*
X0341700Y0120115D03*
X0326621Y0071099D03*
X0331346Y0067950D03*
X0326621Y0064800D03*
X0331346Y0061650D03*
X0326621Y0058501D03*
D14*
X0346700Y0050430D03*
X0346700Y0079170D03*
D15*
X0025440Y0069919D03*
X0021700Y0069919D03*
X0017960Y0069919D03*
X0017960Y0059681D03*
X0025440Y0059681D03*
D16*
X0055676Y0075843D03*
X0055676Y0078402D03*
X0055676Y0080961D03*
X0055676Y0083520D03*
X0055676Y0086080D03*
X0055676Y0088639D03*
X0055676Y0091198D03*
X0055676Y0093757D03*
X0077724Y0093757D03*
X0077724Y0091198D03*
X0077724Y0088639D03*
X0077724Y0086080D03*
X0077724Y0083520D03*
X0077724Y0080961D03*
X0077724Y0078402D03*
X0077724Y0075843D03*
D17*
X0066700Y0084800D03*
D18*
X0322015Y0120115D03*
X0322015Y0129957D03*
X0341700Y0139800D03*
X0322015Y0149643D03*
X0322015Y0159485D03*
D19*
X0061700Y0154800D03*
X0051700Y0154800D03*
X0036700Y0154800D03*
X0026700Y0154800D03*
X0016700Y0154800D03*
D20*
X0056700Y0129800D03*
D21*
X0032790Y0133446D02*
X0030610Y0133446D01*
X0030610Y0133445D02*
X0030572Y0133737D01*
X0030610Y0134029D01*
X0030723Y0134301D01*
X0030902Y0134535D01*
X0031136Y0134714D01*
X0031408Y0134827D01*
X0031700Y0134865D01*
X0031992Y0134827D01*
X0032264Y0134714D01*
X0032498Y0134535D01*
X0032677Y0134301D01*
X0032790Y0134029D01*
X0032828Y0133737D01*
X0032790Y0133445D01*
X0032677Y0133173D01*
X0032498Y0132939D01*
X0032264Y0132760D01*
X0031992Y0132647D01*
X0031700Y0132609D01*
X0031408Y0132647D01*
X0031136Y0132760D01*
X0030902Y0132939D01*
X0030723Y0133173D01*
X0030610Y0133445D01*
X0030599Y0133944D02*
X0032801Y0133944D01*
X0032568Y0134443D02*
X0030832Y0134443D01*
X0030896Y0132947D02*
X0032504Y0132947D01*
X0031700Y0126991D02*
X0031992Y0126953D01*
X0032264Y0126840D01*
X0032498Y0126661D01*
X0032677Y0126427D01*
X0032790Y0126155D01*
X0032828Y0125863D01*
X0032790Y0125571D01*
X0032677Y0125299D01*
X0032498Y0125065D01*
X0032264Y0124886D01*
X0031992Y0124773D01*
X0031700Y0124735D01*
X0031408Y0124773D01*
X0031136Y0124886D01*
X0030902Y0125065D01*
X0030723Y0125299D01*
X0030610Y0125571D01*
X0030572Y0125863D01*
X0030610Y0126155D01*
X0030723Y0126427D01*
X0030902Y0126661D01*
X0031136Y0126840D01*
X0031408Y0126953D01*
X0031700Y0126991D01*
X0031503Y0126965D02*
X0031897Y0126965D01*
X0032646Y0126467D02*
X0030754Y0126467D01*
X0030586Y0125968D02*
X0032814Y0125968D01*
X0032748Y0125470D02*
X0030652Y0125470D01*
X0031025Y0124971D02*
X0032375Y0124971D01*
D22*
X0316700Y0107300D03*
X0326700Y0107300D03*
X0336700Y0107300D03*
X0336700Y0097300D03*
X0326700Y0097300D03*
X0316700Y0097300D03*
D23*
X0034771Y0099800D03*
X0018629Y0099800D03*
D24*
G36*
X0228026Y0110519D02*
X0232626Y0105919D01*
X0230810Y0104103D01*
X0226210Y0108703D01*
X0228026Y0110519D01*
G37*
G36*
X0230253Y0112746D02*
X0234853Y0108146D01*
X0233037Y0106330D01*
X0228437Y0110930D01*
X0230253Y0112746D01*
G37*
G36*
X0232480Y0114973D02*
X0237080Y0110373D01*
X0235264Y0108557D01*
X0230664Y0113157D01*
X0232480Y0114973D01*
G37*
G36*
X0234707Y0117200D02*
X0239307Y0112600D01*
X0237491Y0110784D01*
X0232891Y0115384D01*
X0234707Y0117200D01*
G37*
G36*
X0236934Y0119427D02*
X0241534Y0114827D01*
X0239718Y0113011D01*
X0235118Y0117611D01*
X0236934Y0119427D01*
G37*
G36*
X0239161Y0121655D02*
X0243761Y0117055D01*
X0241945Y0115239D01*
X0237345Y0119839D01*
X0239161Y0121655D01*
G37*
G36*
X0241389Y0123882D02*
X0245989Y0119282D01*
X0244173Y0117466D01*
X0239573Y0122066D01*
X0241389Y0123882D01*
G37*
G36*
X0243616Y0126109D02*
X0248216Y0121509D01*
X0246400Y0119693D01*
X0241800Y0124293D01*
X0243616Y0126109D01*
G37*
G36*
X0245843Y0128336D02*
X0250443Y0123736D01*
X0248627Y0121920D01*
X0244027Y0126520D01*
X0245843Y0128336D01*
G37*
G36*
X0248070Y0130563D02*
X0252670Y0125963D01*
X0250854Y0124147D01*
X0246254Y0128747D01*
X0248070Y0130563D01*
G37*
G36*
X0250297Y0132790D02*
X0254897Y0128190D01*
X0253081Y0126374D01*
X0248481Y0130974D01*
X0250297Y0132790D01*
G37*
G36*
X0282590Y0100497D02*
X0287190Y0095897D01*
X0285374Y0094081D01*
X0280774Y0098681D01*
X0282590Y0100497D01*
G37*
G36*
X0280363Y0098270D02*
X0284963Y0093670D01*
X0283147Y0091854D01*
X0278547Y0096454D01*
X0280363Y0098270D01*
G37*
G36*
X0278136Y0096043D02*
X0282736Y0091443D01*
X0280920Y0089627D01*
X0276320Y0094227D01*
X0278136Y0096043D01*
G37*
G36*
X0275909Y0093816D02*
X0280509Y0089216D01*
X0278693Y0087400D01*
X0274093Y0092000D01*
X0275909Y0093816D01*
G37*
G36*
X0273682Y0091589D02*
X0278282Y0086989D01*
X0276466Y0085173D01*
X0271866Y0089773D01*
X0273682Y0091589D01*
G37*
G36*
X0271455Y0089361D02*
X0276055Y0084761D01*
X0274239Y0082945D01*
X0269639Y0087545D01*
X0271455Y0089361D01*
G37*
G36*
X0269227Y0087134D02*
X0273827Y0082534D01*
X0272011Y0080718D01*
X0267411Y0085318D01*
X0269227Y0087134D01*
G37*
G36*
X0267000Y0084907D02*
X0271600Y0080307D01*
X0269784Y0078491D01*
X0265184Y0083091D01*
X0267000Y0084907D01*
G37*
G36*
X0264773Y0082680D02*
X0269373Y0078080D01*
X0267557Y0076264D01*
X0262957Y0080864D01*
X0264773Y0082680D01*
G37*
G36*
X0262546Y0080453D02*
X0267146Y0075853D01*
X0265330Y0074037D01*
X0260730Y0078637D01*
X0262546Y0080453D01*
G37*
G36*
X0260319Y0078226D02*
X0264919Y0073626D01*
X0263103Y0071810D01*
X0258503Y0076410D01*
X0260319Y0078226D01*
G37*
D25*
G36*
X0253081Y0078226D02*
X0254897Y0076410D01*
X0250297Y0071810D01*
X0248481Y0073626D01*
X0253081Y0078226D01*
G37*
G36*
X0250854Y0080453D02*
X0252670Y0078637D01*
X0248070Y0074037D01*
X0246254Y0075853D01*
X0250854Y0080453D01*
G37*
G36*
X0248627Y0082680D02*
X0250443Y0080864D01*
X0245843Y0076264D01*
X0244027Y0078080D01*
X0248627Y0082680D01*
G37*
G36*
X0246400Y0084907D02*
X0248216Y0083091D01*
X0243616Y0078491D01*
X0241800Y0080307D01*
X0246400Y0084907D01*
G37*
G36*
X0244173Y0087134D02*
X0245989Y0085318D01*
X0241389Y0080718D01*
X0239573Y0082534D01*
X0244173Y0087134D01*
G37*
G36*
X0241945Y0089361D02*
X0243761Y0087545D01*
X0239161Y0082945D01*
X0237345Y0084761D01*
X0241945Y0089361D01*
G37*
G36*
X0239718Y0091589D02*
X0241534Y0089773D01*
X0236934Y0085173D01*
X0235118Y0086989D01*
X0239718Y0091589D01*
G37*
G36*
X0237491Y0093816D02*
X0239307Y0092000D01*
X0234707Y0087400D01*
X0232891Y0089216D01*
X0237491Y0093816D01*
G37*
G36*
X0235264Y0096043D02*
X0237080Y0094227D01*
X0232480Y0089627D01*
X0230664Y0091443D01*
X0235264Y0096043D01*
G37*
G36*
X0233037Y0098270D02*
X0234853Y0096454D01*
X0230253Y0091854D01*
X0228437Y0093670D01*
X0233037Y0098270D01*
G37*
G36*
X0230810Y0100497D02*
X0232626Y0098681D01*
X0228026Y0094081D01*
X0226210Y0095897D01*
X0230810Y0100497D01*
G37*
G36*
X0269784Y0126109D02*
X0271600Y0124293D01*
X0267000Y0119693D01*
X0265184Y0121509D01*
X0269784Y0126109D01*
G37*
G36*
X0267557Y0128336D02*
X0269373Y0126520D01*
X0264773Y0121920D01*
X0262957Y0123736D01*
X0267557Y0128336D01*
G37*
G36*
X0265330Y0130563D02*
X0267146Y0128747D01*
X0262546Y0124147D01*
X0260730Y0125963D01*
X0265330Y0130563D01*
G37*
G36*
X0263103Y0132790D02*
X0264919Y0130974D01*
X0260319Y0126374D01*
X0258503Y0128190D01*
X0263103Y0132790D01*
G37*
G36*
X0272011Y0123882D02*
X0273827Y0122066D01*
X0269227Y0117466D01*
X0267411Y0119282D01*
X0272011Y0123882D01*
G37*
G36*
X0274239Y0121655D02*
X0276055Y0119839D01*
X0271455Y0115239D01*
X0269639Y0117055D01*
X0274239Y0121655D01*
G37*
G36*
X0276466Y0119427D02*
X0278282Y0117611D01*
X0273682Y0113011D01*
X0271866Y0114827D01*
X0276466Y0119427D01*
G37*
G36*
X0278693Y0117200D02*
X0280509Y0115384D01*
X0275909Y0110784D01*
X0274093Y0112600D01*
X0278693Y0117200D01*
G37*
G36*
X0280920Y0114973D02*
X0282736Y0113157D01*
X0278136Y0108557D01*
X0276320Y0110373D01*
X0280920Y0114973D01*
G37*
G36*
X0283147Y0112746D02*
X0284963Y0110930D01*
X0280363Y0106330D01*
X0278547Y0108146D01*
X0283147Y0112746D01*
G37*
G36*
X0285374Y0110519D02*
X0287190Y0108703D01*
X0282590Y0104103D01*
X0280774Y0105919D01*
X0285374Y0110519D01*
G37*
D26*
X0016700Y0029800D03*
X0011700Y0049800D03*
X0031700Y0059800D03*
X0046700Y0084800D03*
X0029200Y0087300D03*
X0101700Y0094800D03*
X0225700Y0089300D03*
X0264700Y0089800D03*
X0291700Y0079800D03*
X0251700Y0064800D03*
X0286700Y0119800D03*
X0288200Y0139800D03*
X0246700Y0134800D03*
X0256700Y0184800D03*
M02*
