G75*
%MOIN*%
%OFA0B0*%
%FSLAX25Y25*%
%IPPOS*%
%LPD*%
%AMOC8*
5,1,8,0,0,1.08239X$1,22.5*
%
%ADD10C,0.06500*%
%ADD11C,0.04724*%
%ADD12C,0.11220*%
%ADD13C,0.08600*%
%ADD14C,0.07400*%
%ADD15R,0.06500X0.06500*%
%ADD16C,0.05700*%
%ADD17OC8,0.07400*%
%ADD18C,0.01400*%
%ADD19C,0.03762*%
%ADD20C,0.01200*%
%ADD21C,0.02400*%
D10*
X0066700Y0129800D03*
X0299700Y0129800D03*
X0299700Y0149800D03*
D11*
X0326621Y0071099D03*
X0331346Y0067950D03*
X0326621Y0064800D03*
X0331346Y0061650D03*
X0326621Y0058501D03*
D12*
X0346700Y0050430D03*
X0346700Y0079170D03*
D13*
X0322015Y0120115D03*
X0322015Y0129957D03*
X0341700Y0139800D03*
X0322015Y0149643D03*
X0322015Y0159485D03*
D14*
X0061700Y0154800D03*
X0051700Y0154800D03*
X0036700Y0154800D03*
X0026700Y0154800D03*
X0016700Y0154800D03*
D15*
X0056700Y0129800D03*
D16*
X0031700Y0125863D03*
X0031700Y0133737D03*
D17*
X0316700Y0107300D03*
X0326700Y0107300D03*
X0336700Y0107300D03*
X0336700Y0097300D03*
X0326700Y0097300D03*
X0316700Y0097300D03*
D18*
X0129500Y0017049D02*
X0008949Y0017049D01*
X0008949Y0034800D01*
X0022658Y0034800D01*
X0021625Y0032133D01*
X0021625Y0028367D01*
X0022986Y0024854D01*
X0025523Y0022071D01*
X0025523Y0022071D01*
X0028895Y0020392D01*
X0028895Y0020392D01*
X0032646Y0020045D01*
X0036268Y0021075D01*
X0036268Y0021075D01*
X0039274Y0023345D01*
X0039274Y0023345D01*
X0039274Y0023345D01*
X0041257Y0026548D01*
X0041949Y0030250D01*
X0041257Y0033952D01*
X0041257Y0033952D01*
X0040732Y0034800D01*
X0322658Y0034800D01*
X0321625Y0032133D01*
X0321625Y0028367D01*
X0322986Y0024854D01*
X0325523Y0022071D01*
X0325523Y0022071D01*
X0328895Y0020392D01*
X0332646Y0020045D01*
X0336268Y0021075D01*
X0339274Y0023345D01*
X0339274Y0023345D01*
X0339274Y0023345D01*
X0341257Y0026548D01*
X0341949Y0030250D01*
X0341257Y0033952D01*
X0341257Y0033952D01*
X0340732Y0034800D01*
X0354451Y0034800D01*
X0354451Y0017049D01*
X0233900Y0017049D01*
X0233900Y0025711D01*
X0232611Y0027000D01*
X0130789Y0027000D01*
X0129500Y0025711D01*
X0129500Y0017049D01*
X0129500Y0017597D02*
X0008949Y0017597D01*
X0008949Y0018996D02*
X0129500Y0018996D01*
X0129500Y0020394D02*
X0033874Y0020394D01*
X0032646Y0020045D02*
X0032646Y0020045D01*
X0028891Y0020394D02*
X0008949Y0020394D01*
X0008949Y0021793D02*
X0026083Y0021793D01*
X0024502Y0023191D02*
X0008949Y0023191D01*
X0008949Y0024590D02*
X0023227Y0024590D01*
X0022986Y0024854D02*
X0022986Y0024854D01*
X0022547Y0025988D02*
X0008949Y0025988D01*
X0008949Y0027387D02*
X0022005Y0027387D01*
X0021625Y0028785D02*
X0008949Y0028785D01*
X0008949Y0030184D02*
X0021625Y0030184D01*
X0021625Y0031582D02*
X0008949Y0031582D01*
X0008949Y0032981D02*
X0021954Y0032981D01*
X0022495Y0034379D02*
X0008949Y0034379D01*
X0008949Y0039800D02*
X0008949Y0164800D01*
X0013164Y0164800D01*
X0017885Y0160080D01*
X0017125Y0160200D01*
X0017000Y0160200D01*
X0017000Y0155100D01*
X0016400Y0155100D01*
X0016400Y0160200D01*
X0016275Y0160200D01*
X0015435Y0160067D01*
X0014627Y0159804D01*
X0013870Y0159418D01*
X0013182Y0158919D01*
X0012581Y0158318D01*
X0012082Y0157630D01*
X0011696Y0156873D01*
X0011433Y0156065D01*
X0011300Y0155225D01*
X0011300Y0155100D01*
X0016400Y0155100D01*
X0016400Y0154500D01*
X0017000Y0154500D01*
X0017000Y0149400D01*
X0017125Y0149400D01*
X0017965Y0149533D01*
X0018773Y0149796D01*
X0019530Y0150182D01*
X0020218Y0150681D01*
X0020819Y0151282D01*
X0021318Y0151970D01*
X0021704Y0152727D01*
X0021899Y0153326D01*
X0022461Y0151968D01*
X0023868Y0150561D01*
X0025705Y0149800D01*
X0027695Y0149800D01*
X0029532Y0150561D01*
X0030939Y0151968D01*
X0031700Y0153805D01*
X0032461Y0151968D01*
X0033868Y0150561D01*
X0035705Y0149800D01*
X0037695Y0149800D01*
X0039532Y0150561D01*
X0040939Y0151968D01*
X0041700Y0153805D01*
X0041700Y0155795D01*
X0040939Y0157632D01*
X0039532Y0159039D01*
X0037695Y0159800D01*
X0035705Y0159800D01*
X0033868Y0159039D01*
X0032461Y0157632D01*
X0031700Y0155795D01*
X0031700Y0153805D01*
X0031700Y0155795D01*
X0030939Y0157632D01*
X0029532Y0159039D01*
X0027695Y0159800D01*
X0025705Y0159800D01*
X0025373Y0159662D01*
X0020236Y0164800D01*
X0028277Y0164800D01*
X0028895Y0164492D01*
X0028895Y0164492D01*
X0032646Y0164145D01*
X0034949Y0164800D01*
X0309800Y0164800D01*
X0309800Y0111513D01*
X0310913Y0110400D01*
X0311821Y0109492D01*
X0311700Y0109371D01*
X0311700Y0105229D01*
X0314629Y0102300D01*
X0311700Y0099371D01*
X0311700Y0095229D01*
X0314629Y0092300D01*
X0318771Y0092300D01*
X0321700Y0095229D01*
X0324629Y0092300D01*
X0328771Y0092300D01*
X0331700Y0095229D01*
X0331700Y0099371D01*
X0328771Y0102300D01*
X0324629Y0102300D01*
X0321700Y0099371D01*
X0321700Y0095229D01*
X0321700Y0099371D01*
X0318771Y0102300D01*
X0314629Y0102300D01*
X0318771Y0102300D01*
X0321700Y0105229D01*
X0324629Y0102300D01*
X0328771Y0102300D01*
X0331417Y0104946D01*
X0334346Y0102017D01*
X0331700Y0099371D01*
X0331700Y0095229D01*
X0334629Y0092300D01*
X0338771Y0092300D01*
X0341700Y0095229D01*
X0341700Y0099371D01*
X0339054Y0102017D01*
X0342100Y0105063D01*
X0342100Y0107000D01*
X0337000Y0107000D01*
X0337000Y0107600D01*
X0342100Y0107600D01*
X0342100Y0109537D01*
X0338937Y0112700D01*
X0337000Y0112700D01*
X0337000Y0107600D01*
X0336400Y0107600D01*
X0336400Y0112700D01*
X0334463Y0112700D01*
X0331417Y0109654D01*
X0328771Y0112300D01*
X0324629Y0112300D01*
X0321700Y0109371D01*
X0321700Y0105229D01*
X0321700Y0109371D01*
X0318771Y0112300D01*
X0314629Y0112300D01*
X0314508Y0112179D01*
X0313600Y0113087D01*
X0313600Y0164800D01*
X0320213Y0164800D01*
X0318843Y0164232D01*
X0317268Y0162657D01*
X0316415Y0160599D01*
X0316415Y0158371D01*
X0317268Y0156313D01*
X0318843Y0154738D01*
X0319262Y0154564D01*
X0318843Y0154390D01*
X0317268Y0152815D01*
X0316415Y0150756D01*
X0316415Y0148529D01*
X0317268Y0146470D01*
X0318843Y0144895D01*
X0320618Y0144160D01*
X0319431Y0143668D01*
X0318147Y0142384D01*
X0317453Y0140707D01*
X0317453Y0138893D01*
X0318147Y0137216D01*
X0319431Y0135932D01*
X0320618Y0135440D01*
X0318843Y0134705D01*
X0317268Y0133130D01*
X0316415Y0131071D01*
X0316415Y0128844D01*
X0317268Y0126785D01*
X0318843Y0125210D01*
X0319262Y0125036D01*
X0318843Y0124862D01*
X0317268Y0123287D01*
X0316415Y0121229D01*
X0316415Y0119001D01*
X0317268Y0116943D01*
X0318843Y0115368D01*
X0320901Y0114515D01*
X0323129Y0114515D01*
X0325187Y0115368D01*
X0326762Y0116943D01*
X0327615Y0119001D01*
X0327615Y0121229D01*
X0326762Y0123287D01*
X0325187Y0124862D01*
X0324767Y0125036D01*
X0325187Y0125210D01*
X0326762Y0126785D01*
X0327615Y0128844D01*
X0327615Y0131071D01*
X0326762Y0133130D01*
X0325187Y0134705D01*
X0323412Y0135440D01*
X0324599Y0135932D01*
X0325883Y0137216D01*
X0326577Y0138893D01*
X0326577Y0140707D01*
X0325883Y0142384D01*
X0324599Y0143668D01*
X0323412Y0144160D01*
X0325187Y0144895D01*
X0326762Y0146470D01*
X0327615Y0148529D01*
X0327615Y0150756D01*
X0326762Y0152815D01*
X0325187Y0154390D01*
X0324767Y0154564D01*
X0325187Y0154738D01*
X0326762Y0156313D01*
X0327615Y0158371D01*
X0327615Y0160599D01*
X0326762Y0162657D01*
X0325187Y0164232D01*
X0323817Y0164800D01*
X0328277Y0164800D01*
X0328895Y0164492D01*
X0328895Y0164492D01*
X0332646Y0164145D01*
X0334949Y0164800D01*
X0354451Y0164800D01*
X0354451Y0163029D01*
X0354127Y0163353D01*
X0352450Y0164047D01*
X0350635Y0164047D01*
X0348958Y0163353D01*
X0347675Y0162069D01*
X0346980Y0160393D01*
X0346980Y0158578D01*
X0347675Y0156901D01*
X0348958Y0155617D01*
X0350635Y0154923D01*
X0352450Y0154923D01*
X0354127Y0155617D01*
X0354451Y0155941D01*
X0354451Y0123659D01*
X0354127Y0123983D01*
X0352450Y0124677D01*
X0350635Y0124677D01*
X0348958Y0123983D01*
X0347675Y0122699D01*
X0346980Y0121022D01*
X0346980Y0119207D01*
X0347675Y0117531D01*
X0348958Y0116247D01*
X0350635Y0115553D01*
X0352450Y0115553D01*
X0354127Y0116247D01*
X0354451Y0116571D01*
X0354451Y0039800D01*
X0334949Y0039800D01*
X0332646Y0040455D01*
X0332646Y0040455D01*
X0328895Y0040108D01*
X0328277Y0039800D01*
X0311456Y0039800D01*
X0326495Y0054839D01*
X0327350Y0054839D01*
X0328696Y0055396D01*
X0329726Y0056426D01*
X0330283Y0057772D01*
X0330283Y0058126D01*
X0330617Y0057988D01*
X0332074Y0057988D01*
X0333420Y0058546D01*
X0334450Y0059576D01*
X0335008Y0060922D01*
X0335008Y0062379D01*
X0334450Y0063725D01*
X0333420Y0064755D01*
X0333312Y0064800D01*
X0333420Y0064845D01*
X0334450Y0065875D01*
X0335008Y0067221D01*
X0335008Y0068678D01*
X0334450Y0070024D01*
X0333420Y0071054D01*
X0332074Y0071612D01*
X0330661Y0071612D01*
X0330527Y0072284D01*
X0330221Y0073023D01*
X0329777Y0073689D01*
X0329211Y0074255D01*
X0328545Y0074699D01*
X0327806Y0075005D01*
X0327021Y0075161D01*
X0326709Y0075161D01*
X0326709Y0071187D01*
X0326534Y0071187D01*
X0326534Y0075161D01*
X0326221Y0075161D01*
X0325436Y0075005D01*
X0324697Y0074699D01*
X0324032Y0074255D01*
X0323466Y0073689D01*
X0323021Y0073023D01*
X0322715Y0072284D01*
X0322559Y0071499D01*
X0322559Y0071187D01*
X0326534Y0071187D01*
X0326534Y0071012D01*
X0322559Y0071012D01*
X0322559Y0070699D01*
X0322715Y0069914D01*
X0323021Y0069175D01*
X0323466Y0068510D01*
X0324032Y0067944D01*
X0324364Y0067722D01*
X0323517Y0066874D01*
X0322959Y0065528D01*
X0322959Y0064072D01*
X0323517Y0062726D01*
X0324547Y0061695D01*
X0324655Y0061650D01*
X0324547Y0061605D01*
X0323517Y0060575D01*
X0322959Y0059229D01*
X0322959Y0058374D01*
X0304385Y0039800D01*
X0293600Y0039800D01*
X0293600Y0077201D01*
X0294397Y0077998D01*
X0294881Y0079167D01*
X0294881Y0080433D01*
X0294397Y0081602D01*
X0293502Y0082497D01*
X0292333Y0082981D01*
X0291067Y0082981D01*
X0289898Y0082497D01*
X0289003Y0081602D01*
X0288519Y0080433D01*
X0288519Y0079167D01*
X0289003Y0077998D01*
X0289800Y0077201D01*
X0289800Y0039800D01*
X0034949Y0039800D01*
X0032646Y0040455D01*
X0032646Y0040455D01*
X0028895Y0040108D01*
X0028277Y0039800D01*
X0008949Y0039800D01*
X0008949Y0039973D02*
X0028625Y0039973D01*
X0028895Y0040108D02*
X0028895Y0040108D01*
X0034341Y0039973D02*
X0289800Y0039973D01*
X0289800Y0041372D02*
X0008949Y0041372D01*
X0008949Y0042770D02*
X0289800Y0042770D01*
X0289800Y0044169D02*
X0008949Y0044169D01*
X0008949Y0045567D02*
X0289800Y0045567D01*
X0289800Y0046966D02*
X0008949Y0046966D01*
X0008949Y0048364D02*
X0289800Y0048364D01*
X0289800Y0049763D02*
X0008949Y0049763D01*
X0008949Y0051161D02*
X0289800Y0051161D01*
X0289800Y0052560D02*
X0008949Y0052560D01*
X0008949Y0053958D02*
X0289800Y0053958D01*
X0289800Y0055357D02*
X0008949Y0055357D01*
X0008949Y0056755D02*
X0289800Y0056755D01*
X0289800Y0058154D02*
X0008949Y0058154D01*
X0008949Y0059552D02*
X0289800Y0059552D01*
X0289800Y0060951D02*
X0008949Y0060951D01*
X0008949Y0062349D02*
X0289800Y0062349D01*
X0289800Y0063748D02*
X0008949Y0063748D01*
X0008949Y0065146D02*
X0289800Y0065146D01*
X0289800Y0066545D02*
X0008949Y0066545D01*
X0008949Y0067943D02*
X0289800Y0067943D01*
X0289800Y0069342D02*
X0008949Y0069342D01*
X0008949Y0070740D02*
X0289800Y0070740D01*
X0289800Y0072139D02*
X0008949Y0072139D01*
X0008949Y0073537D02*
X0289800Y0073537D01*
X0289800Y0074936D02*
X0008949Y0074936D01*
X0008949Y0076334D02*
X0289800Y0076334D01*
X0289268Y0077733D02*
X0008949Y0077733D01*
X0008949Y0079132D02*
X0288534Y0079132D01*
X0288559Y0080530D02*
X0008949Y0080530D01*
X0008949Y0081929D02*
X0289330Y0081929D01*
X0294070Y0081929D02*
X0340363Y0081929D01*
X0340842Y0083084D02*
X0339790Y0080545D01*
X0339790Y0077796D01*
X0340842Y0075256D01*
X0342786Y0073312D01*
X0345325Y0072260D01*
X0348075Y0072260D01*
X0350614Y0073312D01*
X0352558Y0075256D01*
X0353610Y0077796D01*
X0353610Y0080545D01*
X0352558Y0083084D01*
X0350614Y0085028D01*
X0348075Y0086080D01*
X0345325Y0086080D01*
X0342786Y0085028D01*
X0340842Y0083084D01*
X0341084Y0083327D02*
X0008949Y0083327D01*
X0008949Y0084726D02*
X0342483Y0084726D01*
X0339790Y0080530D02*
X0294841Y0080530D01*
X0294866Y0079132D02*
X0339790Y0079132D01*
X0339816Y0077733D02*
X0294132Y0077733D01*
X0293600Y0076334D02*
X0340395Y0076334D01*
X0341162Y0074936D02*
X0327973Y0074936D01*
X0326709Y0074936D02*
X0326534Y0074936D01*
X0325269Y0074936D02*
X0293600Y0074936D01*
X0293600Y0073537D02*
X0323365Y0073537D01*
X0322686Y0072139D02*
X0293600Y0072139D01*
X0293600Y0070740D02*
X0322559Y0070740D01*
X0322952Y0069342D02*
X0293600Y0069342D01*
X0293600Y0067943D02*
X0324032Y0067943D01*
X0323380Y0066545D02*
X0293600Y0066545D01*
X0293600Y0065146D02*
X0322959Y0065146D01*
X0323093Y0063748D02*
X0293600Y0063748D01*
X0293600Y0062349D02*
X0323893Y0062349D01*
X0323892Y0060951D02*
X0293600Y0060951D01*
X0293600Y0059552D02*
X0323093Y0059552D01*
X0322739Y0058154D02*
X0293600Y0058154D01*
X0293600Y0056755D02*
X0321340Y0056755D01*
X0319942Y0055357D02*
X0293600Y0055357D01*
X0293600Y0053958D02*
X0318543Y0053958D01*
X0317145Y0052560D02*
X0293600Y0052560D01*
X0293600Y0051161D02*
X0315746Y0051161D01*
X0314348Y0049763D02*
X0293600Y0049763D01*
X0293600Y0048364D02*
X0312949Y0048364D01*
X0311551Y0046966D02*
X0293600Y0046966D01*
X0293600Y0045567D02*
X0310152Y0045567D01*
X0308754Y0044169D02*
X0293600Y0044169D01*
X0293600Y0042770D02*
X0307355Y0042770D01*
X0305957Y0041372D02*
X0293600Y0041372D01*
X0293600Y0039973D02*
X0304558Y0039973D01*
X0311629Y0039973D02*
X0328625Y0039973D01*
X0328895Y0040108D02*
X0328895Y0040108D01*
X0334341Y0039973D02*
X0354451Y0039973D01*
X0354451Y0041372D02*
X0313028Y0041372D01*
X0314426Y0042770D02*
X0354451Y0042770D01*
X0354451Y0044169D02*
X0349641Y0044169D01*
X0350614Y0044572D02*
X0348075Y0043520D01*
X0345325Y0043520D01*
X0342786Y0044572D01*
X0340842Y0046516D01*
X0339790Y0049055D01*
X0339790Y0051804D01*
X0340842Y0054344D01*
X0342786Y0056288D01*
X0345325Y0057340D01*
X0348075Y0057340D01*
X0350614Y0056288D01*
X0352558Y0054344D01*
X0353610Y0051804D01*
X0353610Y0049055D01*
X0352558Y0046516D01*
X0350614Y0044572D01*
X0351610Y0045567D02*
X0354451Y0045567D01*
X0354451Y0046966D02*
X0352745Y0046966D01*
X0353324Y0048364D02*
X0354451Y0048364D01*
X0354451Y0049763D02*
X0353610Y0049763D01*
X0353610Y0051161D02*
X0354451Y0051161D01*
X0354451Y0052560D02*
X0353297Y0052560D01*
X0352718Y0053958D02*
X0354451Y0053958D01*
X0354451Y0055357D02*
X0351546Y0055357D01*
X0349486Y0056755D02*
X0354451Y0056755D01*
X0354451Y0058154D02*
X0332474Y0058154D01*
X0334427Y0059552D02*
X0354451Y0059552D01*
X0354451Y0060951D02*
X0335008Y0060951D01*
X0335008Y0062349D02*
X0354451Y0062349D01*
X0354451Y0063748D02*
X0334427Y0063748D01*
X0333722Y0065146D02*
X0354451Y0065146D01*
X0354451Y0066545D02*
X0334728Y0066545D01*
X0335008Y0067943D02*
X0354451Y0067943D01*
X0354451Y0069342D02*
X0334733Y0069342D01*
X0333734Y0070740D02*
X0354451Y0070740D01*
X0354451Y0072139D02*
X0330556Y0072139D01*
X0329878Y0073537D02*
X0342560Y0073537D01*
X0350840Y0073537D02*
X0354451Y0073537D01*
X0354451Y0074936D02*
X0352238Y0074936D01*
X0353005Y0076334D02*
X0354451Y0076334D01*
X0354451Y0077733D02*
X0353584Y0077733D01*
X0353610Y0079132D02*
X0354451Y0079132D01*
X0354451Y0080530D02*
X0353610Y0080530D01*
X0353037Y0081929D02*
X0354451Y0081929D01*
X0354451Y0083327D02*
X0352316Y0083327D01*
X0350917Y0084726D02*
X0354451Y0084726D01*
X0354451Y0086124D02*
X0008949Y0086124D01*
X0008949Y0087523D02*
X0354451Y0087523D01*
X0354451Y0088921D02*
X0008949Y0088921D01*
X0008949Y0090320D02*
X0354451Y0090320D01*
X0354451Y0091718D02*
X0008949Y0091718D01*
X0008949Y0093117D02*
X0313812Y0093117D01*
X0312414Y0094515D02*
X0008949Y0094515D01*
X0008949Y0095914D02*
X0311700Y0095914D01*
X0311700Y0097312D02*
X0008949Y0097312D01*
X0008949Y0098711D02*
X0311700Y0098711D01*
X0312438Y0100109D02*
X0008949Y0100109D01*
X0008949Y0101508D02*
X0313837Y0101508D01*
X0314023Y0102906D02*
X0008949Y0102906D01*
X0008949Y0104305D02*
X0312624Y0104305D01*
X0311700Y0105703D02*
X0008949Y0105703D01*
X0008949Y0107102D02*
X0311700Y0107102D01*
X0311700Y0108500D02*
X0008949Y0108500D01*
X0008949Y0109899D02*
X0311414Y0109899D01*
X0310016Y0111297D02*
X0008949Y0111297D01*
X0008949Y0112696D02*
X0309800Y0112696D01*
X0309800Y0114094D02*
X0008949Y0114094D01*
X0008949Y0115493D02*
X0309800Y0115493D01*
X0309800Y0116891D02*
X0008949Y0116891D01*
X0008949Y0118290D02*
X0309800Y0118290D01*
X0309800Y0119688D02*
X0008949Y0119688D01*
X0008949Y0121087D02*
X0309800Y0121087D01*
X0309800Y0122485D02*
X0034757Y0122485D01*
X0034664Y0122392D02*
X0035171Y0122899D01*
X0035591Y0123478D01*
X0035917Y0124116D01*
X0036138Y0124798D01*
X0036250Y0125505D01*
X0036250Y0125863D01*
X0036250Y0126221D01*
X0036138Y0126928D01*
X0035917Y0127610D01*
X0035591Y0128248D01*
X0035171Y0128827D01*
X0034664Y0129334D01*
X0034085Y0129754D01*
X0033567Y0130018D01*
X0034051Y0130219D01*
X0035218Y0131386D01*
X0035850Y0132912D01*
X0035850Y0134562D01*
X0035218Y0136088D01*
X0034051Y0137255D01*
X0032525Y0137887D01*
X0030875Y0137887D01*
X0029349Y0137255D01*
X0028182Y0136088D01*
X0027550Y0134562D01*
X0027550Y0132912D01*
X0028182Y0131386D01*
X0029349Y0130219D01*
X0029833Y0130018D01*
X0029315Y0129754D01*
X0028736Y0129334D01*
X0028229Y0128827D01*
X0027808Y0128248D01*
X0027483Y0127610D01*
X0027262Y0126928D01*
X0027150Y0126221D01*
X0027150Y0125863D01*
X0031700Y0125863D01*
X0036250Y0125863D01*
X0031700Y0125863D01*
X0031700Y0125863D01*
X0031700Y0125863D01*
X0031700Y0121313D01*
X0032058Y0121313D01*
X0032765Y0121425D01*
X0033447Y0121646D01*
X0034085Y0121971D01*
X0034664Y0122392D01*
X0035798Y0123884D02*
X0309800Y0123884D01*
X0309800Y0125282D02*
X0300683Y0125282D01*
X0300605Y0125250D02*
X0302277Y0125943D01*
X0303557Y0127223D01*
X0304250Y0128895D01*
X0304250Y0130705D01*
X0303557Y0132377D01*
X0302277Y0133657D01*
X0300605Y0134350D01*
X0298795Y0134350D01*
X0297123Y0133657D01*
X0295843Y0132377D01*
X0295150Y0130705D01*
X0295150Y0128895D01*
X0295843Y0127223D01*
X0297123Y0125943D01*
X0298795Y0125250D01*
X0300605Y0125250D01*
X0298717Y0125282D02*
X0068737Y0125282D01*
X0068600Y0125213D02*
X0069294Y0125566D01*
X0069925Y0126024D01*
X0070476Y0126575D01*
X0070934Y0127206D01*
X0071287Y0127900D01*
X0071528Y0128641D01*
X0071650Y0129410D01*
X0071650Y0129800D01*
X0071650Y0130190D01*
X0071528Y0130959D01*
X0071287Y0131700D01*
X0070934Y0132394D01*
X0070476Y0133025D01*
X0069925Y0133576D01*
X0069294Y0134034D01*
X0068600Y0134387D01*
X0067859Y0134628D01*
X0067090Y0134750D01*
X0066700Y0134750D01*
X0066700Y0129800D01*
X0071650Y0129800D01*
X0066700Y0129800D01*
X0066700Y0129800D01*
X0066700Y0129800D01*
X0066700Y0124850D01*
X0067090Y0124850D01*
X0067859Y0124972D01*
X0068600Y0125213D01*
X0066700Y0125282D02*
X0066700Y0125282D01*
X0066700Y0124850D02*
X0066700Y0129800D01*
X0066700Y0129800D01*
X0066700Y0129800D01*
X0061750Y0129800D01*
X0061750Y0130190D01*
X0061872Y0130959D01*
X0062113Y0131700D01*
X0062466Y0132394D01*
X0062924Y0133025D01*
X0063475Y0133576D01*
X0064106Y0134034D01*
X0064800Y0134387D01*
X0065541Y0134628D01*
X0066310Y0134750D01*
X0066700Y0134750D01*
X0066700Y0129800D01*
X0061750Y0129800D01*
X0061750Y0129410D01*
X0061872Y0128641D01*
X0062113Y0127900D01*
X0062466Y0127206D01*
X0062924Y0126575D01*
X0063475Y0126024D01*
X0064106Y0125566D01*
X0064800Y0125213D01*
X0065541Y0124972D01*
X0066310Y0124850D01*
X0066700Y0124850D01*
X0066700Y0126681D02*
X0066700Y0126681D01*
X0066700Y0128079D02*
X0066700Y0128079D01*
X0066700Y0129478D02*
X0066700Y0129478D01*
X0066700Y0130876D02*
X0066700Y0130876D01*
X0066700Y0132275D02*
X0066700Y0132275D01*
X0066700Y0133673D02*
X0066700Y0133673D01*
X0069790Y0133673D02*
X0297162Y0133673D01*
X0295800Y0132275D02*
X0070994Y0132275D01*
X0071541Y0130876D02*
X0295221Y0130876D01*
X0295150Y0129478D02*
X0071650Y0129478D01*
X0071346Y0128079D02*
X0295488Y0128079D01*
X0296384Y0126681D02*
X0070552Y0126681D01*
X0064663Y0125282D02*
X0060521Y0125282D01*
X0060488Y0125250D02*
X0061250Y0126012D01*
X0061250Y0133588D01*
X0060488Y0134350D01*
X0052912Y0134350D01*
X0052150Y0133588D01*
X0052150Y0126012D01*
X0052912Y0125250D01*
X0060488Y0125250D01*
X0061250Y0126681D02*
X0062848Y0126681D01*
X0062054Y0128079D02*
X0061250Y0128079D01*
X0061250Y0129478D02*
X0061750Y0129478D01*
X0061859Y0130876D02*
X0061250Y0130876D01*
X0061250Y0132275D02*
X0062406Y0132275D01*
X0063610Y0133673D02*
X0061165Y0133673D01*
X0052235Y0133673D02*
X0035850Y0133673D01*
X0035639Y0135072D02*
X0309800Y0135072D01*
X0309800Y0136470D02*
X0034835Y0136470D01*
X0032569Y0137869D02*
X0309800Y0137869D01*
X0309800Y0139268D02*
X0008949Y0139268D01*
X0008949Y0140666D02*
X0309800Y0140666D01*
X0309800Y0142065D02*
X0008949Y0142065D01*
X0008949Y0143463D02*
X0309800Y0143463D01*
X0309800Y0144862D02*
X0008949Y0144862D01*
X0008949Y0146260D02*
X0296805Y0146260D01*
X0297123Y0145943D02*
X0298795Y0145250D01*
X0300605Y0145250D01*
X0302277Y0145943D01*
X0303557Y0147223D01*
X0304250Y0148895D01*
X0304250Y0150705D01*
X0303557Y0152377D01*
X0302277Y0153657D01*
X0300605Y0154350D01*
X0298795Y0154350D01*
X0297123Y0153657D01*
X0295843Y0152377D01*
X0295150Y0150705D01*
X0295150Y0148895D01*
X0295843Y0147223D01*
X0297123Y0145943D01*
X0295662Y0147659D02*
X0008949Y0147659D01*
X0008949Y0149057D02*
X0295150Y0149057D01*
X0295150Y0150456D02*
X0064277Y0150456D01*
X0064532Y0150561D02*
X0065939Y0151968D01*
X0066700Y0153805D01*
X0066700Y0155795D01*
X0065939Y0157632D01*
X0064532Y0159039D01*
X0062695Y0159800D01*
X0060705Y0159800D01*
X0058868Y0159039D01*
X0057461Y0157632D01*
X0056700Y0155795D01*
X0056700Y0153805D01*
X0057461Y0151968D01*
X0058868Y0150561D01*
X0060705Y0149800D01*
X0062695Y0149800D01*
X0064532Y0150561D01*
X0065825Y0151854D02*
X0295626Y0151854D01*
X0296718Y0153253D02*
X0066471Y0153253D01*
X0066700Y0154651D02*
X0309800Y0154651D01*
X0309800Y0153253D02*
X0302682Y0153253D01*
X0303774Y0151854D02*
X0309800Y0151854D01*
X0309800Y0150456D02*
X0304250Y0150456D01*
X0304250Y0149057D02*
X0309800Y0149057D01*
X0309800Y0147659D02*
X0303738Y0147659D01*
X0302595Y0146260D02*
X0309800Y0146260D01*
X0313600Y0146260D02*
X0317478Y0146260D01*
X0316775Y0147659D02*
X0313600Y0147659D01*
X0313600Y0149057D02*
X0316415Y0149057D01*
X0316415Y0150456D02*
X0313600Y0150456D01*
X0313600Y0151854D02*
X0316870Y0151854D01*
X0317705Y0153253D02*
X0313600Y0153253D01*
X0313600Y0154651D02*
X0319052Y0154651D01*
X0317531Y0156050D02*
X0313600Y0156050D01*
X0313600Y0157448D02*
X0316797Y0157448D01*
X0316415Y0158847D02*
X0313600Y0158847D01*
X0313600Y0160245D02*
X0316415Y0160245D01*
X0316848Y0161644D02*
X0313600Y0161644D01*
X0313600Y0163042D02*
X0317653Y0163042D01*
X0319346Y0164441D02*
X0313600Y0164441D01*
X0309800Y0164441D02*
X0033687Y0164441D01*
X0032646Y0164145D02*
X0032646Y0164145D01*
X0029449Y0164441D02*
X0020595Y0164441D01*
X0021993Y0163042D02*
X0309800Y0163042D01*
X0309800Y0161644D02*
X0023392Y0161644D01*
X0024790Y0160245D02*
X0309800Y0160245D01*
X0309800Y0158847D02*
X0064724Y0158847D01*
X0066015Y0157448D02*
X0309800Y0157448D01*
X0309800Y0156050D02*
X0066594Y0156050D01*
X0058676Y0158847D02*
X0054724Y0158847D01*
X0054532Y0159039D02*
X0052695Y0159800D01*
X0050705Y0159800D01*
X0048868Y0159039D01*
X0047461Y0157632D01*
X0046700Y0155795D01*
X0046700Y0153805D01*
X0047461Y0151968D01*
X0048868Y0150561D01*
X0050705Y0149800D01*
X0052695Y0149800D01*
X0054532Y0150561D01*
X0055939Y0151968D01*
X0056700Y0153805D01*
X0056700Y0155795D01*
X0055939Y0157632D01*
X0054532Y0159039D01*
X0056015Y0157448D02*
X0057385Y0157448D01*
X0056806Y0156050D02*
X0056594Y0156050D01*
X0056700Y0154651D02*
X0056700Y0154651D01*
X0056471Y0153253D02*
X0056929Y0153253D01*
X0057575Y0151854D02*
X0055825Y0151854D01*
X0054277Y0150456D02*
X0059123Y0150456D01*
X0049123Y0150456D02*
X0039277Y0150456D01*
X0040825Y0151854D02*
X0047575Y0151854D01*
X0046929Y0153253D02*
X0041471Y0153253D01*
X0041700Y0154651D02*
X0046700Y0154651D01*
X0046806Y0156050D02*
X0041594Y0156050D01*
X0041015Y0157448D02*
X0047385Y0157448D01*
X0048676Y0158847D02*
X0039724Y0158847D01*
X0033676Y0158847D02*
X0029724Y0158847D01*
X0031015Y0157448D02*
X0032385Y0157448D01*
X0031806Y0156050D02*
X0031594Y0156050D01*
X0031700Y0154651D02*
X0031700Y0154651D01*
X0031471Y0153253D02*
X0031929Y0153253D01*
X0032575Y0151854D02*
X0030825Y0151854D01*
X0029277Y0150456D02*
X0034123Y0150456D01*
X0024123Y0150456D02*
X0019907Y0150456D01*
X0021234Y0151854D02*
X0022575Y0151854D01*
X0021929Y0153253D02*
X0021875Y0153253D01*
X0017000Y0153253D02*
X0016400Y0153253D01*
X0016400Y0154500D02*
X0016400Y0149400D01*
X0016275Y0149400D01*
X0015435Y0149533D01*
X0014627Y0149796D01*
X0013870Y0150182D01*
X0013182Y0150681D01*
X0012581Y0151282D01*
X0012082Y0151970D01*
X0011696Y0152727D01*
X0011433Y0153535D01*
X0011300Y0154375D01*
X0011300Y0154500D01*
X0016400Y0154500D01*
X0016400Y0154651D02*
X0008949Y0154651D01*
X0008949Y0153253D02*
X0011525Y0153253D01*
X0012166Y0151854D02*
X0008949Y0151854D01*
X0008949Y0150456D02*
X0013493Y0150456D01*
X0016400Y0150456D02*
X0017000Y0150456D01*
X0017000Y0151854D02*
X0016400Y0151854D01*
X0016400Y0156050D02*
X0017000Y0156050D01*
X0017000Y0157448D02*
X0016400Y0157448D01*
X0016400Y0158847D02*
X0017000Y0158847D01*
X0017719Y0160245D02*
X0008949Y0160245D01*
X0008949Y0158847D02*
X0013110Y0158847D01*
X0011989Y0157448D02*
X0008949Y0157448D01*
X0008949Y0156050D02*
X0011431Y0156050D01*
X0008949Y0161644D02*
X0016321Y0161644D01*
X0014922Y0163042D02*
X0008949Y0163042D01*
X0008949Y0164441D02*
X0013524Y0164441D01*
X0008949Y0169800D02*
X0008949Y0187551D01*
X0129500Y0187551D01*
X0129500Y0178889D01*
X0130789Y0177600D01*
X0232611Y0177600D01*
X0233900Y0178889D01*
X0233900Y0187551D01*
X0354451Y0187551D01*
X0354451Y0169800D01*
X0340732Y0169800D01*
X0341257Y0170648D01*
X0341949Y0174350D01*
X0341257Y0178052D01*
X0341257Y0178052D01*
X0339274Y0181255D01*
X0336268Y0183525D01*
X0332646Y0184555D01*
X0332646Y0184555D01*
X0328895Y0184208D01*
X0325523Y0182529D01*
X0322986Y0179746D01*
X0322986Y0179745D01*
X0321625Y0176233D01*
X0321625Y0172467D01*
X0322658Y0169800D01*
X0040732Y0169800D01*
X0041257Y0170648D01*
X0041949Y0174350D01*
X0041949Y0174350D01*
X0041257Y0178052D01*
X0041257Y0178052D01*
X0039274Y0181255D01*
X0036268Y0183525D01*
X0032646Y0184555D01*
X0032646Y0184555D01*
X0028895Y0184208D01*
X0025523Y0182529D01*
X0022986Y0179746D01*
X0022986Y0179745D01*
X0021625Y0176233D01*
X0021625Y0172467D01*
X0022658Y0169800D01*
X0008949Y0169800D01*
X0008949Y0170035D02*
X0022567Y0170035D01*
X0022026Y0171433D02*
X0008949Y0171433D01*
X0008949Y0172832D02*
X0021625Y0172832D01*
X0021625Y0174230D02*
X0008949Y0174230D01*
X0008949Y0175629D02*
X0021625Y0175629D01*
X0021933Y0177027D02*
X0008949Y0177027D01*
X0008949Y0178426D02*
X0022475Y0178426D01*
X0023058Y0179824D02*
X0008949Y0179824D01*
X0008949Y0181223D02*
X0024333Y0181223D01*
X0025523Y0182529D02*
X0025523Y0182529D01*
X0025523Y0182529D01*
X0025709Y0182621D02*
X0008949Y0182621D01*
X0008949Y0184020D02*
X0028517Y0184020D01*
X0028895Y0184208D02*
X0028895Y0184208D01*
X0034528Y0184020D02*
X0129500Y0184020D01*
X0129500Y0185418D02*
X0008949Y0185418D01*
X0008949Y0186817D02*
X0129500Y0186817D01*
X0129500Y0182621D02*
X0037465Y0182621D01*
X0036268Y0183525D02*
X0036268Y0183525D01*
X0039274Y0181255D02*
X0039274Y0181255D01*
X0039274Y0181255D01*
X0039294Y0181223D02*
X0129500Y0181223D01*
X0129500Y0179824D02*
X0040160Y0179824D01*
X0041026Y0178426D02*
X0129963Y0178426D01*
X0052150Y0132275D02*
X0035586Y0132275D01*
X0034708Y0130876D02*
X0052150Y0130876D01*
X0052150Y0129478D02*
X0034465Y0129478D01*
X0035677Y0128079D02*
X0052150Y0128079D01*
X0052150Y0126681D02*
X0036177Y0126681D01*
X0036215Y0125282D02*
X0052879Y0125282D01*
X0031700Y0125282D02*
X0031700Y0125282D01*
X0031700Y0125863D02*
X0031700Y0125863D01*
X0027150Y0125863D01*
X0027150Y0125505D01*
X0027262Y0124798D01*
X0027483Y0124116D01*
X0027808Y0123478D01*
X0028229Y0122899D01*
X0028736Y0122392D01*
X0029315Y0121971D01*
X0029953Y0121646D01*
X0030635Y0121425D01*
X0031342Y0121313D01*
X0031700Y0121313D01*
X0031700Y0125863D01*
X0031700Y0123884D02*
X0031700Y0123884D01*
X0031700Y0122485D02*
X0031700Y0122485D01*
X0028643Y0122485D02*
X0008949Y0122485D01*
X0008949Y0123884D02*
X0027602Y0123884D01*
X0027185Y0125282D02*
X0008949Y0125282D01*
X0008949Y0126681D02*
X0027223Y0126681D01*
X0027723Y0128079D02*
X0008949Y0128079D01*
X0008949Y0129478D02*
X0028935Y0129478D01*
X0028692Y0130876D02*
X0008949Y0130876D01*
X0008949Y0132275D02*
X0027814Y0132275D01*
X0027550Y0133673D02*
X0008949Y0133673D01*
X0008949Y0135072D02*
X0027761Y0135072D01*
X0028565Y0136470D02*
X0008949Y0136470D01*
X0008949Y0137869D02*
X0030831Y0137869D01*
X0040878Y0170035D02*
X0322567Y0170035D01*
X0322026Y0171433D02*
X0041404Y0171433D01*
X0041665Y0172832D02*
X0321625Y0172832D01*
X0321625Y0174230D02*
X0041927Y0174230D01*
X0041710Y0175629D02*
X0321625Y0175629D01*
X0321933Y0177027D02*
X0041449Y0177027D01*
X0233437Y0178426D02*
X0322475Y0178426D01*
X0323058Y0179824D02*
X0233900Y0179824D01*
X0233900Y0181223D02*
X0324333Y0181223D01*
X0325523Y0182529D02*
X0325523Y0182529D01*
X0325709Y0182621D02*
X0233900Y0182621D01*
X0233900Y0184020D02*
X0328517Y0184020D01*
X0328895Y0184208D02*
X0328895Y0184208D01*
X0334528Y0184020D02*
X0354451Y0184020D01*
X0354451Y0185418D02*
X0233900Y0185418D01*
X0233900Y0186817D02*
X0354451Y0186817D01*
X0354451Y0182621D02*
X0337465Y0182621D01*
X0336268Y0183525D02*
X0336268Y0183525D01*
X0339274Y0181255D02*
X0339274Y0181255D01*
X0339274Y0181255D01*
X0339294Y0181223D02*
X0354451Y0181223D01*
X0354451Y0179824D02*
X0340160Y0179824D01*
X0341026Y0178426D02*
X0354451Y0178426D01*
X0354451Y0177027D02*
X0341449Y0177027D01*
X0341710Y0175629D02*
X0354451Y0175629D01*
X0354451Y0174230D02*
X0341927Y0174230D01*
X0341665Y0172832D02*
X0354451Y0172832D01*
X0354451Y0171433D02*
X0341404Y0171433D01*
X0341257Y0170648D02*
X0341257Y0170648D01*
X0340878Y0170035D02*
X0354451Y0170035D01*
X0354451Y0164441D02*
X0333687Y0164441D01*
X0332646Y0164145D02*
X0332646Y0164145D01*
X0329449Y0164441D02*
X0324684Y0164441D01*
X0326377Y0163042D02*
X0338805Y0163042D01*
X0339116Y0163353D02*
X0337832Y0162069D01*
X0337138Y0160393D01*
X0337138Y0158578D01*
X0337832Y0156901D01*
X0339116Y0155617D01*
X0340793Y0154923D01*
X0342607Y0154923D01*
X0344284Y0155617D01*
X0345568Y0156901D01*
X0346262Y0158578D01*
X0346262Y0160393D01*
X0345568Y0162069D01*
X0344284Y0163353D01*
X0342607Y0164047D01*
X0340793Y0164047D01*
X0339116Y0163353D01*
X0337656Y0161644D02*
X0327182Y0161644D01*
X0327615Y0160245D02*
X0337138Y0160245D01*
X0337138Y0158847D02*
X0327615Y0158847D01*
X0327233Y0157448D02*
X0337606Y0157448D01*
X0338683Y0156050D02*
X0326499Y0156050D01*
X0324978Y0154651D02*
X0354451Y0154651D01*
X0354451Y0153253D02*
X0326324Y0153253D01*
X0327160Y0151854D02*
X0354451Y0151854D01*
X0354451Y0150456D02*
X0327615Y0150456D01*
X0327615Y0149057D02*
X0354451Y0149057D01*
X0354451Y0147659D02*
X0327255Y0147659D01*
X0326552Y0146260D02*
X0354451Y0146260D01*
X0354451Y0144862D02*
X0344941Y0144862D01*
X0344845Y0144932D02*
X0344003Y0145360D01*
X0343105Y0145652D01*
X0342280Y0145783D01*
X0342280Y0140380D01*
X0347683Y0140380D01*
X0347552Y0141205D01*
X0347260Y0142103D01*
X0346832Y0142945D01*
X0346277Y0143709D01*
X0345609Y0144377D01*
X0344845Y0144932D01*
X0346455Y0143463D02*
X0354451Y0143463D01*
X0354451Y0142065D02*
X0347273Y0142065D01*
X0347638Y0140666D02*
X0354451Y0140666D01*
X0354451Y0139268D02*
X0342280Y0139268D01*
X0342280Y0139220D02*
X0342280Y0140380D01*
X0341120Y0140380D01*
X0341120Y0145783D01*
X0340295Y0145652D01*
X0339397Y0145360D01*
X0338555Y0144932D01*
X0337791Y0144377D01*
X0337123Y0143709D01*
X0336568Y0142945D01*
X0336140Y0142103D01*
X0335848Y0141205D01*
X0335717Y0140380D01*
X0341120Y0140380D01*
X0341120Y0139220D01*
X0342280Y0139220D01*
X0347683Y0139220D01*
X0347552Y0138395D01*
X0347260Y0137497D01*
X0346832Y0136655D01*
X0346277Y0135891D01*
X0345609Y0135223D01*
X0344845Y0134668D01*
X0344003Y0134240D01*
X0343105Y0133948D01*
X0342280Y0133817D01*
X0342280Y0139220D01*
X0341120Y0139220D02*
X0341120Y0133817D01*
X0340295Y0133948D01*
X0339397Y0134240D01*
X0338555Y0134668D01*
X0337791Y0135223D01*
X0337123Y0135891D01*
X0336568Y0136655D01*
X0336140Y0137497D01*
X0335848Y0138395D01*
X0335717Y0139220D01*
X0341120Y0139220D01*
X0341120Y0139268D02*
X0326577Y0139268D01*
X0326577Y0140666D02*
X0335762Y0140666D01*
X0336127Y0142065D02*
X0326015Y0142065D01*
X0324804Y0143463D02*
X0336945Y0143463D01*
X0338459Y0144862D02*
X0325106Y0144862D01*
X0319226Y0143463D02*
X0313600Y0143463D01*
X0313600Y0142065D02*
X0318015Y0142065D01*
X0317453Y0140666D02*
X0313600Y0140666D01*
X0313600Y0139268D02*
X0317453Y0139268D01*
X0317877Y0137869D02*
X0313600Y0137869D01*
X0313600Y0136470D02*
X0318893Y0136470D01*
X0319729Y0135072D02*
X0313600Y0135072D01*
X0313600Y0133673D02*
X0317811Y0133673D01*
X0316913Y0132275D02*
X0313600Y0132275D01*
X0313600Y0130876D02*
X0316415Y0130876D01*
X0316415Y0129478D02*
X0313600Y0129478D01*
X0313600Y0128079D02*
X0316731Y0128079D01*
X0317372Y0126681D02*
X0313600Y0126681D01*
X0313600Y0125282D02*
X0318770Y0125282D01*
X0317864Y0123884D02*
X0313600Y0123884D01*
X0313600Y0122485D02*
X0316935Y0122485D01*
X0316415Y0121087D02*
X0313600Y0121087D01*
X0313600Y0119688D02*
X0316415Y0119688D01*
X0316710Y0118290D02*
X0313600Y0118290D01*
X0313600Y0116891D02*
X0317319Y0116891D01*
X0318718Y0115493D02*
X0313600Y0115493D01*
X0313600Y0114094D02*
X0354451Y0114094D01*
X0354451Y0112696D02*
X0338941Y0112696D01*
X0337000Y0112696D02*
X0336400Y0112696D01*
X0336400Y0111297D02*
X0337000Y0111297D01*
X0337000Y0109899D02*
X0336400Y0109899D01*
X0336400Y0108500D02*
X0337000Y0108500D01*
X0337000Y0107102D02*
X0354451Y0107102D01*
X0354451Y0108500D02*
X0342100Y0108500D01*
X0341738Y0109899D02*
X0354451Y0109899D01*
X0354451Y0111297D02*
X0340339Y0111297D01*
X0340793Y0115553D02*
X0339116Y0116247D01*
X0337832Y0117531D01*
X0337138Y0119207D01*
X0337138Y0121022D01*
X0337832Y0122699D01*
X0339116Y0123983D01*
X0340793Y0124677D01*
X0342607Y0124677D01*
X0344284Y0123983D01*
X0345568Y0122699D01*
X0346262Y0121022D01*
X0346262Y0119207D01*
X0345568Y0117531D01*
X0344284Y0116247D01*
X0342607Y0115553D01*
X0340793Y0115553D01*
X0338472Y0116891D02*
X0326711Y0116891D01*
X0327320Y0118290D02*
X0337518Y0118290D01*
X0337138Y0119688D02*
X0327615Y0119688D01*
X0327615Y0121087D02*
X0337164Y0121087D01*
X0337744Y0122485D02*
X0327094Y0122485D01*
X0326166Y0123884D02*
X0339017Y0123884D01*
X0344383Y0123884D02*
X0348860Y0123884D01*
X0347586Y0122485D02*
X0345656Y0122485D01*
X0346236Y0121087D02*
X0347007Y0121087D01*
X0346980Y0119688D02*
X0346262Y0119688D01*
X0345882Y0118290D02*
X0347360Y0118290D01*
X0348314Y0116891D02*
X0344928Y0116891D01*
X0354451Y0115493D02*
X0325312Y0115493D01*
X0323626Y0111297D02*
X0319774Y0111297D01*
X0321172Y0109899D02*
X0322228Y0109899D01*
X0321700Y0108500D02*
X0321700Y0108500D01*
X0321700Y0107102D02*
X0321700Y0107102D01*
X0321700Y0105703D02*
X0321700Y0105703D01*
X0320776Y0104305D02*
X0322624Y0104305D01*
X0324023Y0102906D02*
X0319377Y0102906D01*
X0319563Y0101508D02*
X0323837Y0101508D01*
X0322438Y0100109D02*
X0320962Y0100109D01*
X0321700Y0098711D02*
X0321700Y0098711D01*
X0321700Y0097312D02*
X0321700Y0097312D01*
X0321700Y0095914D02*
X0321700Y0095914D01*
X0320986Y0094515D02*
X0322414Y0094515D01*
X0323812Y0093117D02*
X0319588Y0093117D01*
X0329588Y0093117D02*
X0333812Y0093117D01*
X0332414Y0094515D02*
X0330986Y0094515D01*
X0331700Y0095914D02*
X0331700Y0095914D01*
X0331700Y0097312D02*
X0331700Y0097312D01*
X0331700Y0098711D02*
X0331700Y0098711D01*
X0330962Y0100109D02*
X0332438Y0100109D01*
X0333837Y0101508D02*
X0329563Y0101508D01*
X0329377Y0102906D02*
X0333457Y0102906D01*
X0332059Y0104305D02*
X0330776Y0104305D01*
X0331172Y0109899D02*
X0331662Y0109899D01*
X0333061Y0111297D02*
X0329774Y0111297D01*
X0334459Y0112696D02*
X0313991Y0112696D01*
X0309800Y0126681D02*
X0303016Y0126681D01*
X0303912Y0128079D02*
X0309800Y0128079D01*
X0309800Y0129478D02*
X0304250Y0129478D01*
X0304179Y0130876D02*
X0309800Y0130876D01*
X0309800Y0132275D02*
X0303600Y0132275D01*
X0302238Y0133673D02*
X0309800Y0133673D01*
X0324301Y0135072D02*
X0338000Y0135072D01*
X0336703Y0136470D02*
X0325137Y0136470D01*
X0326153Y0137869D02*
X0336019Y0137869D01*
X0341120Y0137869D02*
X0342280Y0137869D01*
X0342280Y0136470D02*
X0341120Y0136470D01*
X0341120Y0135072D02*
X0342280Y0135072D01*
X0345400Y0135072D02*
X0354451Y0135072D01*
X0354451Y0136470D02*
X0346697Y0136470D01*
X0347381Y0137869D02*
X0354451Y0137869D01*
X0354451Y0133673D02*
X0326219Y0133673D01*
X0327116Y0132275D02*
X0354451Y0132275D01*
X0354451Y0130876D02*
X0327615Y0130876D01*
X0327615Y0129478D02*
X0354451Y0129478D01*
X0354451Y0128079D02*
X0327298Y0128079D01*
X0326658Y0126681D02*
X0354451Y0126681D01*
X0354451Y0125282D02*
X0325259Y0125282D01*
X0341120Y0140666D02*
X0342280Y0140666D01*
X0342280Y0142065D02*
X0341120Y0142065D01*
X0341120Y0143463D02*
X0342280Y0143463D01*
X0342280Y0144862D02*
X0341120Y0144862D01*
X0344717Y0156050D02*
X0348526Y0156050D01*
X0347448Y0157448D02*
X0345794Y0157448D01*
X0346262Y0158847D02*
X0346980Y0158847D01*
X0346980Y0160245D02*
X0346262Y0160245D01*
X0345744Y0161644D02*
X0347499Y0161644D01*
X0348648Y0163042D02*
X0344595Y0163042D01*
X0354437Y0163042D02*
X0354451Y0163042D01*
X0318924Y0144862D02*
X0313600Y0144862D01*
X0354226Y0123884D02*
X0354451Y0123884D01*
X0354451Y0105703D02*
X0342100Y0105703D01*
X0341341Y0104305D02*
X0354451Y0104305D01*
X0354451Y0102906D02*
X0339943Y0102906D01*
X0339563Y0101508D02*
X0354451Y0101508D01*
X0354451Y0100109D02*
X0340962Y0100109D01*
X0341700Y0098711D02*
X0354451Y0098711D01*
X0354451Y0097312D02*
X0341700Y0097312D01*
X0341700Y0095914D02*
X0354451Y0095914D01*
X0354451Y0094515D02*
X0340986Y0094515D01*
X0339588Y0093117D02*
X0354451Y0093117D01*
X0326709Y0073537D02*
X0326534Y0073537D01*
X0326534Y0072139D02*
X0326709Y0072139D01*
X0329862Y0056755D02*
X0343914Y0056755D01*
X0341854Y0055357D02*
X0328601Y0055357D01*
X0325614Y0053958D02*
X0340682Y0053958D01*
X0340103Y0052560D02*
X0324216Y0052560D01*
X0322817Y0051161D02*
X0339790Y0051161D01*
X0339790Y0049763D02*
X0321419Y0049763D01*
X0320020Y0048364D02*
X0340076Y0048364D01*
X0340655Y0046966D02*
X0318622Y0046966D01*
X0317223Y0045567D02*
X0341790Y0045567D01*
X0343758Y0044169D02*
X0315825Y0044169D01*
X0322495Y0034379D02*
X0040993Y0034379D01*
X0041439Y0032981D02*
X0321954Y0032981D01*
X0321625Y0031582D02*
X0041700Y0031582D01*
X0041937Y0030184D02*
X0321625Y0030184D01*
X0321625Y0028785D02*
X0041675Y0028785D01*
X0041414Y0027387D02*
X0322005Y0027387D01*
X0322547Y0025988D02*
X0233623Y0025988D01*
X0233900Y0024590D02*
X0323227Y0024590D01*
X0322986Y0024854D02*
X0322986Y0024854D01*
X0324502Y0023191D02*
X0233900Y0023191D01*
X0233900Y0021793D02*
X0326083Y0021793D01*
X0328891Y0020394D02*
X0233900Y0020394D01*
X0233900Y0018996D02*
X0354451Y0018996D01*
X0354451Y0020394D02*
X0333874Y0020394D01*
X0337218Y0021793D02*
X0354451Y0021793D01*
X0354451Y0023191D02*
X0339070Y0023191D01*
X0340045Y0024590D02*
X0354451Y0024590D01*
X0354451Y0025988D02*
X0340911Y0025988D01*
X0341257Y0026548D02*
X0341257Y0026548D01*
X0341414Y0027387D02*
X0354451Y0027387D01*
X0354451Y0028785D02*
X0341675Y0028785D01*
X0341937Y0030184D02*
X0354451Y0030184D01*
X0354451Y0031582D02*
X0341700Y0031582D01*
X0341439Y0032981D02*
X0354451Y0032981D01*
X0354451Y0034379D02*
X0340993Y0034379D01*
X0354451Y0017597D02*
X0233900Y0017597D01*
X0129777Y0025988D02*
X0040911Y0025988D01*
X0041257Y0026548D02*
X0041257Y0026548D01*
X0040045Y0024590D02*
X0129500Y0024590D01*
X0129500Y0023191D02*
X0039070Y0023191D01*
X0037218Y0021793D02*
X0129500Y0021793D01*
D19*
X0031700Y0059800D03*
X0011700Y0049800D03*
X0016700Y0029800D03*
X0046700Y0084800D03*
X0029200Y0087300D03*
X0101700Y0094800D03*
X0225700Y0089300D03*
X0264700Y0089800D03*
X0291700Y0079800D03*
X0251700Y0064800D03*
X0286700Y0119800D03*
X0288200Y0139800D03*
X0246700Y0134800D03*
X0256700Y0184800D03*
D20*
X0311700Y0184800D02*
X0311700Y0112300D01*
X0316700Y0107300D01*
X0291700Y0079800D02*
X0291700Y0029800D01*
D21*
X0297920Y0029800D02*
X0326621Y0058501D01*
X0026700Y0154800D02*
X0009700Y0171800D01*
M02*
