%
M48
M72
T01C0.0315
T02C0.0354
T03C0.0400
T04C0.0472
T05C0.0512
T06C0.0748
T07C0.1600
%
T01
X32662Y7980
X33135Y8295
X32662Y8610
X33135Y8924
X32662Y9239
T02
X22670Y16610
X18670Y16610
T03
X18170Y14360
X19170Y14360
X20170Y14360
X21170Y14360
X22170Y14360
X23170Y14360
X24170Y14360
X25170Y14360
X26170Y14360
X27170Y14360
X28170Y14360
X25733Y13235
X24733Y13235
X21608Y13235
X20608Y13235
X17170Y14360
X16170Y13860
X16170Y12860
X16170Y11860
X16170Y10860
X16170Y9860
X16170Y8860
X17170Y8360
X18170Y8360
X19170Y8360
X20170Y8360
X21170Y8360
X22170Y8360
X23170Y8360
X24170Y8360
X25170Y8360
X26170Y8360
X27170Y8360
X28170Y8360
X25170Y16610
X24170Y16610
X12720Y16260
X12720Y15260
X12720Y14260
X12720Y13260
X12720Y12260
X12720Y11260
X12720Y10260
X12720Y9260
X2670Y11360
X2670Y12360
X2670Y13360
T04
X32201Y14110
X34170Y12141
X35154Y12141
X35154Y16078
X34170Y16078
T05
X32201Y16078
X32201Y15094
X34170Y14110
X32201Y13125
X32201Y12141
T06
X34670Y10047
X34670Y7173
T07
X3170Y4155
X3170Y18565
X33170Y18565
X33170Y4155
M30
