%
M48
M72
T01C0.0236
T02C0.0276
T03C0.0315
T04C0.0400
T05C0.0472
T06C0.0512
T07C0.0748
%
T01
X1670Y2980
X1170Y4980
X3170Y5980
X4670Y8480
X2920Y8730
X10170Y9480
X22570Y8930
X26470Y8980
X29170Y7980
X25170Y6480
X28670Y11980
X28820Y13980
X24670Y13480
X25670Y18480
T02
X29970Y14980
X29970Y12980
X6670Y12980
X5670Y12980
X3170Y12586
X3170Y13374
T03
X32662Y7110
X33135Y6795
X32662Y6480
X33135Y6165
X32662Y5850
T04
X32670Y9730
X31670Y9730
X31670Y10730
X32670Y10730
X33670Y10730
X33670Y9730
X6170Y15480
X5170Y15480
X3670Y15480
X2670Y15480
X1670Y15480
T05
X32201Y13980
X34170Y15949
X35154Y15949
X35154Y12011
X34170Y12011
T06
X32201Y12011
X32201Y12996
X34170Y13980
X32201Y14964
X32201Y15949
T07
X34670Y7917
X34670Y5043
M30
