G75*
%MOIN*%
%OFA0B0*%
%FSLAX25Y25*%
%IPPOS*%
%LPD*%
%AMOC8*
5,1,8,0,0,1.08239X$1,22.5*
%
%ADD10C,0.00400*%
%ADD11R,0.40000X0.15000*%
%ADD12R,0.03000X0.01800*%
%ADD13C,0.00100*%
%ADD14C,0.02200*%
%ADD15C,0.00800*%
%ADD16R,0.01800X0.03000*%
%ADD17C,0.01200*%
%ADD18C,0.00500*%
%ADD19C,0.01000*%
D10*
X0067480Y0020569D02*
X0069014Y0020569D01*
X0068247Y0021337D02*
X0068247Y0018267D01*
X0069014Y0017500D01*
X0070549Y0017500D02*
X0070549Y0020569D01*
X0070549Y0019035D02*
X0072083Y0020569D01*
X0072851Y0020569D01*
X0074385Y0019802D02*
X0075153Y0020569D01*
X0076687Y0020569D01*
X0077455Y0019802D01*
X0077455Y0019035D01*
X0074385Y0019035D01*
X0074385Y0019802D02*
X0074385Y0018267D01*
X0075153Y0017500D01*
X0076687Y0017500D01*
X0078989Y0018267D02*
X0079757Y0019035D01*
X0082059Y0019035D01*
X0082059Y0019802D02*
X0082059Y0017500D01*
X0079757Y0017500D01*
X0078989Y0018267D01*
X0081291Y0020569D02*
X0082059Y0019802D01*
X0081291Y0020569D02*
X0079757Y0020569D01*
X0083593Y0020569D02*
X0085128Y0020569D01*
X0084361Y0021337D02*
X0084361Y0018267D01*
X0085128Y0017500D01*
X0091266Y0018267D02*
X0091266Y0019802D01*
X0092034Y0020569D01*
X0094336Y0020569D01*
X0095870Y0020569D02*
X0096638Y0020569D01*
X0096638Y0017500D01*
X0097405Y0017500D02*
X0095870Y0017500D01*
X0094336Y0017500D02*
X0092034Y0017500D01*
X0091266Y0018267D01*
X0094336Y0017500D02*
X0094336Y0022104D01*
X0096638Y0022104D02*
X0096638Y0022871D01*
X0099707Y0020569D02*
X0102009Y0020569D01*
X0103544Y0020569D02*
X0105846Y0020569D01*
X0106613Y0019802D01*
X0106613Y0018267D01*
X0105846Y0017500D01*
X0103544Y0017500D01*
X0103544Y0015965D02*
X0103544Y0020569D01*
X0102009Y0018267D02*
X0101242Y0019035D01*
X0099707Y0019035D01*
X0098940Y0019802D01*
X0099707Y0020569D01*
X0098940Y0017500D02*
X0101242Y0017500D01*
X0102009Y0018267D01*
X0108148Y0018267D02*
X0108148Y0019802D01*
X0108915Y0020569D01*
X0110450Y0020569D01*
X0111217Y0019802D01*
X0111217Y0019035D01*
X0108148Y0019035D01*
X0108148Y0018267D02*
X0108915Y0017500D01*
X0110450Y0017500D01*
X0112751Y0017500D02*
X0112751Y0020569D01*
X0115053Y0020569D01*
X0115821Y0019802D01*
X0115821Y0017500D01*
X0117355Y0017500D02*
X0119657Y0017500D01*
X0120425Y0018267D01*
X0119657Y0019035D01*
X0118123Y0019035D01*
X0117355Y0019802D01*
X0118123Y0020569D01*
X0120425Y0020569D01*
X0121959Y0019802D02*
X0122727Y0020569D01*
X0124261Y0020569D01*
X0125029Y0019802D01*
X0125029Y0019035D01*
X0121959Y0019035D01*
X0121959Y0019802D02*
X0121959Y0018267D01*
X0122727Y0017500D01*
X0124261Y0017500D01*
X0126563Y0017500D02*
X0126563Y0020569D01*
X0126563Y0019035D02*
X0128098Y0020569D01*
X0128865Y0020569D01*
X0234326Y0021069D02*
X0234326Y0018000D01*
X0234326Y0019535D02*
X0235861Y0021069D01*
X0236628Y0021069D01*
X0238163Y0020302D02*
X0238930Y0021069D01*
X0240465Y0021069D01*
X0241232Y0020302D01*
X0241232Y0019535D01*
X0238163Y0019535D01*
X0238163Y0020302D02*
X0238163Y0018767D01*
X0238930Y0018000D01*
X0240465Y0018000D01*
X0244301Y0018000D02*
X0245836Y0021069D01*
X0242767Y0021069D02*
X0244301Y0018000D01*
X0251974Y0018000D02*
X0251974Y0021069D01*
X0253509Y0022604D01*
X0255044Y0021069D01*
X0255044Y0018000D01*
X0255044Y0020302D02*
X0251974Y0020302D01*
X0261182Y0018000D02*
X0264252Y0022604D01*
X0270390Y0020302D02*
X0271157Y0021069D01*
X0273459Y0021069D01*
X0274994Y0021069D02*
X0277296Y0021069D01*
X0278063Y0020302D01*
X0278063Y0018000D01*
X0279598Y0018000D02*
X0279598Y0018767D01*
X0280365Y0018767D01*
X0280365Y0018000D01*
X0279598Y0018000D01*
X0279598Y0020302D02*
X0279598Y0021069D01*
X0280365Y0021069D01*
X0280365Y0020302D01*
X0279598Y0020302D01*
X0274994Y0021069D02*
X0274994Y0018000D01*
X0273459Y0018767D02*
X0272692Y0019535D01*
X0271157Y0019535D01*
X0270390Y0020302D01*
X0270390Y0018000D02*
X0272692Y0018000D01*
X0273459Y0018767D01*
D11*
X0301700Y0022300D03*
D12*
X0304200Y0109800D03*
X0221700Y0109800D03*
X0081700Y0154800D03*
D13*
X0078650Y0155350D02*
X0077149Y0155350D01*
X0077149Y0156101D01*
X0077399Y0156351D01*
X0077899Y0156351D01*
X0078150Y0156101D01*
X0078150Y0155350D01*
X0078150Y0155850D02*
X0078650Y0156351D01*
X0078650Y0156823D02*
X0078650Y0157824D01*
X0078650Y0157324D02*
X0077149Y0157324D01*
X0077649Y0156823D01*
X0077399Y0158297D02*
X0077149Y0158547D01*
X0077149Y0159047D01*
X0077399Y0159297D01*
X0077649Y0159297D01*
X0077899Y0159047D01*
X0078150Y0159297D01*
X0078400Y0159297D01*
X0078650Y0159047D01*
X0078650Y0158547D01*
X0078400Y0158297D01*
X0077899Y0158797D02*
X0077899Y0159047D01*
X0072397Y0159301D02*
X0071397Y0158300D01*
X0071397Y0158050D01*
X0070674Y0158550D02*
X0069923Y0158550D01*
X0069923Y0158050D02*
X0069923Y0159551D01*
X0070674Y0159551D01*
X0070924Y0159301D01*
X0070924Y0158801D01*
X0070674Y0158550D01*
X0071397Y0159551D02*
X0072397Y0159551D01*
X0072397Y0159301D01*
X0069451Y0159551D02*
X0068950Y0159551D01*
X0069201Y0159551D02*
X0069201Y0158300D01*
X0068950Y0158050D01*
X0068700Y0158050D01*
X0068450Y0158300D01*
X0036902Y0131797D02*
X0036902Y0130797D01*
X0035901Y0131797D01*
X0035651Y0131797D01*
X0035401Y0131547D01*
X0035401Y0131047D01*
X0035651Y0130797D01*
X0035651Y0130324D02*
X0036151Y0130324D01*
X0036402Y0130074D01*
X0036402Y0129323D01*
X0036902Y0129323D02*
X0035401Y0129323D01*
X0035401Y0130074D01*
X0035651Y0130324D01*
X0035401Y0128851D02*
X0035401Y0128350D01*
X0035401Y0128601D02*
X0036652Y0128601D01*
X0036902Y0128350D01*
X0036902Y0128100D01*
X0036652Y0127850D01*
X0048803Y0120001D02*
X0048803Y0119000D01*
X0049054Y0118750D01*
X0049554Y0118750D01*
X0049804Y0119000D01*
X0050277Y0119000D02*
X0050277Y0118750D01*
X0050277Y0119000D02*
X0051278Y0120001D01*
X0051278Y0120251D01*
X0050277Y0120251D01*
X0049804Y0120001D02*
X0049554Y0120251D01*
X0049054Y0120251D01*
X0048803Y0120001D01*
X0037974Y0107351D02*
X0037473Y0107351D01*
X0037223Y0107101D01*
X0037974Y0107351D02*
X0038224Y0107101D01*
X0038224Y0106851D01*
X0037223Y0105850D01*
X0038224Y0105850D01*
X0036751Y0105850D02*
X0035750Y0105850D01*
X0035750Y0107351D01*
X0058750Y0097351D02*
X0058750Y0096100D01*
X0059000Y0095850D01*
X0059501Y0095850D01*
X0059751Y0096100D01*
X0059751Y0097351D01*
X0060223Y0097101D02*
X0060473Y0097351D01*
X0060974Y0097351D01*
X0061224Y0097101D01*
X0061224Y0096851D01*
X0060223Y0095850D01*
X0061224Y0095850D01*
X0063500Y0099850D02*
X0064001Y0099850D01*
X0064251Y0100100D01*
X0064723Y0100100D02*
X0064723Y0100350D01*
X0064973Y0100601D01*
X0065474Y0100601D01*
X0065724Y0100350D01*
X0065724Y0100100D01*
X0065474Y0099850D01*
X0064973Y0099850D01*
X0064723Y0100100D01*
X0064973Y0100601D02*
X0064723Y0100851D01*
X0064723Y0101101D01*
X0064973Y0101351D01*
X0065474Y0101351D01*
X0065724Y0101101D01*
X0065724Y0100851D01*
X0065474Y0100601D01*
X0064251Y0101101D02*
X0064001Y0101351D01*
X0063500Y0101351D01*
X0063250Y0101101D01*
X0063250Y0100100D01*
X0063500Y0099850D01*
X0092250Y0099351D02*
X0092250Y0097850D01*
X0092250Y0098350D02*
X0093001Y0098350D01*
X0093251Y0098601D01*
X0093251Y0099101D01*
X0093001Y0099351D01*
X0092250Y0099351D01*
X0092750Y0098350D02*
X0093251Y0097850D01*
X0093723Y0097850D02*
X0094724Y0097850D01*
X0095197Y0097850D02*
X0096197Y0097850D01*
X0095697Y0097850D02*
X0095697Y0099351D01*
X0095197Y0098851D01*
X0094224Y0099351D02*
X0094224Y0097850D01*
X0093723Y0098851D02*
X0094224Y0099351D01*
X0090527Y0081751D02*
X0090778Y0081501D01*
X0089777Y0080500D01*
X0090027Y0080250D01*
X0090527Y0080250D01*
X0090778Y0080500D01*
X0090778Y0081501D01*
X0090527Y0081751D02*
X0090027Y0081751D01*
X0089777Y0081501D01*
X0089777Y0080500D01*
X0089304Y0080250D02*
X0088303Y0080250D01*
X0087831Y0080250D02*
X0087331Y0080750D01*
X0087581Y0080750D02*
X0086830Y0080750D01*
X0086830Y0080250D02*
X0086830Y0081751D01*
X0087581Y0081751D01*
X0087831Y0081501D01*
X0087831Y0081001D01*
X0087581Y0080750D01*
X0088303Y0081251D02*
X0088804Y0081751D01*
X0088804Y0080250D01*
X0090830Y0071751D02*
X0091581Y0071751D01*
X0091831Y0071501D01*
X0091831Y0071001D01*
X0091581Y0070750D01*
X0090830Y0070750D01*
X0090830Y0070250D02*
X0090830Y0071751D01*
X0091331Y0070750D02*
X0091831Y0070250D01*
X0092303Y0070250D02*
X0093304Y0070250D01*
X0093777Y0070250D02*
X0094778Y0071251D01*
X0094778Y0071501D01*
X0094527Y0071751D01*
X0094027Y0071751D01*
X0093777Y0071501D01*
X0092804Y0071751D02*
X0092804Y0070250D01*
X0093777Y0070250D02*
X0094778Y0070250D01*
X0092804Y0071751D02*
X0092303Y0071251D01*
X0051778Y0054501D02*
X0051778Y0054251D01*
X0051527Y0054001D01*
X0051027Y0054001D01*
X0050777Y0054251D01*
X0050777Y0054501D01*
X0051027Y0054751D01*
X0051527Y0054751D01*
X0051778Y0054501D01*
X0051527Y0054001D02*
X0051778Y0053750D01*
X0051778Y0053500D01*
X0051527Y0053250D01*
X0051027Y0053250D01*
X0050777Y0053500D01*
X0050777Y0053750D01*
X0051027Y0054001D01*
X0050304Y0054001D02*
X0050054Y0053750D01*
X0049303Y0053750D01*
X0049303Y0053250D02*
X0049303Y0054751D01*
X0050054Y0054751D01*
X0050304Y0054501D01*
X0050304Y0054001D01*
X0049804Y0053750D02*
X0050304Y0053250D01*
X0035724Y0052850D02*
X0034723Y0052850D01*
X0034251Y0052850D02*
X0033750Y0053350D01*
X0034001Y0053350D02*
X0033250Y0053350D01*
X0033250Y0052850D02*
X0033250Y0054351D01*
X0034001Y0054351D01*
X0034251Y0054101D01*
X0034251Y0053601D01*
X0034001Y0053350D01*
X0034723Y0053851D02*
X0035224Y0054351D01*
X0035224Y0052850D01*
X0024778Y0054750D02*
X0023777Y0054750D01*
X0024277Y0054750D02*
X0024277Y0056251D01*
X0023777Y0055751D01*
X0023304Y0056251D02*
X0023304Y0055000D01*
X0023054Y0054750D01*
X0022554Y0054750D01*
X0022303Y0055000D01*
X0022303Y0056251D01*
X0020778Y0054501D02*
X0020527Y0054751D01*
X0020027Y0054751D01*
X0019777Y0054501D01*
X0019777Y0054251D01*
X0020027Y0054001D01*
X0020778Y0054001D01*
X0020778Y0054501D02*
X0020778Y0053500D01*
X0020527Y0053250D01*
X0020027Y0053250D01*
X0019777Y0053500D01*
X0019304Y0053500D02*
X0019054Y0053250D01*
X0018554Y0053250D01*
X0018303Y0053500D01*
X0018303Y0054501D01*
X0018554Y0054751D01*
X0019054Y0054751D01*
X0019304Y0054501D01*
X0048250Y0067850D02*
X0048250Y0069351D01*
X0049001Y0069351D01*
X0049251Y0069101D01*
X0049251Y0068601D01*
X0049001Y0068350D01*
X0048250Y0068350D01*
X0048750Y0068350D02*
X0049251Y0067850D01*
X0049723Y0068100D02*
X0049973Y0067850D01*
X0050474Y0067850D01*
X0050724Y0068100D01*
X0050724Y0068350D01*
X0050474Y0068601D01*
X0050224Y0068601D01*
X0050474Y0068601D02*
X0050724Y0068851D01*
X0050724Y0069101D01*
X0050474Y0069351D01*
X0049973Y0069351D01*
X0049723Y0069101D01*
X0035527Y0083250D02*
X0035027Y0083250D01*
X0034777Y0083500D01*
X0034304Y0083500D02*
X0034054Y0083250D01*
X0033554Y0083250D01*
X0033303Y0083500D01*
X0033303Y0084501D01*
X0033554Y0084751D01*
X0034054Y0084751D01*
X0034304Y0084501D01*
X0034777Y0084501D02*
X0035027Y0084751D01*
X0035527Y0084751D01*
X0035778Y0084501D01*
X0035778Y0084251D01*
X0035527Y0084001D01*
X0035778Y0083750D01*
X0035778Y0083500D01*
X0035527Y0083250D01*
X0035527Y0084001D02*
X0035277Y0084001D01*
X0022197Y0084101D02*
X0022197Y0083100D01*
X0021947Y0082850D01*
X0021447Y0082850D01*
X0021197Y0083100D01*
X0022197Y0084101D01*
X0021947Y0084351D01*
X0021447Y0084351D01*
X0021197Y0084101D01*
X0021197Y0083100D01*
X0020724Y0082850D02*
X0019723Y0082850D01*
X0020224Y0082850D02*
X0020224Y0084351D01*
X0019723Y0083851D01*
X0019251Y0084101D02*
X0019001Y0084351D01*
X0018500Y0084351D01*
X0018250Y0084101D01*
X0018250Y0083100D01*
X0018500Y0082850D01*
X0019001Y0082850D01*
X0019251Y0083100D01*
X0011727Y0159050D02*
X0011227Y0159050D01*
X0010977Y0159300D01*
X0010977Y0159801D02*
X0011477Y0160051D01*
X0011727Y0160051D01*
X0011978Y0159801D01*
X0011978Y0159300D01*
X0011727Y0159050D01*
X0010977Y0159801D02*
X0010977Y0160551D01*
X0011978Y0160551D01*
X0010504Y0160301D02*
X0010504Y0159801D01*
X0010254Y0159550D01*
X0009503Y0159550D01*
X0009503Y0159050D02*
X0009503Y0160551D01*
X0010254Y0160551D01*
X0010504Y0160301D01*
X0009031Y0160551D02*
X0008531Y0160551D01*
X0008781Y0160551D02*
X0008781Y0159300D01*
X0008531Y0159050D01*
X0008280Y0159050D01*
X0008030Y0159300D01*
X0217149Y0108574D02*
X0217899Y0107823D01*
X0217899Y0108824D01*
X0217149Y0108574D02*
X0218650Y0108574D01*
X0218650Y0107351D02*
X0218150Y0106850D01*
X0218150Y0107101D02*
X0218150Y0106350D01*
X0218650Y0106350D02*
X0217149Y0106350D01*
X0217149Y0107101D01*
X0217399Y0107351D01*
X0217899Y0107351D01*
X0218150Y0107101D01*
X0256227Y0085379D02*
X0257111Y0086264D01*
X0257819Y0085556D02*
X0256934Y0084671D01*
X0256580Y0084671D01*
X0256227Y0085025D01*
X0256227Y0085379D01*
X0257268Y0084337D02*
X0257268Y0083983D01*
X0257622Y0083629D01*
X0257976Y0083629D01*
X0258153Y0083806D01*
X0258153Y0084160D01*
X0257799Y0084514D01*
X0257799Y0084868D01*
X0257976Y0085045D01*
X0258330Y0085045D01*
X0258684Y0084691D01*
X0258684Y0084337D01*
X0258841Y0083826D02*
X0259548Y0083826D01*
X0258487Y0082765D01*
X0258133Y0083118D02*
X0258841Y0082411D01*
X0257268Y0083629D02*
X0258684Y0085045D01*
X0244277Y0069751D02*
X0244277Y0068250D01*
X0243777Y0068250D02*
X0244778Y0068250D01*
X0243777Y0069251D02*
X0244277Y0069751D01*
X0243304Y0069501D02*
X0243054Y0069751D01*
X0242554Y0069751D01*
X0242303Y0069501D01*
X0242303Y0068500D01*
X0242554Y0068250D01*
X0243054Y0068250D01*
X0243304Y0068500D01*
X0308250Y0064351D02*
X0308250Y0062850D01*
X0308250Y0063350D02*
X0309001Y0063350D01*
X0309251Y0063601D01*
X0309251Y0064101D01*
X0309001Y0064351D01*
X0308250Y0064351D01*
X0308750Y0063350D02*
X0309251Y0062850D01*
X0309723Y0063100D02*
X0309973Y0062850D01*
X0310474Y0062850D01*
X0310724Y0063100D01*
X0310724Y0063601D01*
X0310474Y0063851D01*
X0310224Y0063851D01*
X0309723Y0063601D01*
X0309723Y0064351D01*
X0310724Y0064351D01*
X0310724Y0054351D02*
X0310724Y0054101D01*
X0309723Y0053100D01*
X0309723Y0052850D01*
X0309251Y0052850D02*
X0308750Y0053350D01*
X0309001Y0053350D02*
X0308250Y0053350D01*
X0308250Y0052850D02*
X0308250Y0054351D01*
X0309001Y0054351D01*
X0309251Y0054101D01*
X0309251Y0053601D01*
X0309001Y0053350D01*
X0309723Y0054351D02*
X0310724Y0054351D01*
X0334787Y0047595D02*
X0335037Y0047344D01*
X0335287Y0047344D01*
X0335538Y0047595D01*
X0335538Y0048846D01*
X0335788Y0048846D02*
X0335287Y0048846D01*
X0336260Y0048846D02*
X0337011Y0048846D01*
X0337261Y0048596D01*
X0337261Y0048095D01*
X0337011Y0047845D01*
X0336260Y0047845D01*
X0336260Y0047344D02*
X0336260Y0048846D01*
X0337733Y0048345D02*
X0338234Y0048846D01*
X0338234Y0047344D01*
X0338734Y0047344D02*
X0337733Y0047344D01*
X0309527Y0083250D02*
X0309778Y0083500D01*
X0309778Y0083750D01*
X0309527Y0084001D01*
X0308777Y0084001D01*
X0308777Y0083500D01*
X0309027Y0083250D01*
X0309527Y0083250D01*
X0308777Y0084001D02*
X0309277Y0084501D01*
X0309778Y0084751D01*
X0308304Y0084501D02*
X0308054Y0084751D01*
X0307554Y0084751D01*
X0307303Y0084501D01*
X0307303Y0083500D01*
X0307554Y0083250D01*
X0308054Y0083250D01*
X0308304Y0083500D01*
X0308250Y0091850D02*
X0308501Y0092100D01*
X0308501Y0093351D01*
X0308751Y0093351D02*
X0308250Y0093351D01*
X0309223Y0093351D02*
X0309974Y0093351D01*
X0310224Y0093101D01*
X0310224Y0092601D01*
X0309974Y0092350D01*
X0309223Y0092350D01*
X0309223Y0091850D02*
X0309223Y0093351D01*
X0310697Y0092601D02*
X0311447Y0092601D01*
X0311697Y0092350D01*
X0311697Y0092100D01*
X0311447Y0091850D01*
X0310947Y0091850D01*
X0310697Y0092100D01*
X0310697Y0092601D01*
X0311197Y0093101D01*
X0311697Y0093351D01*
X0308250Y0091850D02*
X0308000Y0091850D01*
X0307750Y0092100D01*
X0308250Y0110403D02*
X0308250Y0111154D01*
X0307999Y0111404D01*
X0307499Y0111404D01*
X0307249Y0111154D01*
X0307249Y0110403D01*
X0308750Y0110403D01*
X0308250Y0110904D02*
X0308750Y0111404D01*
X0308750Y0111877D02*
X0307749Y0112878D01*
X0307499Y0112878D01*
X0307249Y0112627D01*
X0307249Y0112127D01*
X0307499Y0111877D01*
X0308750Y0111877D02*
X0308750Y0112878D01*
X0309649Y0125850D02*
X0309899Y0125850D01*
X0310399Y0126350D01*
X0311150Y0126350D01*
X0310399Y0126350D02*
X0309899Y0126851D01*
X0309649Y0126851D01*
X0310149Y0127323D02*
X0309649Y0127824D01*
X0311150Y0127824D01*
X0311150Y0128324D02*
X0311150Y0127323D01*
X0335831Y0115751D02*
X0336331Y0115751D01*
X0336081Y0115751D02*
X0336081Y0114500D01*
X0335831Y0114250D01*
X0335580Y0114250D01*
X0335330Y0114500D01*
X0336803Y0114250D02*
X0336803Y0115751D01*
X0337554Y0115751D01*
X0337804Y0115501D01*
X0337804Y0115001D01*
X0337554Y0114750D01*
X0336803Y0114750D01*
X0338277Y0114500D02*
X0338527Y0114250D01*
X0339027Y0114250D01*
X0339278Y0114500D01*
X0339278Y0114750D01*
X0339027Y0115001D01*
X0338777Y0115001D01*
X0339027Y0115001D02*
X0339278Y0115251D01*
X0339278Y0115501D01*
X0339027Y0115751D01*
X0338527Y0115751D01*
X0338277Y0115501D01*
X0281150Y0129100D02*
X0280900Y0128850D01*
X0279899Y0128850D01*
X0279649Y0129100D01*
X0279649Y0129601D01*
X0279899Y0129851D01*
X0280399Y0130323D02*
X0279649Y0131074D01*
X0281150Y0131074D01*
X0280399Y0131324D02*
X0280399Y0130323D01*
X0280900Y0129851D02*
X0281150Y0129601D01*
X0281150Y0129100D01*
X0287499Y0147903D02*
X0288500Y0147903D01*
X0288750Y0148154D01*
X0288750Y0148654D01*
X0288500Y0148904D01*
X0288750Y0149377D02*
X0287749Y0150378D01*
X0287499Y0150378D01*
X0287249Y0150127D01*
X0287249Y0149627D01*
X0287499Y0149377D01*
X0287499Y0148904D02*
X0287249Y0148654D01*
X0287249Y0148154D01*
X0287499Y0147903D01*
X0288750Y0149377D02*
X0288750Y0150378D01*
X0313303Y0149501D02*
X0313303Y0148500D01*
X0313554Y0148250D01*
X0314054Y0148250D01*
X0314304Y0148500D01*
X0314777Y0148500D02*
X0315027Y0148250D01*
X0315527Y0148250D01*
X0315778Y0148500D01*
X0315778Y0149001D01*
X0315527Y0149251D01*
X0315277Y0149251D01*
X0314777Y0149001D01*
X0314777Y0149751D01*
X0315778Y0149751D01*
X0314304Y0149501D02*
X0314054Y0149751D01*
X0313554Y0149751D01*
X0313303Y0149501D01*
D14*
X0284320Y0147300D02*
X0284080Y0147300D01*
X0284080Y0132300D02*
X0284320Y0132300D01*
X0311700Y0079920D02*
X0311700Y0079680D01*
X0311700Y0069920D02*
X0311700Y0069680D01*
X0241700Y0064920D02*
X0241700Y0064680D01*
X0061700Y0104680D02*
X0061700Y0104920D01*
X0036700Y0079920D02*
X0036700Y0079680D01*
X0021700Y0079680D02*
X0021700Y0079920D01*
X0021700Y0049920D02*
X0021700Y0049680D01*
D15*
X0022757Y0061609D02*
X0020643Y0061609D01*
X0016100Y0063109D02*
X0016100Y0066491D01*
X0027300Y0066491D02*
X0027300Y0063109D01*
X0057700Y0074800D02*
X0074700Y0074800D01*
X0074700Y0094800D02*
X0057700Y0094800D01*
X0064200Y0124800D02*
X0069200Y0124800D01*
X0048905Y0129800D02*
X0048909Y0130114D01*
X0048920Y0130428D01*
X0048940Y0130741D01*
X0048967Y0131054D01*
X0049001Y0131366D01*
X0049043Y0131677D01*
X0049093Y0131987D01*
X0049151Y0132296D01*
X0049216Y0132603D01*
X0049288Y0132909D01*
X0049368Y0133213D01*
X0049456Y0133514D01*
X0049551Y0133814D01*
X0049653Y0134111D01*
X0049762Y0134405D01*
X0049879Y0134696D01*
X0050003Y0134985D01*
X0050133Y0135271D01*
X0050271Y0135553D01*
X0050416Y0135832D01*
X0050567Y0136107D01*
X0050725Y0136378D01*
X0050890Y0136645D01*
X0051061Y0136909D01*
X0051239Y0137167D01*
X0051423Y0137422D01*
X0051613Y0137672D01*
X0051809Y0137917D01*
X0052012Y0138157D01*
X0052220Y0138393D01*
X0052433Y0138623D01*
X0052653Y0138847D01*
X0052877Y0139067D01*
X0053107Y0139280D01*
X0053343Y0139488D01*
X0053583Y0139691D01*
X0053828Y0139887D01*
X0054078Y0140077D01*
X0054333Y0140261D01*
X0054591Y0140439D01*
X0054855Y0140610D01*
X0055122Y0140775D01*
X0055393Y0140933D01*
X0055668Y0141084D01*
X0055947Y0141229D01*
X0056229Y0141367D01*
X0056515Y0141497D01*
X0056804Y0141621D01*
X0057095Y0141738D01*
X0057389Y0141847D01*
X0057686Y0141949D01*
X0057986Y0142044D01*
X0058287Y0142132D01*
X0058591Y0142212D01*
X0058897Y0142284D01*
X0059204Y0142349D01*
X0059513Y0142407D01*
X0059823Y0142457D01*
X0060134Y0142499D01*
X0060446Y0142533D01*
X0060759Y0142560D01*
X0061072Y0142580D01*
X0061386Y0142591D01*
X0061700Y0142595D01*
X0062014Y0142591D01*
X0062328Y0142580D01*
X0062641Y0142560D01*
X0062954Y0142533D01*
X0063266Y0142499D01*
X0063577Y0142457D01*
X0063887Y0142407D01*
X0064196Y0142349D01*
X0064503Y0142284D01*
X0064809Y0142212D01*
X0065113Y0142132D01*
X0065414Y0142044D01*
X0065714Y0141949D01*
X0066011Y0141847D01*
X0066305Y0141738D01*
X0066596Y0141621D01*
X0066885Y0141497D01*
X0067171Y0141367D01*
X0067453Y0141229D01*
X0067732Y0141084D01*
X0068007Y0140933D01*
X0068278Y0140775D01*
X0068545Y0140610D01*
X0068809Y0140439D01*
X0069067Y0140261D01*
X0069322Y0140077D01*
X0069572Y0139887D01*
X0069817Y0139691D01*
X0070057Y0139488D01*
X0070293Y0139280D01*
X0070523Y0139067D01*
X0070747Y0138847D01*
X0070967Y0138623D01*
X0071180Y0138393D01*
X0071388Y0138157D01*
X0071591Y0137917D01*
X0071787Y0137672D01*
X0071977Y0137422D01*
X0072161Y0137167D01*
X0072339Y0136909D01*
X0072510Y0136645D01*
X0072675Y0136378D01*
X0072833Y0136107D01*
X0072984Y0135832D01*
X0073129Y0135553D01*
X0073267Y0135271D01*
X0073397Y0134985D01*
X0073521Y0134696D01*
X0073638Y0134405D01*
X0073747Y0134111D01*
X0073849Y0133814D01*
X0073944Y0133514D01*
X0074032Y0133213D01*
X0074112Y0132909D01*
X0074184Y0132603D01*
X0074249Y0132296D01*
X0074307Y0131987D01*
X0074357Y0131677D01*
X0074399Y0131366D01*
X0074433Y0131054D01*
X0074460Y0130741D01*
X0074480Y0130428D01*
X0074491Y0130114D01*
X0074495Y0129800D01*
X0074491Y0129486D01*
X0074480Y0129172D01*
X0074460Y0128859D01*
X0074433Y0128546D01*
X0074399Y0128234D01*
X0074357Y0127923D01*
X0074307Y0127613D01*
X0074249Y0127304D01*
X0074184Y0126997D01*
X0074112Y0126691D01*
X0074032Y0126387D01*
X0073944Y0126086D01*
X0073849Y0125786D01*
X0073747Y0125489D01*
X0073638Y0125195D01*
X0073521Y0124904D01*
X0073397Y0124615D01*
X0073267Y0124329D01*
X0073129Y0124047D01*
X0072984Y0123768D01*
X0072833Y0123493D01*
X0072675Y0123222D01*
X0072510Y0122955D01*
X0072339Y0122691D01*
X0072161Y0122433D01*
X0071977Y0122178D01*
X0071787Y0121928D01*
X0071591Y0121683D01*
X0071388Y0121443D01*
X0071180Y0121207D01*
X0070967Y0120977D01*
X0070747Y0120753D01*
X0070523Y0120533D01*
X0070293Y0120320D01*
X0070057Y0120112D01*
X0069817Y0119909D01*
X0069572Y0119713D01*
X0069322Y0119523D01*
X0069067Y0119339D01*
X0068809Y0119161D01*
X0068545Y0118990D01*
X0068278Y0118825D01*
X0068007Y0118667D01*
X0067732Y0118516D01*
X0067453Y0118371D01*
X0067171Y0118233D01*
X0066885Y0118103D01*
X0066596Y0117979D01*
X0066305Y0117862D01*
X0066011Y0117753D01*
X0065714Y0117651D01*
X0065414Y0117556D01*
X0065113Y0117468D01*
X0064809Y0117388D01*
X0064503Y0117316D01*
X0064196Y0117251D01*
X0063887Y0117193D01*
X0063577Y0117143D01*
X0063266Y0117101D01*
X0062954Y0117067D01*
X0062641Y0117040D01*
X0062328Y0117020D01*
X0062014Y0117009D01*
X0061700Y0117005D01*
X0061386Y0117009D01*
X0061072Y0117020D01*
X0060759Y0117040D01*
X0060446Y0117067D01*
X0060134Y0117101D01*
X0059823Y0117143D01*
X0059513Y0117193D01*
X0059204Y0117251D01*
X0058897Y0117316D01*
X0058591Y0117388D01*
X0058287Y0117468D01*
X0057986Y0117556D01*
X0057686Y0117651D01*
X0057389Y0117753D01*
X0057095Y0117862D01*
X0056804Y0117979D01*
X0056515Y0118103D01*
X0056229Y0118233D01*
X0055947Y0118371D01*
X0055668Y0118516D01*
X0055393Y0118667D01*
X0055122Y0118825D01*
X0054855Y0118990D01*
X0054591Y0119161D01*
X0054333Y0119339D01*
X0054078Y0119523D01*
X0053828Y0119713D01*
X0053583Y0119909D01*
X0053343Y0120112D01*
X0053107Y0120320D01*
X0052877Y0120533D01*
X0052653Y0120753D01*
X0052433Y0120977D01*
X0052220Y0121207D01*
X0052012Y0121443D01*
X0051809Y0121683D01*
X0051613Y0121928D01*
X0051423Y0122178D01*
X0051239Y0122433D01*
X0051061Y0122691D01*
X0050890Y0122955D01*
X0050725Y0123222D01*
X0050567Y0123493D01*
X0050416Y0123768D01*
X0050271Y0124047D01*
X0050133Y0124329D01*
X0050003Y0124615D01*
X0049879Y0124904D01*
X0049762Y0125195D01*
X0049653Y0125489D01*
X0049551Y0125786D01*
X0049456Y0126086D01*
X0049368Y0126387D01*
X0049288Y0126691D01*
X0049216Y0126997D01*
X0049151Y0127304D01*
X0049093Y0127613D01*
X0049043Y0127923D01*
X0049001Y0128234D01*
X0048967Y0128546D01*
X0048940Y0128859D01*
X0048920Y0129172D01*
X0048909Y0129486D01*
X0048905Y0129800D01*
X0049200Y0149800D02*
X0054200Y0149800D01*
X0056700Y0152300D01*
X0059200Y0149800D01*
X0064200Y0149800D01*
X0066700Y0152300D01*
X0066700Y0157300D01*
X0064200Y0159800D01*
X0059200Y0159800D01*
X0056700Y0157300D01*
X0054200Y0159800D01*
X0049200Y0159800D01*
X0046700Y0157300D01*
X0046700Y0152300D01*
X0049200Y0149800D01*
X0041700Y0152300D02*
X0041700Y0157300D01*
X0039200Y0159800D01*
X0034200Y0159800D01*
X0031700Y0157300D01*
X0029200Y0159800D01*
X0024200Y0159800D01*
X0021700Y0157300D01*
X0019200Y0159800D01*
X0014200Y0159800D01*
X0011700Y0157300D01*
X0011700Y0152300D01*
X0014200Y0149800D01*
X0019200Y0149800D01*
X0021700Y0152300D01*
X0024200Y0149800D01*
X0029200Y0149800D01*
X0031700Y0152300D01*
X0034200Y0149800D01*
X0039200Y0149800D01*
X0041700Y0152300D01*
X0231088Y0103414D02*
X0231088Y0101186D01*
X0255586Y0076688D01*
X0257814Y0076688D01*
X0282312Y0101186D01*
X0282312Y0103414D01*
X0257814Y0127912D01*
X0255586Y0127912D01*
X0231088Y0103414D01*
X0290700Y0126300D02*
X0290700Y0153300D01*
X0290703Y0153519D01*
X0290711Y0153738D01*
X0290724Y0153957D01*
X0290743Y0154175D01*
X0290767Y0154393D01*
X0290796Y0154610D01*
X0290830Y0154827D01*
X0290870Y0155042D01*
X0290915Y0155257D01*
X0290966Y0155470D01*
X0291021Y0155682D01*
X0291082Y0155893D01*
X0291147Y0156102D01*
X0291218Y0156309D01*
X0291294Y0156515D01*
X0291375Y0156719D01*
X0291460Y0156921D01*
X0291551Y0157120D01*
X0291646Y0157317D01*
X0291747Y0157512D01*
X0291852Y0157705D01*
X0291961Y0157895D01*
X0292075Y0158082D01*
X0292194Y0158266D01*
X0292317Y0158447D01*
X0292445Y0158625D01*
X0292577Y0158801D01*
X0292713Y0158972D01*
X0292853Y0159141D01*
X0292997Y0159306D01*
X0293145Y0159467D01*
X0293297Y0159625D01*
X0293453Y0159779D01*
X0293613Y0159929D01*
X0293776Y0160076D01*
X0293943Y0160218D01*
X0294113Y0160356D01*
X0294287Y0160490D01*
X0294463Y0160620D01*
X0294643Y0160745D01*
X0294826Y0160866D01*
X0295012Y0160982D01*
X0295200Y0161094D01*
X0295391Y0161201D01*
X0295585Y0161304D01*
X0295781Y0161402D01*
X0295979Y0161495D01*
X0296180Y0161583D01*
X0296383Y0161666D01*
X0296588Y0161745D01*
X0296794Y0161818D01*
X0297002Y0161886D01*
X0297212Y0161949D01*
X0297424Y0162007D01*
X0297636Y0162060D01*
X0297850Y0162108D01*
X0298065Y0162150D01*
X0298281Y0162187D01*
X0298498Y0162219D01*
X0298716Y0162246D01*
X0298934Y0162267D01*
X0299152Y0162283D01*
X0299371Y0162294D01*
X0299590Y0162299D01*
X0299810Y0162299D01*
X0300029Y0162294D01*
X0300248Y0162283D01*
X0300466Y0162267D01*
X0300684Y0162246D01*
X0300902Y0162219D01*
X0301119Y0162187D01*
X0301335Y0162150D01*
X0301550Y0162108D01*
X0301764Y0162060D01*
X0301976Y0162007D01*
X0302188Y0161949D01*
X0302398Y0161886D01*
X0302606Y0161818D01*
X0302812Y0161745D01*
X0303017Y0161666D01*
X0303220Y0161583D01*
X0303421Y0161495D01*
X0303619Y0161402D01*
X0303815Y0161304D01*
X0304009Y0161201D01*
X0304200Y0161094D01*
X0304388Y0160982D01*
X0304574Y0160866D01*
X0304757Y0160745D01*
X0304937Y0160620D01*
X0305113Y0160490D01*
X0305287Y0160356D01*
X0305457Y0160218D01*
X0305624Y0160076D01*
X0305787Y0159929D01*
X0305947Y0159779D01*
X0306103Y0159625D01*
X0306255Y0159467D01*
X0306403Y0159306D01*
X0306547Y0159141D01*
X0306687Y0158972D01*
X0306823Y0158801D01*
X0306955Y0158625D01*
X0307083Y0158447D01*
X0307206Y0158266D01*
X0307325Y0158082D01*
X0307439Y0157895D01*
X0307548Y0157705D01*
X0307653Y0157512D01*
X0307754Y0157317D01*
X0307849Y0157120D01*
X0307940Y0156921D01*
X0308025Y0156719D01*
X0308106Y0156515D01*
X0308182Y0156309D01*
X0308253Y0156102D01*
X0308318Y0155893D01*
X0308379Y0155682D01*
X0308434Y0155470D01*
X0308485Y0155257D01*
X0308530Y0155042D01*
X0308570Y0154827D01*
X0308604Y0154610D01*
X0308633Y0154393D01*
X0308657Y0154175D01*
X0308676Y0153957D01*
X0308689Y0153738D01*
X0308697Y0153519D01*
X0308700Y0153300D01*
X0308700Y0126300D01*
X0308697Y0126081D01*
X0308689Y0125862D01*
X0308676Y0125643D01*
X0308657Y0125425D01*
X0308633Y0125207D01*
X0308604Y0124990D01*
X0308570Y0124773D01*
X0308530Y0124558D01*
X0308485Y0124343D01*
X0308434Y0124130D01*
X0308379Y0123918D01*
X0308318Y0123707D01*
X0308253Y0123498D01*
X0308182Y0123291D01*
X0308106Y0123085D01*
X0308025Y0122881D01*
X0307940Y0122679D01*
X0307849Y0122480D01*
X0307754Y0122283D01*
X0307653Y0122088D01*
X0307548Y0121895D01*
X0307439Y0121705D01*
X0307325Y0121518D01*
X0307206Y0121334D01*
X0307083Y0121153D01*
X0306955Y0120975D01*
X0306823Y0120799D01*
X0306687Y0120628D01*
X0306547Y0120459D01*
X0306403Y0120294D01*
X0306255Y0120133D01*
X0306103Y0119975D01*
X0305947Y0119821D01*
X0305787Y0119671D01*
X0305624Y0119524D01*
X0305457Y0119382D01*
X0305287Y0119244D01*
X0305113Y0119110D01*
X0304937Y0118980D01*
X0304757Y0118855D01*
X0304574Y0118734D01*
X0304388Y0118618D01*
X0304200Y0118506D01*
X0304009Y0118399D01*
X0303815Y0118296D01*
X0303619Y0118198D01*
X0303421Y0118105D01*
X0303220Y0118017D01*
X0303017Y0117934D01*
X0302812Y0117855D01*
X0302606Y0117782D01*
X0302398Y0117714D01*
X0302188Y0117651D01*
X0301976Y0117593D01*
X0301764Y0117540D01*
X0301550Y0117492D01*
X0301335Y0117450D01*
X0301119Y0117413D01*
X0300902Y0117381D01*
X0300684Y0117354D01*
X0300466Y0117333D01*
X0300248Y0117317D01*
X0300029Y0117306D01*
X0299810Y0117301D01*
X0299590Y0117301D01*
X0299371Y0117306D01*
X0299152Y0117317D01*
X0298934Y0117333D01*
X0298716Y0117354D01*
X0298498Y0117381D01*
X0298281Y0117413D01*
X0298065Y0117450D01*
X0297850Y0117492D01*
X0297636Y0117540D01*
X0297424Y0117593D01*
X0297212Y0117651D01*
X0297002Y0117714D01*
X0296794Y0117782D01*
X0296588Y0117855D01*
X0296383Y0117934D01*
X0296180Y0118017D01*
X0295979Y0118105D01*
X0295781Y0118198D01*
X0295585Y0118296D01*
X0295391Y0118399D01*
X0295200Y0118506D01*
X0295012Y0118618D01*
X0294826Y0118734D01*
X0294643Y0118855D01*
X0294463Y0118980D01*
X0294287Y0119110D01*
X0294113Y0119244D01*
X0293943Y0119382D01*
X0293776Y0119524D01*
X0293613Y0119671D01*
X0293453Y0119821D01*
X0293297Y0119975D01*
X0293145Y0120133D01*
X0292997Y0120294D01*
X0292853Y0120459D01*
X0292713Y0120628D01*
X0292577Y0120799D01*
X0292445Y0120975D01*
X0292317Y0121153D01*
X0292194Y0121334D01*
X0292075Y0121518D01*
X0291961Y0121705D01*
X0291852Y0121895D01*
X0291747Y0122088D01*
X0291646Y0122283D01*
X0291551Y0122480D01*
X0291460Y0122679D01*
X0291375Y0122881D01*
X0291294Y0123085D01*
X0291218Y0123291D01*
X0291147Y0123498D01*
X0291082Y0123707D01*
X0291021Y0123918D01*
X0290966Y0124130D01*
X0290915Y0124343D01*
X0290870Y0124558D01*
X0290830Y0124773D01*
X0290796Y0124990D01*
X0290767Y0125207D01*
X0290743Y0125425D01*
X0290724Y0125643D01*
X0290711Y0125862D01*
X0290703Y0126081D01*
X0290700Y0126300D01*
X0312172Y0116178D02*
X0316109Y0116178D01*
X0312172Y0116178D02*
X0312172Y0163422D01*
X0316109Y0163422D01*
X0327920Y0163422D02*
X0355480Y0163422D01*
X0355480Y0116178D01*
X0327920Y0116178D01*
X0329200Y0112300D02*
X0324200Y0112300D01*
X0321700Y0109800D01*
X0321700Y0094800D01*
X0324200Y0092300D01*
X0329200Y0092300D01*
X0331700Y0094800D01*
X0331700Y0109800D01*
X0334200Y0112300D01*
X0339200Y0112300D01*
X0341700Y0109800D01*
X0341700Y0094800D01*
X0339200Y0092300D01*
X0334200Y0092300D01*
X0331700Y0094800D01*
X0321700Y0094800D02*
X0319200Y0092300D01*
X0314200Y0092300D01*
X0311700Y0094800D01*
X0311700Y0109800D01*
X0314200Y0112300D01*
X0319200Y0112300D01*
X0321700Y0109800D01*
X0329200Y0112300D02*
X0331700Y0109800D01*
X0319200Y0090981D02*
X0314200Y0090981D01*
D16*
X0311700Y0059800D03*
X0311700Y0049800D03*
X0091700Y0074800D03*
X0091700Y0084800D03*
X0091700Y0094800D03*
X0051700Y0064800D03*
X0051700Y0049800D03*
X0036700Y0049800D03*
D17*
X0060117Y0092800D02*
X0060119Y0092848D01*
X0060125Y0092896D01*
X0060135Y0092943D01*
X0060149Y0092989D01*
X0060166Y0093034D01*
X0060187Y0093077D01*
X0060212Y0093119D01*
X0060240Y0093158D01*
X0060271Y0093195D01*
X0060305Y0093229D01*
X0060342Y0093260D01*
X0060381Y0093288D01*
X0060423Y0093313D01*
X0060466Y0093334D01*
X0060511Y0093351D01*
X0060557Y0093365D01*
X0060604Y0093375D01*
X0060652Y0093381D01*
X0060700Y0093383D01*
X0060748Y0093381D01*
X0060796Y0093375D01*
X0060843Y0093365D01*
X0060889Y0093351D01*
X0060934Y0093334D01*
X0060977Y0093313D01*
X0061019Y0093288D01*
X0061058Y0093260D01*
X0061095Y0093229D01*
X0061129Y0093195D01*
X0061160Y0093158D01*
X0061188Y0093119D01*
X0061213Y0093077D01*
X0061234Y0093034D01*
X0061251Y0092989D01*
X0061265Y0092943D01*
X0061275Y0092896D01*
X0061281Y0092848D01*
X0061283Y0092800D01*
X0061281Y0092752D01*
X0061275Y0092704D01*
X0061265Y0092657D01*
X0061251Y0092611D01*
X0061234Y0092566D01*
X0061213Y0092523D01*
X0061188Y0092481D01*
X0061160Y0092442D01*
X0061129Y0092405D01*
X0061095Y0092371D01*
X0061058Y0092340D01*
X0061019Y0092312D01*
X0060977Y0092287D01*
X0060934Y0092266D01*
X0060889Y0092249D01*
X0060843Y0092235D01*
X0060796Y0092225D01*
X0060748Y0092219D01*
X0060700Y0092217D01*
X0060652Y0092219D01*
X0060604Y0092225D01*
X0060557Y0092235D01*
X0060511Y0092249D01*
X0060466Y0092266D01*
X0060423Y0092287D01*
X0060381Y0092312D01*
X0060342Y0092340D01*
X0060305Y0092371D01*
X0060271Y0092405D01*
X0060240Y0092442D01*
X0060212Y0092481D01*
X0060187Y0092523D01*
X0060166Y0092566D01*
X0060149Y0092611D01*
X0060135Y0092657D01*
X0060125Y0092704D01*
X0060119Y0092752D01*
X0060117Y0092800D01*
D18*
X0034574Y0091926D02*
X0034574Y0093894D01*
X0034574Y0091926D02*
X0018826Y0091926D01*
X0018826Y0093894D01*
X0018826Y0105706D02*
X0018826Y0107674D01*
X0034574Y0107674D01*
X0034574Y0105706D01*
D19*
X0255587Y0080029D02*
X0255589Y0080096D01*
X0255595Y0080162D01*
X0255605Y0080228D01*
X0255619Y0080293D01*
X0255636Y0080357D01*
X0255658Y0080420D01*
X0255683Y0080482D01*
X0255712Y0080542D01*
X0255745Y0080600D01*
X0255780Y0080656D01*
X0255820Y0080710D01*
X0255862Y0080761D01*
X0255907Y0080810D01*
X0255955Y0080856D01*
X0256006Y0080899D01*
X0256059Y0080939D01*
X0256115Y0080976D01*
X0256173Y0081009D01*
X0256232Y0081039D01*
X0256293Y0081065D01*
X0256356Y0081088D01*
X0256420Y0081106D01*
X0256485Y0081121D01*
X0256551Y0081132D01*
X0256617Y0081139D01*
X0256683Y0081142D01*
X0256750Y0081141D01*
X0256816Y0081136D01*
X0256882Y0081127D01*
X0256948Y0081114D01*
X0257012Y0081097D01*
X0257075Y0081077D01*
X0257137Y0081052D01*
X0257198Y0081024D01*
X0257257Y0080993D01*
X0257313Y0080958D01*
X0257368Y0080920D01*
X0257420Y0080878D01*
X0257469Y0080833D01*
X0257516Y0080786D01*
X0257560Y0080736D01*
X0257600Y0080683D01*
X0257638Y0080628D01*
X0257672Y0080571D01*
X0257703Y0080512D01*
X0257730Y0080451D01*
X0257753Y0080389D01*
X0257773Y0080325D01*
X0257789Y0080260D01*
X0257801Y0080195D01*
X0257809Y0080129D01*
X0257813Y0080062D01*
X0257813Y0079996D01*
X0257809Y0079929D01*
X0257801Y0079863D01*
X0257789Y0079798D01*
X0257773Y0079733D01*
X0257753Y0079669D01*
X0257730Y0079607D01*
X0257703Y0079546D01*
X0257672Y0079487D01*
X0257638Y0079430D01*
X0257600Y0079375D01*
X0257560Y0079322D01*
X0257516Y0079272D01*
X0257469Y0079225D01*
X0257420Y0079180D01*
X0257368Y0079138D01*
X0257313Y0079100D01*
X0257256Y0079065D01*
X0257198Y0079034D01*
X0257137Y0079006D01*
X0257075Y0078981D01*
X0257012Y0078961D01*
X0256948Y0078944D01*
X0256882Y0078931D01*
X0256816Y0078922D01*
X0256750Y0078917D01*
X0256683Y0078916D01*
X0256617Y0078919D01*
X0256551Y0078926D01*
X0256485Y0078937D01*
X0256420Y0078952D01*
X0256356Y0078970D01*
X0256293Y0078993D01*
X0256232Y0079019D01*
X0256173Y0079049D01*
X0256115Y0079082D01*
X0256059Y0079119D01*
X0256006Y0079159D01*
X0255955Y0079202D01*
X0255907Y0079248D01*
X0255862Y0079297D01*
X0255820Y0079348D01*
X0255780Y0079402D01*
X0255745Y0079458D01*
X0255712Y0079516D01*
X0255683Y0079576D01*
X0255658Y0079638D01*
X0255636Y0079701D01*
X0255619Y0079765D01*
X0255605Y0079830D01*
X0255595Y0079896D01*
X0255589Y0079962D01*
X0255587Y0080029D01*
M02*
