G75*
%MOIN*%
%OFA0B0*%
%FSLAX25Y25*%
%IPPOS*%
%LPD*%
%AMOC8*
5,1,8,0,0,1.08239X$1,22.5*
%
%ADD10R,0.04537X0.04931*%
%ADD11R,0.04931X0.04537*%
%ADD12R,0.03750X0.03750*%
%ADD13C,0.01514*%
%ADD14C,0.07100*%
%ADD15C,0.05324*%
%ADD16C,0.11820*%
%ADD17R,0.05324X0.02765*%
%ADD18R,0.01781X0.06899*%
%ADD19R,0.09694X0.10285*%
%ADD20C,0.09200*%
%ADD21C,0.08000*%
%ADD22R,0.07100X0.07100*%
%ADD23C,0.00500*%
%ADD24OC8,0.08000*%
%ADD25R,0.06506X0.08080*%
%ADD26C,0.13261*%
%ADD27C,0.03969*%
D10*
X0083991Y0062154D03*
X0093991Y0062154D03*
X0103991Y0062154D03*
X0103991Y0068846D03*
X0093991Y0068846D03*
X0083991Y0068846D03*
X0052991Y0131154D03*
X0052991Y0137846D03*
X0052991Y0144154D03*
X0052991Y0150846D03*
X0052991Y0157154D03*
X0063991Y0163154D03*
X0052991Y0163846D03*
X0052991Y0170154D03*
X0063991Y0169846D03*
X0052991Y0176846D03*
X0042991Y0176846D03*
X0042991Y0170154D03*
X0033991Y0183154D03*
X0033991Y0189846D03*
X0067991Y0189846D03*
X0067991Y0183154D03*
D11*
X0025337Y0173500D03*
X0018644Y0173500D03*
X0083644Y0155500D03*
X0090337Y0155500D03*
X0087644Y0119500D03*
X0094337Y0119500D03*
X0103644Y0119500D03*
X0110337Y0119500D03*
X0081337Y0119500D03*
X0074644Y0119500D03*
X0068337Y0119500D03*
X0061644Y0119500D03*
X0061644Y0109500D03*
X0068337Y0109500D03*
X0068337Y0099500D03*
X0061644Y0099500D03*
X0061644Y0089500D03*
X0068337Y0089500D03*
X0068337Y0079500D03*
X0061644Y0079500D03*
X0113644Y0082500D03*
X0120337Y0082500D03*
D12*
X0118943Y0091500D03*
X0113038Y0091500D03*
X0067943Y0069500D03*
X0062038Y0069500D03*
X0033991Y0170547D03*
X0033991Y0176453D03*
D13*
X0084153Y0108754D02*
X0084153Y0106518D01*
X0084153Y0108754D02*
X0084419Y0108754D01*
X0084419Y0106518D01*
X0084153Y0106518D01*
X0084153Y0108031D02*
X0084419Y0108031D01*
X0086094Y0108754D02*
X0086094Y0106518D01*
X0086094Y0108754D02*
X0086360Y0108754D01*
X0086360Y0106518D01*
X0086094Y0106518D01*
X0086094Y0108031D02*
X0086360Y0108031D01*
X0088035Y0108754D02*
X0088035Y0106518D01*
X0088035Y0108754D02*
X0088301Y0108754D01*
X0088301Y0106518D01*
X0088035Y0106518D01*
X0088035Y0108031D02*
X0088301Y0108031D01*
X0089976Y0108754D02*
X0089976Y0106518D01*
X0089976Y0108754D02*
X0090242Y0108754D01*
X0090242Y0106518D01*
X0089976Y0106518D01*
X0089976Y0108031D02*
X0090242Y0108031D01*
X0091917Y0108754D02*
X0091917Y0106518D01*
X0091917Y0108754D02*
X0092183Y0108754D01*
X0092183Y0106518D01*
X0091917Y0106518D01*
X0091917Y0108031D02*
X0092183Y0108031D01*
X0094124Y0108754D02*
X0094124Y0106518D01*
X0093858Y0106518D01*
X0093858Y0108754D01*
X0094124Y0108754D01*
X0094124Y0108031D02*
X0093858Y0108031D01*
X0096064Y0108754D02*
X0096064Y0106518D01*
X0095798Y0106518D01*
X0095798Y0108754D01*
X0096064Y0108754D01*
X0096064Y0108031D02*
X0095798Y0108031D01*
X0098005Y0108754D02*
X0098005Y0106518D01*
X0097739Y0106518D01*
X0097739Y0108754D01*
X0098005Y0108754D01*
X0098005Y0108031D02*
X0097739Y0108031D01*
X0099946Y0108754D02*
X0099946Y0106518D01*
X0099680Y0106518D01*
X0099680Y0108754D01*
X0099946Y0108754D01*
X0099946Y0108031D02*
X0099680Y0108031D01*
X0101887Y0108754D02*
X0101887Y0106518D01*
X0101621Y0106518D01*
X0101621Y0108754D01*
X0101887Y0108754D01*
X0101887Y0108031D02*
X0101621Y0108031D01*
X0103828Y0108754D02*
X0103828Y0106518D01*
X0103562Y0106518D01*
X0103562Y0108754D01*
X0103828Y0108754D01*
X0103828Y0108031D02*
X0103562Y0108031D01*
X0106008Y0104338D02*
X0108244Y0104338D01*
X0108244Y0104072D01*
X0106008Y0104072D01*
X0106008Y0104338D01*
X0106008Y0102397D02*
X0108244Y0102397D01*
X0108244Y0102131D01*
X0106008Y0102131D01*
X0106008Y0102397D01*
X0106008Y0100456D02*
X0108244Y0100456D01*
X0108244Y0100190D01*
X0106008Y0100190D01*
X0106008Y0100456D01*
X0106008Y0098515D02*
X0108244Y0098515D01*
X0108244Y0098249D01*
X0106008Y0098249D01*
X0106008Y0098515D01*
X0106008Y0096574D02*
X0108244Y0096574D01*
X0108244Y0096308D01*
X0106008Y0096308D01*
X0106008Y0096574D01*
X0106008Y0094367D02*
X0108244Y0094367D01*
X0106008Y0094367D02*
X0106008Y0094633D01*
X0108244Y0094633D01*
X0108244Y0094367D01*
X0108244Y0092426D02*
X0106008Y0092426D01*
X0106008Y0092692D01*
X0108244Y0092692D01*
X0108244Y0092426D01*
X0108244Y0090485D02*
X0106008Y0090485D01*
X0106008Y0090751D01*
X0108244Y0090751D01*
X0108244Y0090485D01*
X0108244Y0088544D02*
X0106008Y0088544D01*
X0106008Y0088810D01*
X0108244Y0088810D01*
X0108244Y0088544D01*
X0108244Y0086603D02*
X0106008Y0086603D01*
X0106008Y0086869D01*
X0108244Y0086869D01*
X0108244Y0086603D01*
X0108244Y0084662D02*
X0106008Y0084662D01*
X0106008Y0084928D01*
X0108244Y0084928D01*
X0108244Y0084662D01*
X0103828Y0082482D02*
X0103828Y0080246D01*
X0103562Y0080246D01*
X0103562Y0082482D01*
X0103828Y0082482D01*
X0103828Y0081759D02*
X0103562Y0081759D01*
X0101887Y0082482D02*
X0101887Y0080246D01*
X0101621Y0080246D01*
X0101621Y0082482D01*
X0101887Y0082482D01*
X0101887Y0081759D02*
X0101621Y0081759D01*
X0099946Y0082482D02*
X0099946Y0080246D01*
X0099680Y0080246D01*
X0099680Y0082482D01*
X0099946Y0082482D01*
X0099946Y0081759D02*
X0099680Y0081759D01*
X0098005Y0082482D02*
X0098005Y0080246D01*
X0097739Y0080246D01*
X0097739Y0082482D01*
X0098005Y0082482D01*
X0098005Y0081759D02*
X0097739Y0081759D01*
X0096064Y0082482D02*
X0096064Y0080246D01*
X0095798Y0080246D01*
X0095798Y0082482D01*
X0096064Y0082482D01*
X0096064Y0081759D02*
X0095798Y0081759D01*
X0093858Y0082482D02*
X0093858Y0080246D01*
X0093858Y0082482D02*
X0094124Y0082482D01*
X0094124Y0080246D01*
X0093858Y0080246D01*
X0093858Y0081759D02*
X0094124Y0081759D01*
X0091917Y0082482D02*
X0091917Y0080246D01*
X0091917Y0082482D02*
X0092183Y0082482D01*
X0092183Y0080246D01*
X0091917Y0080246D01*
X0091917Y0081759D02*
X0092183Y0081759D01*
X0089976Y0082482D02*
X0089976Y0080246D01*
X0089976Y0082482D02*
X0090242Y0082482D01*
X0090242Y0080246D01*
X0089976Y0080246D01*
X0089976Y0081759D02*
X0090242Y0081759D01*
X0088035Y0082482D02*
X0088035Y0080246D01*
X0088035Y0082482D02*
X0088301Y0082482D01*
X0088301Y0080246D01*
X0088035Y0080246D01*
X0088035Y0081759D02*
X0088301Y0081759D01*
X0086094Y0082482D02*
X0086094Y0080246D01*
X0086094Y0082482D02*
X0086360Y0082482D01*
X0086360Y0080246D01*
X0086094Y0080246D01*
X0086094Y0081759D02*
X0086360Y0081759D01*
X0084153Y0082482D02*
X0084153Y0080246D01*
X0084153Y0082482D02*
X0084419Y0082482D01*
X0084419Y0080246D01*
X0084153Y0080246D01*
X0084153Y0081759D02*
X0084419Y0081759D01*
X0081973Y0084662D02*
X0079737Y0084662D01*
X0079737Y0084928D01*
X0081973Y0084928D01*
X0081973Y0084662D01*
X0081973Y0086603D02*
X0079737Y0086603D01*
X0079737Y0086869D01*
X0081973Y0086869D01*
X0081973Y0086603D01*
X0081973Y0088544D02*
X0079737Y0088544D01*
X0079737Y0088810D01*
X0081973Y0088810D01*
X0081973Y0088544D01*
X0081973Y0090485D02*
X0079737Y0090485D01*
X0079737Y0090751D01*
X0081973Y0090751D01*
X0081973Y0090485D01*
X0081973Y0092426D02*
X0079737Y0092426D01*
X0079737Y0092692D01*
X0081973Y0092692D01*
X0081973Y0092426D01*
X0081973Y0094633D02*
X0079737Y0094633D01*
X0081973Y0094633D02*
X0081973Y0094367D01*
X0079737Y0094367D01*
X0079737Y0094633D01*
X0079737Y0096574D02*
X0081973Y0096574D01*
X0081973Y0096308D01*
X0079737Y0096308D01*
X0079737Y0096574D01*
X0079737Y0098515D02*
X0081973Y0098515D01*
X0081973Y0098249D01*
X0079737Y0098249D01*
X0079737Y0098515D01*
X0079737Y0100456D02*
X0081973Y0100456D01*
X0081973Y0100190D01*
X0079737Y0100190D01*
X0079737Y0100456D01*
X0079737Y0102397D02*
X0081973Y0102397D01*
X0081973Y0102131D01*
X0079737Y0102131D01*
X0079737Y0102397D01*
X0079737Y0104338D02*
X0081973Y0104338D01*
X0081973Y0104072D01*
X0079737Y0104072D01*
X0079737Y0104338D01*
D14*
X0099991Y0137500D03*
X0096991Y0047500D03*
X0116991Y0047500D03*
D15*
X0046676Y0052500D03*
X0026991Y0072185D03*
X0017148Y0072185D03*
X0017148Y0082815D03*
X0026991Y0082815D03*
X0046676Y0102500D03*
X0026991Y0122185D03*
X0017148Y0122185D03*
X0041069Y0141201D03*
X0036345Y0144350D03*
X0041069Y0147500D03*
X0036345Y0150650D03*
X0041069Y0153799D03*
X0026991Y0032815D03*
X0017148Y0032815D03*
D16*
X0020991Y0133130D03*
X0020991Y0161870D03*
D17*
X0047872Y0182760D03*
X0058109Y0182760D03*
X0058109Y0186500D03*
X0058109Y0190240D03*
X0047872Y0190240D03*
D18*
X0061034Y0152524D03*
X0063593Y0152524D03*
X0066152Y0152524D03*
X0068711Y0152524D03*
X0071270Y0152524D03*
X0073829Y0152524D03*
X0076388Y0152524D03*
X0078947Y0152524D03*
X0078947Y0130476D03*
X0076388Y0130476D03*
X0073829Y0130476D03*
X0071270Y0130476D03*
X0068711Y0130476D03*
X0066152Y0130476D03*
X0063593Y0130476D03*
X0061034Y0130476D03*
D19*
X0069991Y0141500D03*
D20*
X0046676Y0122185D03*
X0046676Y0112343D03*
X0026991Y0102500D03*
X0046676Y0092657D03*
X0046676Y0082815D03*
X0046676Y0072185D03*
X0046676Y0062343D03*
X0026991Y0052500D03*
X0046676Y0042657D03*
X0046676Y0032815D03*
D21*
X0125991Y0105500D03*
X0125991Y0115500D03*
X0125991Y0129500D03*
X0115991Y0129500D03*
X0115991Y0139500D03*
X0125991Y0139500D03*
X0125991Y0149500D03*
X0115991Y0149500D03*
D22*
X0089991Y0137500D03*
D23*
X0100762Y0171410D02*
X0100489Y0171523D01*
X0100256Y0171702D01*
X0100076Y0171936D01*
X0099964Y0172208D01*
X0099926Y0172500D01*
X0099964Y0172792D01*
X0100077Y0173064D01*
X0100256Y0173298D01*
X0100489Y0173477D01*
X0100762Y0173590D01*
X0101054Y0173628D01*
X0101345Y0173590D01*
X0101618Y0173477D01*
X0101851Y0173298D01*
X0102030Y0173064D01*
X0102143Y0172792D01*
X0102181Y0172500D01*
X0102143Y0172208D01*
X0102030Y0171936D01*
X0101851Y0171702D01*
X0101618Y0171523D01*
X0101345Y0171410D01*
X0101054Y0171372D01*
X0100762Y0171410D01*
X0100491Y0171522D02*
X0101615Y0171522D01*
X0102065Y0172021D02*
X0100041Y0172021D01*
X0099928Y0172519D02*
X0102179Y0172519D01*
X0102050Y0173018D02*
X0100057Y0173018D01*
X0100584Y0173516D02*
X0101523Y0173516D01*
X0107838Y0172792D02*
X0107951Y0173064D01*
X0108130Y0173298D01*
X0108363Y0173477D01*
X0108636Y0173590D01*
X0108928Y0173628D01*
X0109220Y0173590D01*
X0109492Y0173477D01*
X0109725Y0173298D01*
X0109904Y0173064D01*
X0110017Y0172792D01*
X0110056Y0172500D01*
X0110017Y0172208D01*
X0109904Y0171936D01*
X0109725Y0171702D01*
X0109492Y0171523D01*
X0109220Y0171410D01*
X0108928Y0171372D01*
X0108636Y0171410D01*
X0108363Y0171523D01*
X0108130Y0171702D01*
X0107950Y0171936D01*
X0107838Y0172208D01*
X0107800Y0172500D01*
X0107838Y0172792D01*
X0107931Y0173018D02*
X0109924Y0173018D01*
X0110053Y0172519D02*
X0107802Y0172519D01*
X0107915Y0172021D02*
X0109939Y0172021D01*
X0109489Y0171522D02*
X0108365Y0171522D01*
X0108458Y0173516D02*
X0109397Y0173516D01*
D24*
X0075991Y0053500D03*
X0065991Y0053500D03*
X0065991Y0043500D03*
X0075991Y0043500D03*
X0075991Y0033500D03*
X0065991Y0033500D03*
D25*
X0081991Y0172429D03*
X0081991Y0188571D03*
D26*
X0022991Y0021500D03*
X0132991Y0021500D03*
X0132991Y0186500D03*
X0022991Y0186500D03*
D27*
X0052991Y0186500D03*
X0046991Y0161500D03*
X0069991Y0159500D03*
X0080991Y0161500D03*
X0076991Y0141500D03*
X0062991Y0124500D03*
X0074991Y0111500D03*
X0079991Y0111500D03*
X0093991Y0114500D03*
X0106991Y0114500D03*
X0093991Y0102500D03*
X0112991Y0096500D03*
X0101991Y0086500D03*
X0062991Y0063500D03*
X0086991Y0057500D03*
X0106991Y0047500D03*
X0055991Y0089500D03*
X0055991Y0109500D03*
M02*
