G75*
%MOIN*%
%OFA0B0*%
%FSLAX25Y25*%
%IPPOS*%
%LPD*%
%AMOC8*
5,1,8,0,0,1.08239X$1,22.5*
%
%ADD10C,0.00000*%
D10*
X0012991Y0011500D02*
X0012991Y0196500D01*
X0142991Y0196500D01*
X0142991Y0011500D01*
X0012991Y0011500D01*
X0014786Y0032815D02*
X0014788Y0032912D01*
X0014794Y0033009D01*
X0014804Y0033105D01*
X0014818Y0033201D01*
X0014836Y0033297D01*
X0014857Y0033391D01*
X0014883Y0033485D01*
X0014912Y0033577D01*
X0014946Y0033668D01*
X0014982Y0033758D01*
X0015023Y0033846D01*
X0015067Y0033932D01*
X0015115Y0034017D01*
X0015166Y0034099D01*
X0015220Y0034180D01*
X0015278Y0034258D01*
X0015339Y0034333D01*
X0015402Y0034406D01*
X0015469Y0034477D01*
X0015539Y0034544D01*
X0015611Y0034609D01*
X0015686Y0034670D01*
X0015764Y0034729D01*
X0015843Y0034784D01*
X0015925Y0034836D01*
X0016009Y0034884D01*
X0016095Y0034929D01*
X0016183Y0034971D01*
X0016272Y0035009D01*
X0016363Y0035043D01*
X0016455Y0035073D01*
X0016548Y0035100D01*
X0016643Y0035122D01*
X0016738Y0035141D01*
X0016834Y0035156D01*
X0016930Y0035167D01*
X0017027Y0035174D01*
X0017124Y0035177D01*
X0017221Y0035176D01*
X0017318Y0035171D01*
X0017414Y0035162D01*
X0017510Y0035149D01*
X0017606Y0035132D01*
X0017701Y0035111D01*
X0017794Y0035087D01*
X0017887Y0035058D01*
X0017979Y0035026D01*
X0018069Y0034990D01*
X0018157Y0034951D01*
X0018244Y0034907D01*
X0018329Y0034861D01*
X0018412Y0034810D01*
X0018493Y0034757D01*
X0018571Y0034700D01*
X0018648Y0034640D01*
X0018721Y0034577D01*
X0018792Y0034511D01*
X0018860Y0034442D01*
X0018926Y0034370D01*
X0018988Y0034296D01*
X0019047Y0034219D01*
X0019103Y0034140D01*
X0019156Y0034058D01*
X0019206Y0033975D01*
X0019251Y0033889D01*
X0019294Y0033802D01*
X0019333Y0033713D01*
X0019368Y0033623D01*
X0019399Y0033531D01*
X0019426Y0033438D01*
X0019450Y0033344D01*
X0019470Y0033249D01*
X0019486Y0033153D01*
X0019498Y0033057D01*
X0019506Y0032960D01*
X0019510Y0032863D01*
X0019510Y0032767D01*
X0019506Y0032670D01*
X0019498Y0032573D01*
X0019486Y0032477D01*
X0019470Y0032381D01*
X0019450Y0032286D01*
X0019426Y0032192D01*
X0019399Y0032099D01*
X0019368Y0032007D01*
X0019333Y0031917D01*
X0019294Y0031828D01*
X0019251Y0031741D01*
X0019206Y0031655D01*
X0019156Y0031572D01*
X0019103Y0031490D01*
X0019047Y0031411D01*
X0018988Y0031334D01*
X0018926Y0031260D01*
X0018860Y0031188D01*
X0018792Y0031119D01*
X0018721Y0031053D01*
X0018648Y0030990D01*
X0018571Y0030930D01*
X0018493Y0030873D01*
X0018412Y0030820D01*
X0018329Y0030769D01*
X0018244Y0030723D01*
X0018157Y0030679D01*
X0018069Y0030640D01*
X0017979Y0030604D01*
X0017887Y0030572D01*
X0017794Y0030543D01*
X0017701Y0030519D01*
X0017606Y0030498D01*
X0017510Y0030481D01*
X0017414Y0030468D01*
X0017318Y0030459D01*
X0017221Y0030454D01*
X0017124Y0030453D01*
X0017027Y0030456D01*
X0016930Y0030463D01*
X0016834Y0030474D01*
X0016738Y0030489D01*
X0016643Y0030508D01*
X0016548Y0030530D01*
X0016455Y0030557D01*
X0016363Y0030587D01*
X0016272Y0030621D01*
X0016183Y0030659D01*
X0016095Y0030701D01*
X0016009Y0030746D01*
X0015925Y0030794D01*
X0015843Y0030846D01*
X0015764Y0030901D01*
X0015686Y0030960D01*
X0015611Y0031021D01*
X0015539Y0031086D01*
X0015469Y0031153D01*
X0015402Y0031224D01*
X0015339Y0031297D01*
X0015278Y0031372D01*
X0015220Y0031450D01*
X0015166Y0031531D01*
X0015115Y0031613D01*
X0015067Y0031698D01*
X0015023Y0031784D01*
X0014982Y0031872D01*
X0014946Y0031962D01*
X0014912Y0032053D01*
X0014883Y0032145D01*
X0014857Y0032239D01*
X0014836Y0032333D01*
X0014818Y0032429D01*
X0014804Y0032525D01*
X0014794Y0032621D01*
X0014788Y0032718D01*
X0014786Y0032815D01*
X0024629Y0032815D02*
X0024631Y0032912D01*
X0024637Y0033009D01*
X0024647Y0033105D01*
X0024661Y0033201D01*
X0024679Y0033297D01*
X0024700Y0033391D01*
X0024726Y0033485D01*
X0024755Y0033577D01*
X0024789Y0033668D01*
X0024825Y0033758D01*
X0024866Y0033846D01*
X0024910Y0033932D01*
X0024958Y0034017D01*
X0025009Y0034099D01*
X0025063Y0034180D01*
X0025121Y0034258D01*
X0025182Y0034333D01*
X0025245Y0034406D01*
X0025312Y0034477D01*
X0025382Y0034544D01*
X0025454Y0034609D01*
X0025529Y0034670D01*
X0025607Y0034729D01*
X0025686Y0034784D01*
X0025768Y0034836D01*
X0025852Y0034884D01*
X0025938Y0034929D01*
X0026026Y0034971D01*
X0026115Y0035009D01*
X0026206Y0035043D01*
X0026298Y0035073D01*
X0026391Y0035100D01*
X0026486Y0035122D01*
X0026581Y0035141D01*
X0026677Y0035156D01*
X0026773Y0035167D01*
X0026870Y0035174D01*
X0026967Y0035177D01*
X0027064Y0035176D01*
X0027161Y0035171D01*
X0027257Y0035162D01*
X0027353Y0035149D01*
X0027449Y0035132D01*
X0027544Y0035111D01*
X0027637Y0035087D01*
X0027730Y0035058D01*
X0027822Y0035026D01*
X0027912Y0034990D01*
X0028000Y0034951D01*
X0028087Y0034907D01*
X0028172Y0034861D01*
X0028255Y0034810D01*
X0028336Y0034757D01*
X0028414Y0034700D01*
X0028491Y0034640D01*
X0028564Y0034577D01*
X0028635Y0034511D01*
X0028703Y0034442D01*
X0028769Y0034370D01*
X0028831Y0034296D01*
X0028890Y0034219D01*
X0028946Y0034140D01*
X0028999Y0034058D01*
X0029049Y0033975D01*
X0029094Y0033889D01*
X0029137Y0033802D01*
X0029176Y0033713D01*
X0029211Y0033623D01*
X0029242Y0033531D01*
X0029269Y0033438D01*
X0029293Y0033344D01*
X0029313Y0033249D01*
X0029329Y0033153D01*
X0029341Y0033057D01*
X0029349Y0032960D01*
X0029353Y0032863D01*
X0029353Y0032767D01*
X0029349Y0032670D01*
X0029341Y0032573D01*
X0029329Y0032477D01*
X0029313Y0032381D01*
X0029293Y0032286D01*
X0029269Y0032192D01*
X0029242Y0032099D01*
X0029211Y0032007D01*
X0029176Y0031917D01*
X0029137Y0031828D01*
X0029094Y0031741D01*
X0029049Y0031655D01*
X0028999Y0031572D01*
X0028946Y0031490D01*
X0028890Y0031411D01*
X0028831Y0031334D01*
X0028769Y0031260D01*
X0028703Y0031188D01*
X0028635Y0031119D01*
X0028564Y0031053D01*
X0028491Y0030990D01*
X0028414Y0030930D01*
X0028336Y0030873D01*
X0028255Y0030820D01*
X0028172Y0030769D01*
X0028087Y0030723D01*
X0028000Y0030679D01*
X0027912Y0030640D01*
X0027822Y0030604D01*
X0027730Y0030572D01*
X0027637Y0030543D01*
X0027544Y0030519D01*
X0027449Y0030498D01*
X0027353Y0030481D01*
X0027257Y0030468D01*
X0027161Y0030459D01*
X0027064Y0030454D01*
X0026967Y0030453D01*
X0026870Y0030456D01*
X0026773Y0030463D01*
X0026677Y0030474D01*
X0026581Y0030489D01*
X0026486Y0030508D01*
X0026391Y0030530D01*
X0026298Y0030557D01*
X0026206Y0030587D01*
X0026115Y0030621D01*
X0026026Y0030659D01*
X0025938Y0030701D01*
X0025852Y0030746D01*
X0025768Y0030794D01*
X0025686Y0030846D01*
X0025607Y0030901D01*
X0025529Y0030960D01*
X0025454Y0031021D01*
X0025382Y0031086D01*
X0025312Y0031153D01*
X0025245Y0031224D01*
X0025182Y0031297D01*
X0025121Y0031372D01*
X0025063Y0031450D01*
X0025009Y0031531D01*
X0024958Y0031613D01*
X0024910Y0031698D01*
X0024866Y0031784D01*
X0024825Y0031872D01*
X0024789Y0031962D01*
X0024755Y0032053D01*
X0024726Y0032145D01*
X0024700Y0032239D01*
X0024679Y0032333D01*
X0024661Y0032429D01*
X0024647Y0032525D01*
X0024637Y0032621D01*
X0024631Y0032718D01*
X0024629Y0032815D01*
X0044314Y0052500D02*
X0044316Y0052597D01*
X0044322Y0052694D01*
X0044332Y0052790D01*
X0044346Y0052886D01*
X0044364Y0052982D01*
X0044385Y0053076D01*
X0044411Y0053170D01*
X0044440Y0053262D01*
X0044474Y0053353D01*
X0044510Y0053443D01*
X0044551Y0053531D01*
X0044595Y0053617D01*
X0044643Y0053702D01*
X0044694Y0053784D01*
X0044748Y0053865D01*
X0044806Y0053943D01*
X0044867Y0054018D01*
X0044930Y0054091D01*
X0044997Y0054162D01*
X0045067Y0054229D01*
X0045139Y0054294D01*
X0045214Y0054355D01*
X0045292Y0054414D01*
X0045371Y0054469D01*
X0045453Y0054521D01*
X0045537Y0054569D01*
X0045623Y0054614D01*
X0045711Y0054656D01*
X0045800Y0054694D01*
X0045891Y0054728D01*
X0045983Y0054758D01*
X0046076Y0054785D01*
X0046171Y0054807D01*
X0046266Y0054826D01*
X0046362Y0054841D01*
X0046458Y0054852D01*
X0046555Y0054859D01*
X0046652Y0054862D01*
X0046749Y0054861D01*
X0046846Y0054856D01*
X0046942Y0054847D01*
X0047038Y0054834D01*
X0047134Y0054817D01*
X0047229Y0054796D01*
X0047322Y0054772D01*
X0047415Y0054743D01*
X0047507Y0054711D01*
X0047597Y0054675D01*
X0047685Y0054636D01*
X0047772Y0054592D01*
X0047857Y0054546D01*
X0047940Y0054495D01*
X0048021Y0054442D01*
X0048099Y0054385D01*
X0048176Y0054325D01*
X0048249Y0054262D01*
X0048320Y0054196D01*
X0048388Y0054127D01*
X0048454Y0054055D01*
X0048516Y0053981D01*
X0048575Y0053904D01*
X0048631Y0053825D01*
X0048684Y0053743D01*
X0048734Y0053660D01*
X0048779Y0053574D01*
X0048822Y0053487D01*
X0048861Y0053398D01*
X0048896Y0053308D01*
X0048927Y0053216D01*
X0048954Y0053123D01*
X0048978Y0053029D01*
X0048998Y0052934D01*
X0049014Y0052838D01*
X0049026Y0052742D01*
X0049034Y0052645D01*
X0049038Y0052548D01*
X0049038Y0052452D01*
X0049034Y0052355D01*
X0049026Y0052258D01*
X0049014Y0052162D01*
X0048998Y0052066D01*
X0048978Y0051971D01*
X0048954Y0051877D01*
X0048927Y0051784D01*
X0048896Y0051692D01*
X0048861Y0051602D01*
X0048822Y0051513D01*
X0048779Y0051426D01*
X0048734Y0051340D01*
X0048684Y0051257D01*
X0048631Y0051175D01*
X0048575Y0051096D01*
X0048516Y0051019D01*
X0048454Y0050945D01*
X0048388Y0050873D01*
X0048320Y0050804D01*
X0048249Y0050738D01*
X0048176Y0050675D01*
X0048099Y0050615D01*
X0048021Y0050558D01*
X0047940Y0050505D01*
X0047857Y0050454D01*
X0047772Y0050408D01*
X0047685Y0050364D01*
X0047597Y0050325D01*
X0047507Y0050289D01*
X0047415Y0050257D01*
X0047322Y0050228D01*
X0047229Y0050204D01*
X0047134Y0050183D01*
X0047038Y0050166D01*
X0046942Y0050153D01*
X0046846Y0050144D01*
X0046749Y0050139D01*
X0046652Y0050138D01*
X0046555Y0050141D01*
X0046458Y0050148D01*
X0046362Y0050159D01*
X0046266Y0050174D01*
X0046171Y0050193D01*
X0046076Y0050215D01*
X0045983Y0050242D01*
X0045891Y0050272D01*
X0045800Y0050306D01*
X0045711Y0050344D01*
X0045623Y0050386D01*
X0045537Y0050431D01*
X0045453Y0050479D01*
X0045371Y0050531D01*
X0045292Y0050586D01*
X0045214Y0050645D01*
X0045139Y0050706D01*
X0045067Y0050771D01*
X0044997Y0050838D01*
X0044930Y0050909D01*
X0044867Y0050982D01*
X0044806Y0051057D01*
X0044748Y0051135D01*
X0044694Y0051216D01*
X0044643Y0051298D01*
X0044595Y0051383D01*
X0044551Y0051469D01*
X0044510Y0051557D01*
X0044474Y0051647D01*
X0044440Y0051738D01*
X0044411Y0051830D01*
X0044385Y0051924D01*
X0044364Y0052018D01*
X0044346Y0052114D01*
X0044332Y0052210D01*
X0044322Y0052306D01*
X0044316Y0052403D01*
X0044314Y0052500D01*
X0024629Y0072185D02*
X0024631Y0072282D01*
X0024637Y0072379D01*
X0024647Y0072475D01*
X0024661Y0072571D01*
X0024679Y0072667D01*
X0024700Y0072761D01*
X0024726Y0072855D01*
X0024755Y0072947D01*
X0024789Y0073038D01*
X0024825Y0073128D01*
X0024866Y0073216D01*
X0024910Y0073302D01*
X0024958Y0073387D01*
X0025009Y0073469D01*
X0025063Y0073550D01*
X0025121Y0073628D01*
X0025182Y0073703D01*
X0025245Y0073776D01*
X0025312Y0073847D01*
X0025382Y0073914D01*
X0025454Y0073979D01*
X0025529Y0074040D01*
X0025607Y0074099D01*
X0025686Y0074154D01*
X0025768Y0074206D01*
X0025852Y0074254D01*
X0025938Y0074299D01*
X0026026Y0074341D01*
X0026115Y0074379D01*
X0026206Y0074413D01*
X0026298Y0074443D01*
X0026391Y0074470D01*
X0026486Y0074492D01*
X0026581Y0074511D01*
X0026677Y0074526D01*
X0026773Y0074537D01*
X0026870Y0074544D01*
X0026967Y0074547D01*
X0027064Y0074546D01*
X0027161Y0074541D01*
X0027257Y0074532D01*
X0027353Y0074519D01*
X0027449Y0074502D01*
X0027544Y0074481D01*
X0027637Y0074457D01*
X0027730Y0074428D01*
X0027822Y0074396D01*
X0027912Y0074360D01*
X0028000Y0074321D01*
X0028087Y0074277D01*
X0028172Y0074231D01*
X0028255Y0074180D01*
X0028336Y0074127D01*
X0028414Y0074070D01*
X0028491Y0074010D01*
X0028564Y0073947D01*
X0028635Y0073881D01*
X0028703Y0073812D01*
X0028769Y0073740D01*
X0028831Y0073666D01*
X0028890Y0073589D01*
X0028946Y0073510D01*
X0028999Y0073428D01*
X0029049Y0073345D01*
X0029094Y0073259D01*
X0029137Y0073172D01*
X0029176Y0073083D01*
X0029211Y0072993D01*
X0029242Y0072901D01*
X0029269Y0072808D01*
X0029293Y0072714D01*
X0029313Y0072619D01*
X0029329Y0072523D01*
X0029341Y0072427D01*
X0029349Y0072330D01*
X0029353Y0072233D01*
X0029353Y0072137D01*
X0029349Y0072040D01*
X0029341Y0071943D01*
X0029329Y0071847D01*
X0029313Y0071751D01*
X0029293Y0071656D01*
X0029269Y0071562D01*
X0029242Y0071469D01*
X0029211Y0071377D01*
X0029176Y0071287D01*
X0029137Y0071198D01*
X0029094Y0071111D01*
X0029049Y0071025D01*
X0028999Y0070942D01*
X0028946Y0070860D01*
X0028890Y0070781D01*
X0028831Y0070704D01*
X0028769Y0070630D01*
X0028703Y0070558D01*
X0028635Y0070489D01*
X0028564Y0070423D01*
X0028491Y0070360D01*
X0028414Y0070300D01*
X0028336Y0070243D01*
X0028255Y0070190D01*
X0028172Y0070139D01*
X0028087Y0070093D01*
X0028000Y0070049D01*
X0027912Y0070010D01*
X0027822Y0069974D01*
X0027730Y0069942D01*
X0027637Y0069913D01*
X0027544Y0069889D01*
X0027449Y0069868D01*
X0027353Y0069851D01*
X0027257Y0069838D01*
X0027161Y0069829D01*
X0027064Y0069824D01*
X0026967Y0069823D01*
X0026870Y0069826D01*
X0026773Y0069833D01*
X0026677Y0069844D01*
X0026581Y0069859D01*
X0026486Y0069878D01*
X0026391Y0069900D01*
X0026298Y0069927D01*
X0026206Y0069957D01*
X0026115Y0069991D01*
X0026026Y0070029D01*
X0025938Y0070071D01*
X0025852Y0070116D01*
X0025768Y0070164D01*
X0025686Y0070216D01*
X0025607Y0070271D01*
X0025529Y0070330D01*
X0025454Y0070391D01*
X0025382Y0070456D01*
X0025312Y0070523D01*
X0025245Y0070594D01*
X0025182Y0070667D01*
X0025121Y0070742D01*
X0025063Y0070820D01*
X0025009Y0070901D01*
X0024958Y0070983D01*
X0024910Y0071068D01*
X0024866Y0071154D01*
X0024825Y0071242D01*
X0024789Y0071332D01*
X0024755Y0071423D01*
X0024726Y0071515D01*
X0024700Y0071609D01*
X0024679Y0071703D01*
X0024661Y0071799D01*
X0024647Y0071895D01*
X0024637Y0071991D01*
X0024631Y0072088D01*
X0024629Y0072185D01*
X0014786Y0072185D02*
X0014788Y0072282D01*
X0014794Y0072379D01*
X0014804Y0072475D01*
X0014818Y0072571D01*
X0014836Y0072667D01*
X0014857Y0072761D01*
X0014883Y0072855D01*
X0014912Y0072947D01*
X0014946Y0073038D01*
X0014982Y0073128D01*
X0015023Y0073216D01*
X0015067Y0073302D01*
X0015115Y0073387D01*
X0015166Y0073469D01*
X0015220Y0073550D01*
X0015278Y0073628D01*
X0015339Y0073703D01*
X0015402Y0073776D01*
X0015469Y0073847D01*
X0015539Y0073914D01*
X0015611Y0073979D01*
X0015686Y0074040D01*
X0015764Y0074099D01*
X0015843Y0074154D01*
X0015925Y0074206D01*
X0016009Y0074254D01*
X0016095Y0074299D01*
X0016183Y0074341D01*
X0016272Y0074379D01*
X0016363Y0074413D01*
X0016455Y0074443D01*
X0016548Y0074470D01*
X0016643Y0074492D01*
X0016738Y0074511D01*
X0016834Y0074526D01*
X0016930Y0074537D01*
X0017027Y0074544D01*
X0017124Y0074547D01*
X0017221Y0074546D01*
X0017318Y0074541D01*
X0017414Y0074532D01*
X0017510Y0074519D01*
X0017606Y0074502D01*
X0017701Y0074481D01*
X0017794Y0074457D01*
X0017887Y0074428D01*
X0017979Y0074396D01*
X0018069Y0074360D01*
X0018157Y0074321D01*
X0018244Y0074277D01*
X0018329Y0074231D01*
X0018412Y0074180D01*
X0018493Y0074127D01*
X0018571Y0074070D01*
X0018648Y0074010D01*
X0018721Y0073947D01*
X0018792Y0073881D01*
X0018860Y0073812D01*
X0018926Y0073740D01*
X0018988Y0073666D01*
X0019047Y0073589D01*
X0019103Y0073510D01*
X0019156Y0073428D01*
X0019206Y0073345D01*
X0019251Y0073259D01*
X0019294Y0073172D01*
X0019333Y0073083D01*
X0019368Y0072993D01*
X0019399Y0072901D01*
X0019426Y0072808D01*
X0019450Y0072714D01*
X0019470Y0072619D01*
X0019486Y0072523D01*
X0019498Y0072427D01*
X0019506Y0072330D01*
X0019510Y0072233D01*
X0019510Y0072137D01*
X0019506Y0072040D01*
X0019498Y0071943D01*
X0019486Y0071847D01*
X0019470Y0071751D01*
X0019450Y0071656D01*
X0019426Y0071562D01*
X0019399Y0071469D01*
X0019368Y0071377D01*
X0019333Y0071287D01*
X0019294Y0071198D01*
X0019251Y0071111D01*
X0019206Y0071025D01*
X0019156Y0070942D01*
X0019103Y0070860D01*
X0019047Y0070781D01*
X0018988Y0070704D01*
X0018926Y0070630D01*
X0018860Y0070558D01*
X0018792Y0070489D01*
X0018721Y0070423D01*
X0018648Y0070360D01*
X0018571Y0070300D01*
X0018493Y0070243D01*
X0018412Y0070190D01*
X0018329Y0070139D01*
X0018244Y0070093D01*
X0018157Y0070049D01*
X0018069Y0070010D01*
X0017979Y0069974D01*
X0017887Y0069942D01*
X0017794Y0069913D01*
X0017701Y0069889D01*
X0017606Y0069868D01*
X0017510Y0069851D01*
X0017414Y0069838D01*
X0017318Y0069829D01*
X0017221Y0069824D01*
X0017124Y0069823D01*
X0017027Y0069826D01*
X0016930Y0069833D01*
X0016834Y0069844D01*
X0016738Y0069859D01*
X0016643Y0069878D01*
X0016548Y0069900D01*
X0016455Y0069927D01*
X0016363Y0069957D01*
X0016272Y0069991D01*
X0016183Y0070029D01*
X0016095Y0070071D01*
X0016009Y0070116D01*
X0015925Y0070164D01*
X0015843Y0070216D01*
X0015764Y0070271D01*
X0015686Y0070330D01*
X0015611Y0070391D01*
X0015539Y0070456D01*
X0015469Y0070523D01*
X0015402Y0070594D01*
X0015339Y0070667D01*
X0015278Y0070742D01*
X0015220Y0070820D01*
X0015166Y0070901D01*
X0015115Y0070983D01*
X0015067Y0071068D01*
X0015023Y0071154D01*
X0014982Y0071242D01*
X0014946Y0071332D01*
X0014912Y0071423D01*
X0014883Y0071515D01*
X0014857Y0071609D01*
X0014836Y0071703D01*
X0014818Y0071799D01*
X0014804Y0071895D01*
X0014794Y0071991D01*
X0014788Y0072088D01*
X0014786Y0072185D01*
X0014786Y0082815D02*
X0014788Y0082912D01*
X0014794Y0083009D01*
X0014804Y0083105D01*
X0014818Y0083201D01*
X0014836Y0083297D01*
X0014857Y0083391D01*
X0014883Y0083485D01*
X0014912Y0083577D01*
X0014946Y0083668D01*
X0014982Y0083758D01*
X0015023Y0083846D01*
X0015067Y0083932D01*
X0015115Y0084017D01*
X0015166Y0084099D01*
X0015220Y0084180D01*
X0015278Y0084258D01*
X0015339Y0084333D01*
X0015402Y0084406D01*
X0015469Y0084477D01*
X0015539Y0084544D01*
X0015611Y0084609D01*
X0015686Y0084670D01*
X0015764Y0084729D01*
X0015843Y0084784D01*
X0015925Y0084836D01*
X0016009Y0084884D01*
X0016095Y0084929D01*
X0016183Y0084971D01*
X0016272Y0085009D01*
X0016363Y0085043D01*
X0016455Y0085073D01*
X0016548Y0085100D01*
X0016643Y0085122D01*
X0016738Y0085141D01*
X0016834Y0085156D01*
X0016930Y0085167D01*
X0017027Y0085174D01*
X0017124Y0085177D01*
X0017221Y0085176D01*
X0017318Y0085171D01*
X0017414Y0085162D01*
X0017510Y0085149D01*
X0017606Y0085132D01*
X0017701Y0085111D01*
X0017794Y0085087D01*
X0017887Y0085058D01*
X0017979Y0085026D01*
X0018069Y0084990D01*
X0018157Y0084951D01*
X0018244Y0084907D01*
X0018329Y0084861D01*
X0018412Y0084810D01*
X0018493Y0084757D01*
X0018571Y0084700D01*
X0018648Y0084640D01*
X0018721Y0084577D01*
X0018792Y0084511D01*
X0018860Y0084442D01*
X0018926Y0084370D01*
X0018988Y0084296D01*
X0019047Y0084219D01*
X0019103Y0084140D01*
X0019156Y0084058D01*
X0019206Y0083975D01*
X0019251Y0083889D01*
X0019294Y0083802D01*
X0019333Y0083713D01*
X0019368Y0083623D01*
X0019399Y0083531D01*
X0019426Y0083438D01*
X0019450Y0083344D01*
X0019470Y0083249D01*
X0019486Y0083153D01*
X0019498Y0083057D01*
X0019506Y0082960D01*
X0019510Y0082863D01*
X0019510Y0082767D01*
X0019506Y0082670D01*
X0019498Y0082573D01*
X0019486Y0082477D01*
X0019470Y0082381D01*
X0019450Y0082286D01*
X0019426Y0082192D01*
X0019399Y0082099D01*
X0019368Y0082007D01*
X0019333Y0081917D01*
X0019294Y0081828D01*
X0019251Y0081741D01*
X0019206Y0081655D01*
X0019156Y0081572D01*
X0019103Y0081490D01*
X0019047Y0081411D01*
X0018988Y0081334D01*
X0018926Y0081260D01*
X0018860Y0081188D01*
X0018792Y0081119D01*
X0018721Y0081053D01*
X0018648Y0080990D01*
X0018571Y0080930D01*
X0018493Y0080873D01*
X0018412Y0080820D01*
X0018329Y0080769D01*
X0018244Y0080723D01*
X0018157Y0080679D01*
X0018069Y0080640D01*
X0017979Y0080604D01*
X0017887Y0080572D01*
X0017794Y0080543D01*
X0017701Y0080519D01*
X0017606Y0080498D01*
X0017510Y0080481D01*
X0017414Y0080468D01*
X0017318Y0080459D01*
X0017221Y0080454D01*
X0017124Y0080453D01*
X0017027Y0080456D01*
X0016930Y0080463D01*
X0016834Y0080474D01*
X0016738Y0080489D01*
X0016643Y0080508D01*
X0016548Y0080530D01*
X0016455Y0080557D01*
X0016363Y0080587D01*
X0016272Y0080621D01*
X0016183Y0080659D01*
X0016095Y0080701D01*
X0016009Y0080746D01*
X0015925Y0080794D01*
X0015843Y0080846D01*
X0015764Y0080901D01*
X0015686Y0080960D01*
X0015611Y0081021D01*
X0015539Y0081086D01*
X0015469Y0081153D01*
X0015402Y0081224D01*
X0015339Y0081297D01*
X0015278Y0081372D01*
X0015220Y0081450D01*
X0015166Y0081531D01*
X0015115Y0081613D01*
X0015067Y0081698D01*
X0015023Y0081784D01*
X0014982Y0081872D01*
X0014946Y0081962D01*
X0014912Y0082053D01*
X0014883Y0082145D01*
X0014857Y0082239D01*
X0014836Y0082333D01*
X0014818Y0082429D01*
X0014804Y0082525D01*
X0014794Y0082621D01*
X0014788Y0082718D01*
X0014786Y0082815D01*
X0024629Y0082815D02*
X0024631Y0082912D01*
X0024637Y0083009D01*
X0024647Y0083105D01*
X0024661Y0083201D01*
X0024679Y0083297D01*
X0024700Y0083391D01*
X0024726Y0083485D01*
X0024755Y0083577D01*
X0024789Y0083668D01*
X0024825Y0083758D01*
X0024866Y0083846D01*
X0024910Y0083932D01*
X0024958Y0084017D01*
X0025009Y0084099D01*
X0025063Y0084180D01*
X0025121Y0084258D01*
X0025182Y0084333D01*
X0025245Y0084406D01*
X0025312Y0084477D01*
X0025382Y0084544D01*
X0025454Y0084609D01*
X0025529Y0084670D01*
X0025607Y0084729D01*
X0025686Y0084784D01*
X0025768Y0084836D01*
X0025852Y0084884D01*
X0025938Y0084929D01*
X0026026Y0084971D01*
X0026115Y0085009D01*
X0026206Y0085043D01*
X0026298Y0085073D01*
X0026391Y0085100D01*
X0026486Y0085122D01*
X0026581Y0085141D01*
X0026677Y0085156D01*
X0026773Y0085167D01*
X0026870Y0085174D01*
X0026967Y0085177D01*
X0027064Y0085176D01*
X0027161Y0085171D01*
X0027257Y0085162D01*
X0027353Y0085149D01*
X0027449Y0085132D01*
X0027544Y0085111D01*
X0027637Y0085087D01*
X0027730Y0085058D01*
X0027822Y0085026D01*
X0027912Y0084990D01*
X0028000Y0084951D01*
X0028087Y0084907D01*
X0028172Y0084861D01*
X0028255Y0084810D01*
X0028336Y0084757D01*
X0028414Y0084700D01*
X0028491Y0084640D01*
X0028564Y0084577D01*
X0028635Y0084511D01*
X0028703Y0084442D01*
X0028769Y0084370D01*
X0028831Y0084296D01*
X0028890Y0084219D01*
X0028946Y0084140D01*
X0028999Y0084058D01*
X0029049Y0083975D01*
X0029094Y0083889D01*
X0029137Y0083802D01*
X0029176Y0083713D01*
X0029211Y0083623D01*
X0029242Y0083531D01*
X0029269Y0083438D01*
X0029293Y0083344D01*
X0029313Y0083249D01*
X0029329Y0083153D01*
X0029341Y0083057D01*
X0029349Y0082960D01*
X0029353Y0082863D01*
X0029353Y0082767D01*
X0029349Y0082670D01*
X0029341Y0082573D01*
X0029329Y0082477D01*
X0029313Y0082381D01*
X0029293Y0082286D01*
X0029269Y0082192D01*
X0029242Y0082099D01*
X0029211Y0082007D01*
X0029176Y0081917D01*
X0029137Y0081828D01*
X0029094Y0081741D01*
X0029049Y0081655D01*
X0028999Y0081572D01*
X0028946Y0081490D01*
X0028890Y0081411D01*
X0028831Y0081334D01*
X0028769Y0081260D01*
X0028703Y0081188D01*
X0028635Y0081119D01*
X0028564Y0081053D01*
X0028491Y0080990D01*
X0028414Y0080930D01*
X0028336Y0080873D01*
X0028255Y0080820D01*
X0028172Y0080769D01*
X0028087Y0080723D01*
X0028000Y0080679D01*
X0027912Y0080640D01*
X0027822Y0080604D01*
X0027730Y0080572D01*
X0027637Y0080543D01*
X0027544Y0080519D01*
X0027449Y0080498D01*
X0027353Y0080481D01*
X0027257Y0080468D01*
X0027161Y0080459D01*
X0027064Y0080454D01*
X0026967Y0080453D01*
X0026870Y0080456D01*
X0026773Y0080463D01*
X0026677Y0080474D01*
X0026581Y0080489D01*
X0026486Y0080508D01*
X0026391Y0080530D01*
X0026298Y0080557D01*
X0026206Y0080587D01*
X0026115Y0080621D01*
X0026026Y0080659D01*
X0025938Y0080701D01*
X0025852Y0080746D01*
X0025768Y0080794D01*
X0025686Y0080846D01*
X0025607Y0080901D01*
X0025529Y0080960D01*
X0025454Y0081021D01*
X0025382Y0081086D01*
X0025312Y0081153D01*
X0025245Y0081224D01*
X0025182Y0081297D01*
X0025121Y0081372D01*
X0025063Y0081450D01*
X0025009Y0081531D01*
X0024958Y0081613D01*
X0024910Y0081698D01*
X0024866Y0081784D01*
X0024825Y0081872D01*
X0024789Y0081962D01*
X0024755Y0082053D01*
X0024726Y0082145D01*
X0024700Y0082239D01*
X0024679Y0082333D01*
X0024661Y0082429D01*
X0024647Y0082525D01*
X0024637Y0082621D01*
X0024631Y0082718D01*
X0024629Y0082815D01*
X0044314Y0102500D02*
X0044316Y0102597D01*
X0044322Y0102694D01*
X0044332Y0102790D01*
X0044346Y0102886D01*
X0044364Y0102982D01*
X0044385Y0103076D01*
X0044411Y0103170D01*
X0044440Y0103262D01*
X0044474Y0103353D01*
X0044510Y0103443D01*
X0044551Y0103531D01*
X0044595Y0103617D01*
X0044643Y0103702D01*
X0044694Y0103784D01*
X0044748Y0103865D01*
X0044806Y0103943D01*
X0044867Y0104018D01*
X0044930Y0104091D01*
X0044997Y0104162D01*
X0045067Y0104229D01*
X0045139Y0104294D01*
X0045214Y0104355D01*
X0045292Y0104414D01*
X0045371Y0104469D01*
X0045453Y0104521D01*
X0045537Y0104569D01*
X0045623Y0104614D01*
X0045711Y0104656D01*
X0045800Y0104694D01*
X0045891Y0104728D01*
X0045983Y0104758D01*
X0046076Y0104785D01*
X0046171Y0104807D01*
X0046266Y0104826D01*
X0046362Y0104841D01*
X0046458Y0104852D01*
X0046555Y0104859D01*
X0046652Y0104862D01*
X0046749Y0104861D01*
X0046846Y0104856D01*
X0046942Y0104847D01*
X0047038Y0104834D01*
X0047134Y0104817D01*
X0047229Y0104796D01*
X0047322Y0104772D01*
X0047415Y0104743D01*
X0047507Y0104711D01*
X0047597Y0104675D01*
X0047685Y0104636D01*
X0047772Y0104592D01*
X0047857Y0104546D01*
X0047940Y0104495D01*
X0048021Y0104442D01*
X0048099Y0104385D01*
X0048176Y0104325D01*
X0048249Y0104262D01*
X0048320Y0104196D01*
X0048388Y0104127D01*
X0048454Y0104055D01*
X0048516Y0103981D01*
X0048575Y0103904D01*
X0048631Y0103825D01*
X0048684Y0103743D01*
X0048734Y0103660D01*
X0048779Y0103574D01*
X0048822Y0103487D01*
X0048861Y0103398D01*
X0048896Y0103308D01*
X0048927Y0103216D01*
X0048954Y0103123D01*
X0048978Y0103029D01*
X0048998Y0102934D01*
X0049014Y0102838D01*
X0049026Y0102742D01*
X0049034Y0102645D01*
X0049038Y0102548D01*
X0049038Y0102452D01*
X0049034Y0102355D01*
X0049026Y0102258D01*
X0049014Y0102162D01*
X0048998Y0102066D01*
X0048978Y0101971D01*
X0048954Y0101877D01*
X0048927Y0101784D01*
X0048896Y0101692D01*
X0048861Y0101602D01*
X0048822Y0101513D01*
X0048779Y0101426D01*
X0048734Y0101340D01*
X0048684Y0101257D01*
X0048631Y0101175D01*
X0048575Y0101096D01*
X0048516Y0101019D01*
X0048454Y0100945D01*
X0048388Y0100873D01*
X0048320Y0100804D01*
X0048249Y0100738D01*
X0048176Y0100675D01*
X0048099Y0100615D01*
X0048021Y0100558D01*
X0047940Y0100505D01*
X0047857Y0100454D01*
X0047772Y0100408D01*
X0047685Y0100364D01*
X0047597Y0100325D01*
X0047507Y0100289D01*
X0047415Y0100257D01*
X0047322Y0100228D01*
X0047229Y0100204D01*
X0047134Y0100183D01*
X0047038Y0100166D01*
X0046942Y0100153D01*
X0046846Y0100144D01*
X0046749Y0100139D01*
X0046652Y0100138D01*
X0046555Y0100141D01*
X0046458Y0100148D01*
X0046362Y0100159D01*
X0046266Y0100174D01*
X0046171Y0100193D01*
X0046076Y0100215D01*
X0045983Y0100242D01*
X0045891Y0100272D01*
X0045800Y0100306D01*
X0045711Y0100344D01*
X0045623Y0100386D01*
X0045537Y0100431D01*
X0045453Y0100479D01*
X0045371Y0100531D01*
X0045292Y0100586D01*
X0045214Y0100645D01*
X0045139Y0100706D01*
X0045067Y0100771D01*
X0044997Y0100838D01*
X0044930Y0100909D01*
X0044867Y0100982D01*
X0044806Y0101057D01*
X0044748Y0101135D01*
X0044694Y0101216D01*
X0044643Y0101298D01*
X0044595Y0101383D01*
X0044551Y0101469D01*
X0044510Y0101557D01*
X0044474Y0101647D01*
X0044440Y0101738D01*
X0044411Y0101830D01*
X0044385Y0101924D01*
X0044364Y0102018D01*
X0044346Y0102114D01*
X0044332Y0102210D01*
X0044322Y0102306D01*
X0044316Y0102403D01*
X0044314Y0102500D01*
X0024629Y0122185D02*
X0024631Y0122282D01*
X0024637Y0122379D01*
X0024647Y0122475D01*
X0024661Y0122571D01*
X0024679Y0122667D01*
X0024700Y0122761D01*
X0024726Y0122855D01*
X0024755Y0122947D01*
X0024789Y0123038D01*
X0024825Y0123128D01*
X0024866Y0123216D01*
X0024910Y0123302D01*
X0024958Y0123387D01*
X0025009Y0123469D01*
X0025063Y0123550D01*
X0025121Y0123628D01*
X0025182Y0123703D01*
X0025245Y0123776D01*
X0025312Y0123847D01*
X0025382Y0123914D01*
X0025454Y0123979D01*
X0025529Y0124040D01*
X0025607Y0124099D01*
X0025686Y0124154D01*
X0025768Y0124206D01*
X0025852Y0124254D01*
X0025938Y0124299D01*
X0026026Y0124341D01*
X0026115Y0124379D01*
X0026206Y0124413D01*
X0026298Y0124443D01*
X0026391Y0124470D01*
X0026486Y0124492D01*
X0026581Y0124511D01*
X0026677Y0124526D01*
X0026773Y0124537D01*
X0026870Y0124544D01*
X0026967Y0124547D01*
X0027064Y0124546D01*
X0027161Y0124541D01*
X0027257Y0124532D01*
X0027353Y0124519D01*
X0027449Y0124502D01*
X0027544Y0124481D01*
X0027637Y0124457D01*
X0027730Y0124428D01*
X0027822Y0124396D01*
X0027912Y0124360D01*
X0028000Y0124321D01*
X0028087Y0124277D01*
X0028172Y0124231D01*
X0028255Y0124180D01*
X0028336Y0124127D01*
X0028414Y0124070D01*
X0028491Y0124010D01*
X0028564Y0123947D01*
X0028635Y0123881D01*
X0028703Y0123812D01*
X0028769Y0123740D01*
X0028831Y0123666D01*
X0028890Y0123589D01*
X0028946Y0123510D01*
X0028999Y0123428D01*
X0029049Y0123345D01*
X0029094Y0123259D01*
X0029137Y0123172D01*
X0029176Y0123083D01*
X0029211Y0122993D01*
X0029242Y0122901D01*
X0029269Y0122808D01*
X0029293Y0122714D01*
X0029313Y0122619D01*
X0029329Y0122523D01*
X0029341Y0122427D01*
X0029349Y0122330D01*
X0029353Y0122233D01*
X0029353Y0122137D01*
X0029349Y0122040D01*
X0029341Y0121943D01*
X0029329Y0121847D01*
X0029313Y0121751D01*
X0029293Y0121656D01*
X0029269Y0121562D01*
X0029242Y0121469D01*
X0029211Y0121377D01*
X0029176Y0121287D01*
X0029137Y0121198D01*
X0029094Y0121111D01*
X0029049Y0121025D01*
X0028999Y0120942D01*
X0028946Y0120860D01*
X0028890Y0120781D01*
X0028831Y0120704D01*
X0028769Y0120630D01*
X0028703Y0120558D01*
X0028635Y0120489D01*
X0028564Y0120423D01*
X0028491Y0120360D01*
X0028414Y0120300D01*
X0028336Y0120243D01*
X0028255Y0120190D01*
X0028172Y0120139D01*
X0028087Y0120093D01*
X0028000Y0120049D01*
X0027912Y0120010D01*
X0027822Y0119974D01*
X0027730Y0119942D01*
X0027637Y0119913D01*
X0027544Y0119889D01*
X0027449Y0119868D01*
X0027353Y0119851D01*
X0027257Y0119838D01*
X0027161Y0119829D01*
X0027064Y0119824D01*
X0026967Y0119823D01*
X0026870Y0119826D01*
X0026773Y0119833D01*
X0026677Y0119844D01*
X0026581Y0119859D01*
X0026486Y0119878D01*
X0026391Y0119900D01*
X0026298Y0119927D01*
X0026206Y0119957D01*
X0026115Y0119991D01*
X0026026Y0120029D01*
X0025938Y0120071D01*
X0025852Y0120116D01*
X0025768Y0120164D01*
X0025686Y0120216D01*
X0025607Y0120271D01*
X0025529Y0120330D01*
X0025454Y0120391D01*
X0025382Y0120456D01*
X0025312Y0120523D01*
X0025245Y0120594D01*
X0025182Y0120667D01*
X0025121Y0120742D01*
X0025063Y0120820D01*
X0025009Y0120901D01*
X0024958Y0120983D01*
X0024910Y0121068D01*
X0024866Y0121154D01*
X0024825Y0121242D01*
X0024789Y0121332D01*
X0024755Y0121423D01*
X0024726Y0121515D01*
X0024700Y0121609D01*
X0024679Y0121703D01*
X0024661Y0121799D01*
X0024647Y0121895D01*
X0024637Y0121991D01*
X0024631Y0122088D01*
X0024629Y0122185D01*
X0014786Y0122185D02*
X0014788Y0122282D01*
X0014794Y0122379D01*
X0014804Y0122475D01*
X0014818Y0122571D01*
X0014836Y0122667D01*
X0014857Y0122761D01*
X0014883Y0122855D01*
X0014912Y0122947D01*
X0014946Y0123038D01*
X0014982Y0123128D01*
X0015023Y0123216D01*
X0015067Y0123302D01*
X0015115Y0123387D01*
X0015166Y0123469D01*
X0015220Y0123550D01*
X0015278Y0123628D01*
X0015339Y0123703D01*
X0015402Y0123776D01*
X0015469Y0123847D01*
X0015539Y0123914D01*
X0015611Y0123979D01*
X0015686Y0124040D01*
X0015764Y0124099D01*
X0015843Y0124154D01*
X0015925Y0124206D01*
X0016009Y0124254D01*
X0016095Y0124299D01*
X0016183Y0124341D01*
X0016272Y0124379D01*
X0016363Y0124413D01*
X0016455Y0124443D01*
X0016548Y0124470D01*
X0016643Y0124492D01*
X0016738Y0124511D01*
X0016834Y0124526D01*
X0016930Y0124537D01*
X0017027Y0124544D01*
X0017124Y0124547D01*
X0017221Y0124546D01*
X0017318Y0124541D01*
X0017414Y0124532D01*
X0017510Y0124519D01*
X0017606Y0124502D01*
X0017701Y0124481D01*
X0017794Y0124457D01*
X0017887Y0124428D01*
X0017979Y0124396D01*
X0018069Y0124360D01*
X0018157Y0124321D01*
X0018244Y0124277D01*
X0018329Y0124231D01*
X0018412Y0124180D01*
X0018493Y0124127D01*
X0018571Y0124070D01*
X0018648Y0124010D01*
X0018721Y0123947D01*
X0018792Y0123881D01*
X0018860Y0123812D01*
X0018926Y0123740D01*
X0018988Y0123666D01*
X0019047Y0123589D01*
X0019103Y0123510D01*
X0019156Y0123428D01*
X0019206Y0123345D01*
X0019251Y0123259D01*
X0019294Y0123172D01*
X0019333Y0123083D01*
X0019368Y0122993D01*
X0019399Y0122901D01*
X0019426Y0122808D01*
X0019450Y0122714D01*
X0019470Y0122619D01*
X0019486Y0122523D01*
X0019498Y0122427D01*
X0019506Y0122330D01*
X0019510Y0122233D01*
X0019510Y0122137D01*
X0019506Y0122040D01*
X0019498Y0121943D01*
X0019486Y0121847D01*
X0019470Y0121751D01*
X0019450Y0121656D01*
X0019426Y0121562D01*
X0019399Y0121469D01*
X0019368Y0121377D01*
X0019333Y0121287D01*
X0019294Y0121198D01*
X0019251Y0121111D01*
X0019206Y0121025D01*
X0019156Y0120942D01*
X0019103Y0120860D01*
X0019047Y0120781D01*
X0018988Y0120704D01*
X0018926Y0120630D01*
X0018860Y0120558D01*
X0018792Y0120489D01*
X0018721Y0120423D01*
X0018648Y0120360D01*
X0018571Y0120300D01*
X0018493Y0120243D01*
X0018412Y0120190D01*
X0018329Y0120139D01*
X0018244Y0120093D01*
X0018157Y0120049D01*
X0018069Y0120010D01*
X0017979Y0119974D01*
X0017887Y0119942D01*
X0017794Y0119913D01*
X0017701Y0119889D01*
X0017606Y0119868D01*
X0017510Y0119851D01*
X0017414Y0119838D01*
X0017318Y0119829D01*
X0017221Y0119824D01*
X0017124Y0119823D01*
X0017027Y0119826D01*
X0016930Y0119833D01*
X0016834Y0119844D01*
X0016738Y0119859D01*
X0016643Y0119878D01*
X0016548Y0119900D01*
X0016455Y0119927D01*
X0016363Y0119957D01*
X0016272Y0119991D01*
X0016183Y0120029D01*
X0016095Y0120071D01*
X0016009Y0120116D01*
X0015925Y0120164D01*
X0015843Y0120216D01*
X0015764Y0120271D01*
X0015686Y0120330D01*
X0015611Y0120391D01*
X0015539Y0120456D01*
X0015469Y0120523D01*
X0015402Y0120594D01*
X0015339Y0120667D01*
X0015278Y0120742D01*
X0015220Y0120820D01*
X0015166Y0120901D01*
X0015115Y0120983D01*
X0015067Y0121068D01*
X0015023Y0121154D01*
X0014982Y0121242D01*
X0014946Y0121332D01*
X0014912Y0121423D01*
X0014883Y0121515D01*
X0014857Y0121609D01*
X0014836Y0121703D01*
X0014818Y0121799D01*
X0014804Y0121895D01*
X0014794Y0121991D01*
X0014788Y0122088D01*
X0014786Y0122185D01*
M02*
