G75*
%MOIN*%
%OFA0B0*%
%FSLAX25Y25*%
%IPPOS*%
%LPD*%
%AMOC8*
5,1,8,0,0,1.08239X$1,22.5*
%
%ADD10R,0.03937X0.04331*%
%ADD11R,0.04331X0.03937*%
%ADD12C,0.06500*%
%ADD13C,0.04724*%
%ADD14C,0.11220*%
%ADD15R,0.02165X0.04724*%
%ADD16R,0.06299X0.01181*%
%ADD17R,0.09685X0.09094*%
%ADD18C,0.08600*%
%ADD19C,0.07400*%
%ADD20R,0.06500X0.06500*%
%ADD21C,0.05700*%
%ADD22OC8,0.07400*%
%ADD23R,0.07480X0.05906*%
%ADD24R,0.05906X0.01969*%
%ADD25R,0.01969X0.05906*%
%ADD26C,0.01200*%
%ADD27C,0.03762*%
%ADD28C,0.02400*%
%ADD29C,0.01600*%
D10*
X0221700Y0106454D03*
X0221700Y0113146D03*
X0284200Y0128954D03*
X0284200Y0135646D03*
X0284200Y0143954D03*
X0284200Y0150646D03*
X0304200Y0113146D03*
X0304200Y0106454D03*
X0081700Y0151454D03*
X0081700Y0158146D03*
D11*
X0065046Y0104800D03*
X0058354Y0104800D03*
X0088354Y0094800D03*
X0095046Y0094800D03*
X0095046Y0084800D03*
X0088354Y0084800D03*
X0088354Y0074800D03*
X0095046Y0074800D03*
X0055046Y0064800D03*
X0048354Y0064800D03*
X0048354Y0049800D03*
X0055046Y0049800D03*
X0040046Y0049800D03*
X0033354Y0049800D03*
X0025046Y0049800D03*
X0018354Y0049800D03*
X0018354Y0079800D03*
X0025046Y0079800D03*
X0033354Y0079800D03*
X0040046Y0079800D03*
X0238354Y0064800D03*
X0245046Y0064800D03*
X0308354Y0059800D03*
X0315046Y0059800D03*
X0315046Y0049800D03*
X0308354Y0049800D03*
X0308354Y0069800D03*
X0315046Y0069800D03*
X0315046Y0079800D03*
X0308354Y0079800D03*
D12*
X0299700Y0129800D03*
X0299700Y0149800D03*
X0066700Y0129800D03*
D13*
X0326621Y0071099D03*
X0331346Y0067950D03*
X0326621Y0064800D03*
X0331346Y0061650D03*
X0326621Y0058501D03*
D14*
X0346700Y0050430D03*
X0346700Y0079170D03*
D15*
X0025440Y0069919D03*
X0021700Y0069919D03*
X0017960Y0069919D03*
X0017960Y0059681D03*
X0025440Y0059681D03*
D16*
X0055676Y0075843D03*
X0055676Y0078402D03*
X0055676Y0080961D03*
X0055676Y0083520D03*
X0055676Y0086080D03*
X0055676Y0088639D03*
X0055676Y0091198D03*
X0055676Y0093757D03*
X0077724Y0093757D03*
X0077724Y0091198D03*
X0077724Y0088639D03*
X0077724Y0086080D03*
X0077724Y0083520D03*
X0077724Y0080961D03*
X0077724Y0078402D03*
X0077724Y0075843D03*
D17*
X0066700Y0084800D03*
D18*
X0322015Y0120115D03*
X0322015Y0129957D03*
X0341700Y0139800D03*
X0322015Y0149643D03*
X0322015Y0159485D03*
D19*
X0061700Y0154800D03*
X0051700Y0154800D03*
X0036700Y0154800D03*
X0026700Y0154800D03*
X0016700Y0154800D03*
D20*
X0056700Y0129800D03*
D21*
X0031700Y0125863D03*
X0031700Y0133737D03*
D22*
X0316700Y0107300D03*
X0326700Y0107300D03*
X0336700Y0107300D03*
X0336700Y0097300D03*
X0326700Y0097300D03*
X0316700Y0097300D03*
D23*
X0034771Y0099800D03*
X0018629Y0099800D03*
D24*
G36*
X0228026Y0110094D02*
X0232201Y0105919D01*
X0230810Y0104528D01*
X0226635Y0108703D01*
X0228026Y0110094D01*
G37*
G36*
X0230253Y0112321D02*
X0234428Y0108146D01*
X0233037Y0106755D01*
X0228862Y0110930D01*
X0230253Y0112321D01*
G37*
G36*
X0232480Y0114548D02*
X0236655Y0110373D01*
X0235264Y0108982D01*
X0231089Y0113157D01*
X0232480Y0114548D01*
G37*
G36*
X0234707Y0116775D02*
X0238882Y0112600D01*
X0237491Y0111209D01*
X0233316Y0115384D01*
X0234707Y0116775D01*
G37*
G36*
X0236934Y0119002D02*
X0241109Y0114827D01*
X0239718Y0113436D01*
X0235543Y0117611D01*
X0236934Y0119002D01*
G37*
G36*
X0239161Y0121230D02*
X0243336Y0117055D01*
X0241945Y0115664D01*
X0237770Y0119839D01*
X0239161Y0121230D01*
G37*
G36*
X0241389Y0123457D02*
X0245564Y0119282D01*
X0244173Y0117891D01*
X0239998Y0122066D01*
X0241389Y0123457D01*
G37*
G36*
X0243616Y0125684D02*
X0247791Y0121509D01*
X0246400Y0120118D01*
X0242225Y0124293D01*
X0243616Y0125684D01*
G37*
G36*
X0245843Y0127911D02*
X0250018Y0123736D01*
X0248627Y0122345D01*
X0244452Y0126520D01*
X0245843Y0127911D01*
G37*
G36*
X0248070Y0130138D02*
X0252245Y0125963D01*
X0250854Y0124572D01*
X0246679Y0128747D01*
X0248070Y0130138D01*
G37*
G36*
X0250297Y0132365D02*
X0254472Y0128190D01*
X0253081Y0126799D01*
X0248906Y0130974D01*
X0250297Y0132365D01*
G37*
G36*
X0282590Y0100072D02*
X0286765Y0095897D01*
X0285374Y0094506D01*
X0281199Y0098681D01*
X0282590Y0100072D01*
G37*
G36*
X0280363Y0097845D02*
X0284538Y0093670D01*
X0283147Y0092279D01*
X0278972Y0096454D01*
X0280363Y0097845D01*
G37*
G36*
X0278136Y0095618D02*
X0282311Y0091443D01*
X0280920Y0090052D01*
X0276745Y0094227D01*
X0278136Y0095618D01*
G37*
G36*
X0275909Y0093391D02*
X0280084Y0089216D01*
X0278693Y0087825D01*
X0274518Y0092000D01*
X0275909Y0093391D01*
G37*
G36*
X0273682Y0091164D02*
X0277857Y0086989D01*
X0276466Y0085598D01*
X0272291Y0089773D01*
X0273682Y0091164D01*
G37*
G36*
X0271455Y0088936D02*
X0275630Y0084761D01*
X0274239Y0083370D01*
X0270064Y0087545D01*
X0271455Y0088936D01*
G37*
G36*
X0269227Y0086709D02*
X0273402Y0082534D01*
X0272011Y0081143D01*
X0267836Y0085318D01*
X0269227Y0086709D01*
G37*
G36*
X0267000Y0084482D02*
X0271175Y0080307D01*
X0269784Y0078916D01*
X0265609Y0083091D01*
X0267000Y0084482D01*
G37*
G36*
X0264773Y0082255D02*
X0268948Y0078080D01*
X0267557Y0076689D01*
X0263382Y0080864D01*
X0264773Y0082255D01*
G37*
G36*
X0262546Y0080028D02*
X0266721Y0075853D01*
X0265330Y0074462D01*
X0261155Y0078637D01*
X0262546Y0080028D01*
G37*
G36*
X0260319Y0077801D02*
X0264494Y0073626D01*
X0263103Y0072235D01*
X0258928Y0076410D01*
X0260319Y0077801D01*
G37*
D25*
G36*
X0253081Y0077801D02*
X0254472Y0076410D01*
X0250297Y0072235D01*
X0248906Y0073626D01*
X0253081Y0077801D01*
G37*
G36*
X0250854Y0080028D02*
X0252245Y0078637D01*
X0248070Y0074462D01*
X0246679Y0075853D01*
X0250854Y0080028D01*
G37*
G36*
X0248627Y0082255D02*
X0250018Y0080864D01*
X0245843Y0076689D01*
X0244452Y0078080D01*
X0248627Y0082255D01*
G37*
G36*
X0246400Y0084482D02*
X0247791Y0083091D01*
X0243616Y0078916D01*
X0242225Y0080307D01*
X0246400Y0084482D01*
G37*
G36*
X0244173Y0086709D02*
X0245564Y0085318D01*
X0241389Y0081143D01*
X0239998Y0082534D01*
X0244173Y0086709D01*
G37*
G36*
X0241945Y0088936D02*
X0243336Y0087545D01*
X0239161Y0083370D01*
X0237770Y0084761D01*
X0241945Y0088936D01*
G37*
G36*
X0239718Y0091164D02*
X0241109Y0089773D01*
X0236934Y0085598D01*
X0235543Y0086989D01*
X0239718Y0091164D01*
G37*
G36*
X0237491Y0093391D02*
X0238882Y0092000D01*
X0234707Y0087825D01*
X0233316Y0089216D01*
X0237491Y0093391D01*
G37*
G36*
X0235264Y0095618D02*
X0236655Y0094227D01*
X0232480Y0090052D01*
X0231089Y0091443D01*
X0235264Y0095618D01*
G37*
G36*
X0233037Y0097845D02*
X0234428Y0096454D01*
X0230253Y0092279D01*
X0228862Y0093670D01*
X0233037Y0097845D01*
G37*
G36*
X0230810Y0100072D02*
X0232201Y0098681D01*
X0228026Y0094506D01*
X0226635Y0095897D01*
X0230810Y0100072D01*
G37*
G36*
X0272011Y0123457D02*
X0273402Y0122066D01*
X0269227Y0117891D01*
X0267836Y0119282D01*
X0272011Y0123457D01*
G37*
G36*
X0269784Y0125684D02*
X0271175Y0124293D01*
X0267000Y0120118D01*
X0265609Y0121509D01*
X0269784Y0125684D01*
G37*
G36*
X0267557Y0127911D02*
X0268948Y0126520D01*
X0264773Y0122345D01*
X0263382Y0123736D01*
X0267557Y0127911D01*
G37*
G36*
X0265330Y0130138D02*
X0266721Y0128747D01*
X0262546Y0124572D01*
X0261155Y0125963D01*
X0265330Y0130138D01*
G37*
G36*
X0263103Y0132365D02*
X0264494Y0130974D01*
X0260319Y0126799D01*
X0258928Y0128190D01*
X0263103Y0132365D01*
G37*
G36*
X0274239Y0121230D02*
X0275630Y0119839D01*
X0271455Y0115664D01*
X0270064Y0117055D01*
X0274239Y0121230D01*
G37*
G36*
X0276466Y0119002D02*
X0277857Y0117611D01*
X0273682Y0113436D01*
X0272291Y0114827D01*
X0276466Y0119002D01*
G37*
G36*
X0278693Y0116775D02*
X0280084Y0115384D01*
X0275909Y0111209D01*
X0274518Y0112600D01*
X0278693Y0116775D01*
G37*
G36*
X0280920Y0114548D02*
X0282311Y0113157D01*
X0278136Y0108982D01*
X0276745Y0110373D01*
X0280920Y0114548D01*
G37*
G36*
X0283147Y0112321D02*
X0284538Y0110930D01*
X0280363Y0106755D01*
X0278972Y0108146D01*
X0283147Y0112321D01*
G37*
G36*
X0285374Y0110094D02*
X0286765Y0108703D01*
X0282590Y0104528D01*
X0281199Y0105919D01*
X0285374Y0110094D01*
G37*
D26*
X0285363Y0113146D02*
X0281755Y0109538D01*
X0279528Y0111765D02*
X0275563Y0107800D01*
X0273700Y0107800D01*
X0256700Y0124800D01*
X0256700Y0124571D01*
X0256700Y0080029D01*
X0251689Y0075018D01*
X0249462Y0077245D02*
X0245046Y0072830D01*
X0245046Y0064800D01*
X0251700Y0064800D01*
X0238354Y0064800D02*
X0238354Y0070591D01*
X0247235Y0079472D01*
X0259200Y0081983D02*
X0259200Y0089800D01*
X0262700Y0093300D01*
X0270154Y0093300D01*
X0275074Y0088381D01*
X0283654Y0079800D01*
X0291700Y0079800D01*
X0308354Y0079800D01*
X0315046Y0079800D02*
X0315046Y0069800D01*
X0325322Y0069800D01*
X0326621Y0071099D01*
X0326621Y0064800D02*
X0321621Y0059800D01*
X0315046Y0059800D01*
X0308354Y0059800D02*
X0290292Y0059800D01*
X0268392Y0081699D01*
X0266165Y0079472D02*
X0295837Y0049800D01*
X0308354Y0049800D01*
X0315046Y0049800D02*
X0324700Y0049800D01*
X0331700Y0056800D01*
X0331700Y0061296D01*
X0331346Y0061650D01*
X0308354Y0069800D02*
X0289200Y0069800D01*
X0272847Y0086153D01*
X0270619Y0083926D02*
X0270574Y0083926D01*
X0264700Y0089800D01*
X0259200Y0081983D02*
X0263938Y0077245D01*
X0279528Y0092835D02*
X0284063Y0088300D01*
X0317700Y0088300D01*
X0326700Y0097300D01*
X0321700Y0102300D02*
X0281200Y0102300D01*
X0278700Y0099800D01*
X0278700Y0098117D01*
X0281755Y0095062D01*
X0283982Y0097289D02*
X0286471Y0094800D01*
X0314200Y0094800D01*
X0316700Y0097300D01*
X0321700Y0102300D02*
X0326700Y0107300D01*
X0316700Y0107300D02*
X0305046Y0107300D01*
X0304200Y0106454D01*
X0304200Y0113146D02*
X0338354Y0113146D01*
X0341700Y0109800D01*
X0341700Y0102300D01*
X0336700Y0097300D01*
X0304200Y0113146D02*
X0285363Y0113146D01*
X0283108Y0119800D02*
X0277301Y0113992D01*
X0275074Y0116219D02*
X0284200Y0125346D01*
X0284200Y0128954D01*
X0285046Y0129800D01*
X0299700Y0129800D01*
X0311700Y0130430D02*
X0311700Y0160800D01*
X0307700Y0164800D01*
X0287700Y0164800D01*
X0277700Y0154800D01*
X0277700Y0127754D01*
X0270619Y0120674D01*
X0272847Y0118447D02*
X0280200Y0125800D01*
X0280200Y0146646D01*
X0284200Y0150646D01*
X0285046Y0149800D01*
X0299700Y0149800D01*
X0288354Y0139800D02*
X0284200Y0143954D01*
X0288200Y0139800D02*
X0288354Y0139800D01*
X0284200Y0135646D01*
X0275200Y0129708D02*
X0275200Y0156300D01*
X0286200Y0167300D01*
X0314200Y0167300D01*
X0322015Y0159485D01*
X0311700Y0130430D02*
X0322015Y0120115D01*
X0286700Y0119800D02*
X0283108Y0119800D01*
X0275200Y0129708D02*
X0268392Y0122901D01*
X0256700Y0124571D02*
X0229418Y0097289D01*
X0231645Y0095062D02*
X0225883Y0089300D01*
X0225700Y0089300D01*
X0221700Y0093300D01*
X0221700Y0106454D01*
X0223582Y0113146D02*
X0229418Y0107311D01*
X0231645Y0109538D02*
X0178883Y0162300D01*
X0059200Y0162300D01*
X0051700Y0154800D01*
X0061700Y0154800D02*
X0078354Y0154800D01*
X0081700Y0158146D01*
X0081700Y0151454D02*
X0078354Y0151454D01*
X0056700Y0129800D01*
X0065046Y0128146D02*
X0066700Y0129800D01*
X0065046Y0128146D02*
X0065046Y0104800D01*
X0084200Y0097800D02*
X0084200Y0092800D01*
X0082598Y0091198D01*
X0077724Y0091198D01*
X0088354Y0094800D02*
X0088354Y0084800D01*
X0087074Y0083520D01*
X0077724Y0083520D01*
X0077724Y0080961D02*
X0070539Y0080961D01*
X0069700Y0081800D01*
X0066700Y0081800D01*
X0066700Y0084800D01*
X0065420Y0086080D01*
X0055676Y0086080D01*
X0047980Y0086080D01*
X0046700Y0084800D01*
X0041208Y0080961D02*
X0040046Y0079800D01*
X0033354Y0079800D02*
X0033354Y0083146D01*
X0029200Y0087300D01*
X0025046Y0083146D01*
X0025046Y0079800D01*
X0021700Y0076454D01*
X0021700Y0069919D01*
X0018354Y0070312D02*
X0017960Y0069919D01*
X0016700Y0064800D02*
X0011700Y0069800D01*
X0011700Y0157800D01*
X0016700Y0162800D01*
X0039700Y0162800D01*
X0045700Y0168800D01*
X0203563Y0168800D01*
X0247235Y0125128D01*
X0249462Y0127355D02*
X0252017Y0124800D01*
X0256700Y0124800D01*
X0251689Y0129582D02*
X0246700Y0134571D01*
X0246700Y0134800D01*
X0223582Y0113146D02*
X0221700Y0113146D01*
X0233872Y0111765D02*
X0180337Y0165300D01*
X0047200Y0165300D01*
X0036700Y0154800D01*
X0018700Y0099871D02*
X0018629Y0099800D01*
X0018629Y0080076D02*
X0018354Y0079800D01*
X0025440Y0069919D02*
X0025440Y0067540D01*
X0022700Y0064800D01*
X0016700Y0064800D01*
X0017960Y0059681D02*
X0017960Y0056887D01*
X0025440Y0057713D02*
X0025440Y0059681D01*
X0025440Y0057713D02*
X0033354Y0049800D01*
X0040046Y0049800D02*
X0040046Y0051454D01*
X0031700Y0059800D01*
X0025440Y0068540D02*
X0025440Y0069919D01*
X0048354Y0064800D02*
X0055046Y0058107D01*
X0055046Y0049800D01*
X0048354Y0049800D02*
X0048354Y0049646D01*
X0048354Y0064800D02*
X0048700Y0065146D01*
X0048700Y0077800D01*
X0049302Y0078402D01*
X0055676Y0078402D01*
X0055676Y0075843D02*
X0055720Y0075800D01*
X0055720Y0065473D01*
X0055046Y0064800D01*
X0055720Y0075800D02*
X0060700Y0075800D01*
X0066700Y0081800D01*
X0055676Y0083520D02*
X0055676Y0086080D01*
X0055676Y0088639D01*
X0077724Y0078402D02*
X0084751Y0078402D01*
X0088354Y0074800D01*
X0088354Y0074146D01*
X0091700Y0070800D01*
X0216292Y0070800D01*
X0236099Y0090608D01*
X0106700Y0089800D02*
X0106700Y0094800D01*
X0101700Y0099800D01*
X0086200Y0099800D01*
X0084200Y0097800D01*
X0095046Y0094800D02*
X0101700Y0094800D01*
X0106700Y0089800D02*
X0101700Y0084800D01*
X0095046Y0084800D01*
X0095046Y0074800D01*
X0018354Y0049800D02*
X0011700Y0049800D01*
D27*
X0016700Y0029800D03*
X0011700Y0049800D03*
X0031700Y0059800D03*
X0046700Y0084800D03*
X0029200Y0087300D03*
X0101700Y0094800D03*
X0225700Y0089300D03*
X0264700Y0089800D03*
X0291700Y0079800D03*
X0251700Y0064800D03*
X0286700Y0119800D03*
X0288200Y0139800D03*
X0246700Y0134800D03*
X0256700Y0184800D03*
D28*
X0256700Y0124800D01*
X0077724Y0091198D02*
X0077724Y0088639D01*
X0077724Y0086080D01*
X0077724Y0091198D02*
X0070802Y0091198D01*
X0058354Y0103646D01*
X0058354Y0104800D02*
X0058354Y0128146D01*
X0056700Y0129800D01*
X0051700Y0129800D01*
X0026700Y0154800D01*
X0022637Y0133737D02*
X0018700Y0129800D01*
X0018700Y0099871D01*
X0018629Y0099800D02*
X0024700Y0099800D01*
X0040046Y0084454D01*
X0040046Y0079800D01*
X0040046Y0058107D01*
X0048354Y0049800D01*
X0048354Y0049646D02*
X0052200Y0045800D01*
X0065700Y0045800D01*
X0077724Y0057824D01*
X0077724Y0075843D01*
X0055676Y0080961D02*
X0041208Y0080961D01*
X0055676Y0091198D02*
X0055676Y0093757D01*
X0040814Y0093757D01*
X0034771Y0099800D01*
X0018629Y0099800D02*
X0018629Y0080076D01*
X0018354Y0079800D02*
X0017960Y0079406D01*
X0017960Y0069919D01*
X0017960Y0056887D02*
X0025046Y0049800D01*
X0016700Y0041454D01*
X0016700Y0029800D01*
X0022637Y0133737D02*
X0031700Y0133737D01*
D29*
X0058354Y0104800D02*
X0058354Y0103646D01*
M02*
