G75*
%MOIN*%
%OFA0B0*%
%FSLAX25Y25*%
%IPPOS*%
%LPD*%
%AMOC8*
5,1,8,0,0,1.08239X$1,22.5*
%
%ADD10C,0.09200*%
%ADD11C,0.05324*%
%ADD12C,0.08000*%
%ADD13R,0.08000X0.08000*%
%ADD14C,0.11820*%
%ADD15C,0.20600*%
D10*
X0322015Y0121410D03*
X0322015Y0131253D03*
X0341700Y0141095D03*
X0322015Y0150938D03*
X0322015Y0160780D03*
D11*
X0341700Y0160780D03*
X0351543Y0160780D03*
X0322015Y0141095D03*
X0341700Y0121410D03*
X0351543Y0121410D03*
X0326621Y0092394D03*
X0331346Y0089245D03*
X0326621Y0086095D03*
X0331346Y0082946D03*
X0326621Y0079796D03*
D12*
X0281700Y0083595D03*
X0271700Y0083595D03*
X0261700Y0083595D03*
X0251700Y0083595D03*
X0241700Y0083595D03*
X0231700Y0083595D03*
X0221700Y0083595D03*
X0211700Y0083595D03*
X0201700Y0083595D03*
X0191700Y0083595D03*
X0181700Y0083595D03*
X0171700Y0083595D03*
X0161700Y0088595D03*
X0161700Y0098595D03*
X0161700Y0108595D03*
X0161700Y0118595D03*
X0161700Y0128595D03*
X0161700Y0138595D03*
X0171700Y0143595D03*
X0181700Y0143595D03*
X0191700Y0143595D03*
X0201700Y0143595D03*
X0211700Y0143595D03*
X0221700Y0143595D03*
X0231700Y0143595D03*
X0241700Y0143595D03*
X0251700Y0143595D03*
X0261700Y0143595D03*
X0271700Y0143595D03*
X0281700Y0143595D03*
X0257325Y0132345D03*
X0247325Y0132345D03*
X0216075Y0132345D03*
X0206075Y0132345D03*
X0186700Y0166095D03*
X0226700Y0166095D03*
X0241700Y0166095D03*
X0251700Y0166095D03*
X0127200Y0162595D03*
X0127200Y0152595D03*
X0127200Y0142595D03*
X0127200Y0132595D03*
X0127200Y0122595D03*
X0127200Y0112595D03*
X0127200Y0102595D03*
X0026700Y0113595D03*
X0026700Y0123595D03*
X0026700Y0133595D03*
D13*
X0127200Y0092595D03*
D14*
X0346700Y0100465D03*
X0346700Y0071725D03*
D15*
X0031700Y0041545D03*
X0031700Y0185645D03*
X0331700Y0185645D03*
X0331700Y0041545D03*
M02*
