G75*
%MOIN*%
%OFA0B0*%
%FSLAX25Y25*%
%IPPOS*%
%LPD*%
%AMOC8*
5,1,8,0,0,1.08239X$1,22.5*
%
%ADD10C,0.07100*%
%ADD11C,0.05324*%
%ADD12C,0.11820*%
%ADD13C,0.09200*%
%ADD14C,0.08000*%
%ADD15R,0.07100X0.07100*%
%ADD16C,0.00500*%
%ADD17OC8,0.08000*%
%ADD18C,0.04362*%
D10*
X0066700Y0129800D03*
X0299700Y0129800D03*
X0299700Y0149800D03*
D11*
X0322015Y0139800D03*
X0341700Y0159485D03*
X0351543Y0159485D03*
X0351543Y0120115D03*
X0341700Y0120115D03*
X0326621Y0071099D03*
X0331346Y0067950D03*
X0326621Y0064800D03*
X0331346Y0061650D03*
X0326621Y0058501D03*
D12*
X0346700Y0050430D03*
X0346700Y0079170D03*
D13*
X0322015Y0120115D03*
X0322015Y0129957D03*
X0341700Y0139800D03*
X0322015Y0149643D03*
X0322015Y0159485D03*
D14*
X0061700Y0154800D03*
X0051700Y0154800D03*
X0036700Y0154800D03*
X0026700Y0154800D03*
X0016700Y0154800D03*
D15*
X0056700Y0129800D03*
D16*
X0034249Y0126379D02*
X0034300Y0125873D01*
X0034251Y0125365D01*
X0034104Y0124876D01*
X0033864Y0124425D01*
X0033541Y0124029D01*
X0033147Y0123705D01*
X0032697Y0123463D01*
X0032208Y0123314D01*
X0031700Y0123263D01*
X0031193Y0123313D01*
X0030705Y0123461D01*
X0030255Y0123701D01*
X0029861Y0124024D01*
X0029538Y0124418D01*
X0029298Y0124868D01*
X0029150Y0125356D01*
X0029100Y0125863D01*
X0029150Y0126370D01*
X0029298Y0126858D01*
X0029538Y0127307D01*
X0029862Y0127701D01*
X0030256Y0128025D01*
X0030705Y0128265D01*
X0031193Y0128413D01*
X0031700Y0128463D01*
X0032206Y0128414D01*
X0032694Y0128268D01*
X0033143Y0128029D01*
X0033537Y0127707D01*
X0033860Y0127314D01*
X0034101Y0126866D01*
X0034249Y0126379D01*
X0034223Y0126467D02*
X0029179Y0126467D01*
X0029110Y0125968D02*
X0034290Y0125968D01*
X0034261Y0125470D02*
X0029139Y0125470D01*
X0029267Y0124971D02*
X0034133Y0124971D01*
X0033889Y0124472D02*
X0029509Y0124472D01*
X0029923Y0123974D02*
X0033474Y0123974D01*
X0032720Y0123475D02*
X0030678Y0123475D01*
X0029355Y0126965D02*
X0034048Y0126965D01*
X0033737Y0127464D02*
X0029666Y0127464D01*
X0030179Y0127962D02*
X0033225Y0127962D01*
X0031725Y0128461D02*
X0031676Y0128461D01*
X0031700Y0131137D02*
X0031193Y0131187D01*
X0030705Y0131335D01*
X0030255Y0131575D01*
X0029861Y0131898D01*
X0029538Y0132292D01*
X0029298Y0132742D01*
X0029150Y0133230D01*
X0029100Y0133737D01*
X0029150Y0134244D01*
X0029298Y0134732D01*
X0029538Y0135181D01*
X0029862Y0135575D01*
X0030256Y0135899D01*
X0030705Y0136139D01*
X0031193Y0136287D01*
X0031700Y0136337D01*
X0032206Y0136288D01*
X0032694Y0136142D01*
X0033143Y0135903D01*
X0033537Y0135581D01*
X0033860Y0135188D01*
X0034101Y0134740D01*
X0034249Y0134253D01*
X0034300Y0133747D01*
X0034251Y0133239D01*
X0034104Y0132750D01*
X0033864Y0132299D01*
X0033541Y0131903D01*
X0033147Y0131579D01*
X0032697Y0131337D01*
X0032208Y0131188D01*
X0031700Y0131137D01*
X0032910Y0131452D02*
X0030486Y0131452D01*
X0029819Y0131950D02*
X0033579Y0131950D01*
X0033944Y0132449D02*
X0029455Y0132449D01*
X0029236Y0132947D02*
X0034163Y0132947D01*
X0034271Y0133446D02*
X0029129Y0133446D01*
X0029120Y0133944D02*
X0034280Y0133944D01*
X0034192Y0134443D02*
X0029210Y0134443D01*
X0029410Y0134941D02*
X0033993Y0134941D01*
X0033653Y0135440D02*
X0029750Y0135440D01*
X0030329Y0135938D02*
X0033077Y0135938D01*
D17*
X0316700Y0107300D03*
X0326700Y0107300D03*
X0336700Y0107300D03*
X0336700Y0097300D03*
X0326700Y0097300D03*
X0316700Y0097300D03*
D18*
X0016700Y0029800D03*
X0011700Y0049800D03*
X0031700Y0059800D03*
X0046700Y0084800D03*
X0029200Y0087300D03*
X0101700Y0094800D03*
X0225700Y0089300D03*
X0264700Y0089800D03*
X0291700Y0079800D03*
X0251700Y0064800D03*
X0286700Y0119800D03*
X0288200Y0139800D03*
X0246700Y0134800D03*
X0256700Y0184800D03*
M02*
