G75*
%MOIN*%
%OFA0B0*%
%FSLAX25Y25*%
%IPPOS*%
%LPD*%
%AMOC8*
5,1,8,0,0,1.08239X$1,22.5*
%
%ADD10C,0.06500*%
%ADD11C,0.04724*%
%ADD12C,0.11220*%
%ADD13C,0.08600*%
%ADD14C,0.07400*%
%ADD15R,0.06500X0.06500*%
%ADD16C,0.05700*%
%ADD17OC8,0.07400*%
%ADD18C,0.12661*%
%ADD19C,0.03369*%
%ADD20C,0.01000*%
%ADD21C,0.01600*%
D10*
X0096991Y0047500D03*
X0116991Y0047500D03*
X0099991Y0137500D03*
D11*
X0041069Y0141201D03*
X0036345Y0144350D03*
X0041069Y0147500D03*
X0036345Y0150650D03*
X0041069Y0153799D03*
D12*
X0020991Y0161870D03*
X0020991Y0133130D03*
D13*
X0046676Y0122185D03*
X0046676Y0112343D03*
X0026991Y0102500D03*
X0046676Y0092657D03*
X0046676Y0082815D03*
X0046676Y0072185D03*
X0046676Y0062343D03*
X0026991Y0052500D03*
X0046676Y0042657D03*
X0046676Y0032815D03*
D14*
X0125991Y0105500D03*
X0125991Y0115500D03*
X0125991Y0129500D03*
X0115991Y0129500D03*
X0115991Y0139500D03*
X0125991Y0139500D03*
X0125991Y0149500D03*
X0115991Y0149500D03*
D15*
X0089991Y0137500D03*
D16*
X0101054Y0172500D03*
X0108928Y0172500D03*
D17*
X0075991Y0053500D03*
X0065991Y0053500D03*
X0065991Y0043500D03*
X0075991Y0043500D03*
X0075991Y0033500D03*
X0065991Y0033500D03*
D18*
X0022991Y0021500D03*
X0132991Y0021500D03*
X0132991Y0186500D03*
X0022991Y0186500D03*
D19*
X0052991Y0186500D03*
X0046991Y0161500D03*
X0069991Y0159500D03*
X0080991Y0161500D03*
X0076991Y0141500D03*
X0062991Y0124500D03*
X0074991Y0111500D03*
X0079991Y0111500D03*
X0093991Y0114500D03*
X0106991Y0114500D03*
X0093991Y0102500D03*
X0101991Y0086500D03*
X0123991Y0081500D03*
X0086991Y0058500D03*
X0106991Y0047500D03*
X0062991Y0063500D03*
X0055991Y0089500D03*
X0055991Y0109500D03*
D20*
X0014991Y0028987D02*
X0014991Y0013500D01*
X0140991Y0013500D01*
X0140991Y0194500D01*
X0014991Y0194500D01*
X0014991Y0164919D01*
X0015302Y0165671D01*
X0017190Y0167559D01*
X0019656Y0168580D01*
X0022325Y0168580D01*
X0024792Y0167559D01*
X0026679Y0165671D01*
X0027701Y0163205D01*
X0027701Y0160535D01*
X0026679Y0158069D01*
X0024792Y0156181D01*
X0022325Y0155160D01*
X0019656Y0155160D01*
X0017190Y0156181D01*
X0015302Y0158069D01*
X0014991Y0158821D01*
X0014991Y0136179D01*
X0015302Y0136931D01*
X0017190Y0138819D01*
X0019656Y0139840D01*
X0022325Y0139840D01*
X0024792Y0138819D01*
X0026679Y0136931D01*
X0027701Y0134465D01*
X0027701Y0131795D01*
X0026679Y0129329D01*
X0024792Y0127441D01*
X0022325Y0126420D01*
X0019656Y0126420D01*
X0017190Y0127441D01*
X0015302Y0129329D01*
X0014991Y0130081D01*
X0014991Y0126013D01*
X0016280Y0126547D01*
X0018016Y0126547D01*
X0019619Y0125883D01*
X0020846Y0124656D01*
X0021510Y0123053D01*
X0021510Y0121317D01*
X0020846Y0119714D01*
X0019619Y0118487D01*
X0018016Y0117823D01*
X0016280Y0117823D01*
X0014991Y0118357D01*
X0014991Y0086643D01*
X0016280Y0087177D01*
X0018016Y0087177D01*
X0019619Y0086513D01*
X0020846Y0085286D01*
X0021510Y0083683D01*
X0021510Y0081947D01*
X0020846Y0080344D01*
X0019619Y0079117D01*
X0018016Y0078453D01*
X0016280Y0078453D01*
X0014991Y0078987D01*
X0014991Y0076013D01*
X0016280Y0076547D01*
X0018016Y0076547D01*
X0019619Y0075883D01*
X0020846Y0074656D01*
X0021510Y0073053D01*
X0021510Y0071317D01*
X0020846Y0069714D01*
X0019619Y0068487D01*
X0018016Y0067823D01*
X0016280Y0067823D01*
X0014991Y0068357D01*
X0014991Y0036643D01*
X0016280Y0037177D01*
X0018016Y0037177D01*
X0019619Y0036513D01*
X0020846Y0035286D01*
X0021510Y0033683D01*
X0021510Y0031947D01*
X0020846Y0030344D01*
X0019619Y0029117D01*
X0018016Y0028453D01*
X0016280Y0028453D01*
X0014991Y0028987D01*
X0014991Y0028475D02*
X0016227Y0028475D01*
X0014991Y0027476D02*
X0045454Y0027476D01*
X0045601Y0027415D02*
X0047750Y0027415D01*
X0049734Y0028237D01*
X0051253Y0029756D01*
X0052076Y0031741D01*
X0052076Y0033889D01*
X0051253Y0035874D01*
X0049734Y0037393D01*
X0048905Y0037736D01*
X0049734Y0038080D01*
X0051253Y0039599D01*
X0052076Y0041583D01*
X0052076Y0043732D01*
X0051253Y0045716D01*
X0049734Y0047235D01*
X0047750Y0048057D01*
X0045601Y0048057D01*
X0043617Y0047235D01*
X0042098Y0045716D01*
X0041276Y0043732D01*
X0041276Y0041583D01*
X0042098Y0039599D01*
X0043617Y0038080D01*
X0044446Y0037736D01*
X0043617Y0037393D01*
X0042098Y0035874D01*
X0041276Y0033889D01*
X0041276Y0031741D01*
X0042098Y0029756D01*
X0043617Y0028237D01*
X0045601Y0027415D01*
X0047898Y0027476D02*
X0140991Y0027476D01*
X0140991Y0026478D02*
X0014991Y0026478D01*
X0014991Y0025479D02*
X0140991Y0025479D01*
X0140991Y0024481D02*
X0014991Y0024481D01*
X0014991Y0023482D02*
X0140991Y0023482D01*
X0140991Y0022484D02*
X0014991Y0022484D01*
X0014991Y0021485D02*
X0140991Y0021485D01*
X0140991Y0020487D02*
X0014991Y0020487D01*
X0014991Y0019488D02*
X0140991Y0019488D01*
X0140991Y0018490D02*
X0014991Y0018490D01*
X0014991Y0017491D02*
X0140991Y0017491D01*
X0140991Y0016493D02*
X0014991Y0016493D01*
X0014991Y0015494D02*
X0140991Y0015494D01*
X0140991Y0014496D02*
X0014991Y0014496D01*
X0018069Y0028475D02*
X0026070Y0028475D01*
X0026123Y0028453D02*
X0024520Y0029117D01*
X0023292Y0030344D01*
X0022628Y0031947D01*
X0022628Y0033683D01*
X0023292Y0035286D01*
X0024520Y0036513D01*
X0026123Y0037177D01*
X0027858Y0037177D01*
X0029462Y0036513D01*
X0030689Y0035286D01*
X0031353Y0033683D01*
X0031353Y0031947D01*
X0030689Y0030344D01*
X0029462Y0029117D01*
X0027858Y0028453D01*
X0026123Y0028453D01*
X0027911Y0028475D02*
X0043379Y0028475D01*
X0042381Y0029473D02*
X0029818Y0029473D01*
X0030742Y0030472D02*
X0041801Y0030472D01*
X0041388Y0031470D02*
X0031155Y0031470D01*
X0031353Y0032469D02*
X0041276Y0032469D01*
X0041276Y0033467D02*
X0031353Y0033467D01*
X0031028Y0034466D02*
X0041514Y0034466D01*
X0041928Y0035464D02*
X0030510Y0035464D01*
X0029512Y0036463D02*
X0042687Y0036463D01*
X0043782Y0037461D02*
X0014991Y0037461D01*
X0014991Y0038460D02*
X0043237Y0038460D01*
X0042238Y0039458D02*
X0014991Y0039458D01*
X0014991Y0040457D02*
X0041742Y0040457D01*
X0041329Y0041455D02*
X0014991Y0041455D01*
X0014991Y0042454D02*
X0041276Y0042454D01*
X0041276Y0043452D02*
X0014991Y0043452D01*
X0014991Y0044451D02*
X0041574Y0044451D01*
X0041987Y0045449D02*
X0014991Y0045449D01*
X0014991Y0046448D02*
X0042829Y0046448D01*
X0044126Y0047446D02*
X0029848Y0047446D01*
X0030030Y0047539D02*
X0030769Y0048076D01*
X0031415Y0048722D01*
X0031951Y0049460D01*
X0032366Y0050274D01*
X0032648Y0051142D01*
X0032784Y0052000D01*
X0027491Y0052000D01*
X0027491Y0053000D01*
X0032784Y0053000D01*
X0032648Y0053858D01*
X0032366Y0054726D01*
X0031951Y0055540D01*
X0031415Y0056278D01*
X0030769Y0056924D01*
X0030030Y0057461D01*
X0029217Y0057875D01*
X0028349Y0058157D01*
X0027491Y0058293D01*
X0027491Y0053000D01*
X0026491Y0053000D01*
X0026491Y0058293D01*
X0025632Y0058157D01*
X0024764Y0057875D01*
X0023951Y0057461D01*
X0023212Y0056924D01*
X0022567Y0056278D01*
X0022030Y0055540D01*
X0021615Y0054726D01*
X0021333Y0053858D01*
X0021197Y0053000D01*
X0026490Y0053000D01*
X0026490Y0052000D01*
X0021197Y0052000D01*
X0021333Y0051142D01*
X0021615Y0050274D01*
X0022030Y0049460D01*
X0022567Y0048722D01*
X0023212Y0048076D01*
X0023951Y0047539D01*
X0024764Y0047125D01*
X0025632Y0046843D01*
X0026491Y0046707D01*
X0026491Y0052000D01*
X0027491Y0052000D01*
X0027491Y0046707D01*
X0028349Y0046843D01*
X0029217Y0047125D01*
X0030030Y0047539D01*
X0031138Y0048445D02*
X0045066Y0048445D01*
X0045808Y0048138D02*
X0047543Y0048138D01*
X0049147Y0048802D01*
X0050374Y0050029D01*
X0051038Y0051632D01*
X0051038Y0053368D01*
X0050374Y0054971D01*
X0049147Y0056198D01*
X0047543Y0056862D01*
X0045808Y0056862D01*
X0044205Y0056198D01*
X0042977Y0054971D01*
X0042313Y0053368D01*
X0042313Y0051632D01*
X0042977Y0050029D01*
X0044205Y0048802D01*
X0045808Y0048138D01*
X0048285Y0048445D02*
X0092674Y0048445D01*
X0092641Y0048365D02*
X0092641Y0046635D01*
X0093303Y0045036D01*
X0094526Y0043812D01*
X0096125Y0043150D01*
X0097856Y0043150D01*
X0099455Y0043812D01*
X0100678Y0045036D01*
X0101341Y0046635D01*
X0101341Y0048365D01*
X0100678Y0049964D01*
X0099455Y0051188D01*
X0097856Y0051850D01*
X0096125Y0051850D01*
X0094526Y0051188D01*
X0093303Y0049964D01*
X0092641Y0048365D01*
X0092641Y0047446D02*
X0078832Y0047446D01*
X0077979Y0048300D02*
X0080791Y0045488D01*
X0080791Y0041512D01*
X0077979Y0038700D01*
X0074002Y0038700D01*
X0071191Y0041512D01*
X0071191Y0045488D01*
X0074002Y0048300D01*
X0077979Y0048300D01*
X0077979Y0048700D02*
X0080791Y0051512D01*
X0080791Y0055488D01*
X0080516Y0055763D01*
X0081591Y0056837D01*
X0081591Y0061637D01*
X0084206Y0059022D01*
X0084206Y0057946D01*
X0084630Y0056923D01*
X0085413Y0056140D01*
X0086437Y0055716D01*
X0087544Y0055716D01*
X0088568Y0056140D01*
X0089351Y0056923D01*
X0089775Y0057946D01*
X0089775Y0059054D01*
X0089351Y0060077D01*
X0088568Y0060860D01*
X0087544Y0061284D01*
X0086469Y0061284D01*
X0081591Y0066163D01*
X0081591Y0109162D01*
X0082351Y0109923D01*
X0082775Y0110946D01*
X0082775Y0112022D01*
X0090653Y0119900D01*
X0091591Y0120837D01*
X0091591Y0133150D01*
X0092078Y0133150D01*
X0107728Y0117500D01*
X0107512Y0117284D01*
X0106437Y0117284D01*
X0105413Y0116860D01*
X0104630Y0116077D01*
X0104206Y0115054D01*
X0104206Y0113946D01*
X0104630Y0112923D01*
X0105413Y0112140D01*
X0106437Y0111716D01*
X0107544Y0111716D01*
X0108568Y0112140D01*
X0109351Y0112923D01*
X0109775Y0113946D01*
X0109775Y0115022D01*
X0109991Y0115237D01*
X0110391Y0114837D01*
X0110391Y0092837D01*
X0111328Y0091900D01*
X0121206Y0082022D01*
X0121206Y0080946D01*
X0121630Y0079923D01*
X0122413Y0079140D01*
X0123437Y0078716D01*
X0124544Y0078716D01*
X0125568Y0079140D01*
X0126351Y0079923D01*
X0126775Y0080946D01*
X0126775Y0082054D01*
X0126351Y0083077D01*
X0125568Y0083860D01*
X0124544Y0084284D01*
X0123469Y0084284D01*
X0113591Y0094163D01*
X0113591Y0116163D01*
X0110653Y0119100D01*
X0094341Y0135413D01*
X0094341Y0139163D01*
X0096778Y0141600D01*
X0097575Y0141600D01*
X0097501Y0141563D01*
X0096896Y0141123D01*
X0096367Y0140594D01*
X0095928Y0139990D01*
X0095589Y0139323D01*
X0095358Y0138612D01*
X0095241Y0137874D01*
X0095241Y0137689D01*
X0099801Y0137689D01*
X0099801Y0137311D01*
X0095241Y0137311D01*
X0095241Y0137126D01*
X0095358Y0136388D01*
X0095589Y0135677D01*
X0095928Y0135010D01*
X0096367Y0134406D01*
X0096896Y0133877D01*
X0097501Y0133437D01*
X0098167Y0133098D01*
X0098878Y0132867D01*
X0099617Y0132750D01*
X0099802Y0132750D01*
X0099802Y0137311D01*
X0100180Y0137311D01*
X0100180Y0137689D01*
X0104741Y0137689D01*
X0104741Y0137874D01*
X0104624Y0138612D01*
X0104393Y0139323D01*
X0104301Y0139502D01*
X0106204Y0137600D01*
X0111582Y0137600D01*
X0111921Y0136781D01*
X0113272Y0135431D01*
X0115036Y0134700D01*
X0116945Y0134700D01*
X0118710Y0135431D01*
X0120060Y0136781D01*
X0120399Y0137600D01*
X0121582Y0137600D01*
X0121921Y0136781D01*
X0123272Y0135431D01*
X0125036Y0134700D01*
X0126945Y0134700D01*
X0128710Y0135431D01*
X0130060Y0136781D01*
X0130791Y0138545D01*
X0130791Y0140455D01*
X0130060Y0142219D01*
X0128710Y0143569D01*
X0126945Y0144300D01*
X0125036Y0144300D01*
X0123272Y0143569D01*
X0121921Y0142219D01*
X0121582Y0141400D01*
X0120399Y0141400D01*
X0120060Y0142219D01*
X0118710Y0143569D01*
X0116945Y0144300D01*
X0115036Y0144300D01*
X0113272Y0143569D01*
X0111921Y0142219D01*
X0111582Y0141400D01*
X0107778Y0141400D01*
X0104891Y0144287D01*
X0103778Y0145400D01*
X0095204Y0145400D01*
X0091654Y0141850D01*
X0086285Y0141850D01*
X0085641Y0141206D01*
X0085641Y0133794D01*
X0086285Y0133150D01*
X0088391Y0133150D01*
X0088391Y0122163D01*
X0080512Y0114284D01*
X0079437Y0114284D01*
X0078413Y0113860D01*
X0077630Y0113077D01*
X0077491Y0112740D01*
X0077351Y0113077D01*
X0076568Y0113860D01*
X0075544Y0114284D01*
X0074437Y0114284D01*
X0073413Y0113860D01*
X0072653Y0113100D01*
X0071653Y0113100D01*
X0063038Y0121716D01*
X0063544Y0121716D01*
X0064568Y0122140D01*
X0065351Y0122923D01*
X0065775Y0123946D01*
X0065775Y0125054D01*
X0065351Y0126077D01*
X0064568Y0126860D01*
X0063544Y0127284D01*
X0062893Y0127284D01*
X0062891Y0127287D01*
X0062891Y0149713D01*
X0069893Y0156716D01*
X0070544Y0156716D01*
X0071568Y0157140D01*
X0072351Y0157923D01*
X0072775Y0158946D01*
X0072775Y0160054D01*
X0072351Y0161077D01*
X0071568Y0161860D01*
X0070544Y0162284D01*
X0069437Y0162284D01*
X0068413Y0161860D01*
X0067630Y0161077D01*
X0067206Y0160054D01*
X0067206Y0159403D01*
X0059091Y0151287D01*
X0059091Y0138041D01*
X0044382Y0152749D01*
X0044531Y0153111D01*
X0044531Y0154488D01*
X0044004Y0155760D01*
X0043030Y0156734D01*
X0041758Y0157261D01*
X0040381Y0157261D01*
X0039108Y0156734D01*
X0038134Y0155760D01*
X0037607Y0154488D01*
X0037607Y0153874D01*
X0037034Y0154112D01*
X0035656Y0154112D01*
X0034384Y0153585D01*
X0033410Y0152611D01*
X0033107Y0151879D01*
X0031328Y0150100D01*
X0030391Y0149163D01*
X0030391Y0142837D01*
X0038391Y0134837D01*
X0039328Y0133900D01*
X0041328Y0133900D01*
X0047643Y0127585D01*
X0045601Y0127585D01*
X0043617Y0126763D01*
X0042098Y0125244D01*
X0041276Y0123259D01*
X0041276Y0121111D01*
X0042098Y0119126D01*
X0043617Y0117607D01*
X0044446Y0117264D01*
X0043617Y0116920D01*
X0042098Y0115401D01*
X0041276Y0113417D01*
X0041276Y0111268D01*
X0042098Y0109284D01*
X0043617Y0107765D01*
X0045601Y0106943D01*
X0047750Y0106943D01*
X0049734Y0107765D01*
X0051253Y0109284D01*
X0052042Y0111186D01*
X0053206Y0110022D01*
X0053206Y0108946D01*
X0053630Y0107923D01*
X0054413Y0107140D01*
X0055437Y0106716D01*
X0056544Y0106716D01*
X0057568Y0107140D01*
X0058351Y0107923D01*
X0058775Y0108946D01*
X0058775Y0110054D01*
X0058351Y0111077D01*
X0057568Y0111860D01*
X0056544Y0112284D01*
X0055469Y0112284D01*
X0054591Y0113163D01*
X0054591Y0125163D01*
X0053653Y0126100D01*
X0042653Y0137100D01*
X0040653Y0137100D01*
X0040347Y0137407D01*
X0040689Y0137339D01*
X0040782Y0137339D01*
X0040782Y0140913D01*
X0041357Y0140913D01*
X0041357Y0141488D01*
X0044931Y0141488D01*
X0044931Y0141581D01*
X0044783Y0142327D01*
X0044492Y0143030D01*
X0044069Y0143663D01*
X0043531Y0144201D01*
X0043003Y0144554D01*
X0043030Y0144565D01*
X0044004Y0145539D01*
X0044531Y0146811D01*
X0044531Y0148074D01*
X0057391Y0135215D01*
X0057391Y0122837D01*
X0058328Y0121900D01*
X0070328Y0109900D01*
X0072653Y0109900D01*
X0073413Y0109140D01*
X0074437Y0108716D01*
X0075544Y0108716D01*
X0076568Y0109140D01*
X0077351Y0109923D01*
X0077491Y0110260D01*
X0077630Y0109923D01*
X0078391Y0109162D01*
X0078391Y0067100D01*
X0064328Y0067100D01*
X0063512Y0066284D01*
X0062437Y0066284D01*
X0061413Y0065860D01*
X0060630Y0065077D01*
X0060206Y0064054D01*
X0060206Y0062946D01*
X0060630Y0061923D01*
X0061413Y0061140D01*
X0062437Y0060716D01*
X0063544Y0060716D01*
X0064568Y0061140D01*
X0065351Y0061923D01*
X0065775Y0062946D01*
X0065775Y0063900D01*
X0078391Y0063900D01*
X0078391Y0058163D01*
X0078253Y0058025D01*
X0077979Y0058300D01*
X0074002Y0058300D01*
X0071191Y0055488D01*
X0071191Y0051512D01*
X0074002Y0048700D01*
X0077979Y0048700D01*
X0078722Y0049443D02*
X0093087Y0049443D01*
X0093781Y0050442D02*
X0079721Y0050442D01*
X0080719Y0051440D02*
X0095137Y0051440D01*
X0098845Y0051440D02*
X0115137Y0051440D01*
X0114526Y0051188D02*
X0113303Y0049964D01*
X0112641Y0048365D01*
X0112641Y0046635D01*
X0113303Y0045036D01*
X0114526Y0043812D01*
X0116125Y0043150D01*
X0117856Y0043150D01*
X0119455Y0043812D01*
X0120678Y0045036D01*
X0121341Y0046635D01*
X0121341Y0048365D01*
X0120678Y0049964D01*
X0119455Y0051188D01*
X0117856Y0051850D01*
X0116125Y0051850D01*
X0114526Y0051188D01*
X0113781Y0050442D02*
X0100200Y0050442D01*
X0100894Y0049443D02*
X0113087Y0049443D01*
X0112674Y0048445D02*
X0101308Y0048445D01*
X0101341Y0047446D02*
X0112641Y0047446D01*
X0112718Y0046448D02*
X0101263Y0046448D01*
X0100850Y0045449D02*
X0113132Y0045449D01*
X0113888Y0044451D02*
X0100093Y0044451D01*
X0098586Y0043452D02*
X0115395Y0043452D01*
X0118586Y0043452D02*
X0140991Y0043452D01*
X0140991Y0042454D02*
X0080791Y0042454D01*
X0080791Y0043452D02*
X0095395Y0043452D01*
X0093888Y0044451D02*
X0080791Y0044451D01*
X0080791Y0045449D02*
X0093132Y0045449D01*
X0092718Y0046448D02*
X0079831Y0046448D01*
X0080734Y0041455D02*
X0140991Y0041455D01*
X0140991Y0040457D02*
X0079736Y0040457D01*
X0078737Y0039458D02*
X0140991Y0039458D01*
X0140991Y0038460D02*
X0078385Y0038460D01*
X0078144Y0038700D02*
X0081191Y0035654D01*
X0081191Y0034000D01*
X0076491Y0034000D01*
X0076491Y0033000D01*
X0081191Y0033000D01*
X0081191Y0031346D01*
X0078144Y0028300D01*
X0076491Y0028300D01*
X0076491Y0033000D01*
X0075491Y0033000D01*
X0075491Y0028300D01*
X0073837Y0028300D01*
X0070791Y0031346D01*
X0070791Y0033000D01*
X0075490Y0033000D01*
X0075490Y0034000D01*
X0070791Y0034000D01*
X0070791Y0035654D01*
X0073837Y0038700D01*
X0075491Y0038700D01*
X0075491Y0034000D01*
X0076491Y0034000D01*
X0076491Y0038700D01*
X0078144Y0038700D01*
X0076491Y0038460D02*
X0075491Y0038460D01*
X0075491Y0037461D02*
X0076491Y0037461D01*
X0076491Y0036463D02*
X0075491Y0036463D01*
X0075491Y0035464D02*
X0076491Y0035464D01*
X0076491Y0034466D02*
X0075491Y0034466D01*
X0075490Y0033467D02*
X0070791Y0033467D01*
X0070791Y0032469D02*
X0070791Y0032469D01*
X0070791Y0031512D02*
X0067979Y0028700D01*
X0064002Y0028700D01*
X0061191Y0031512D01*
X0061191Y0035488D01*
X0064002Y0038300D01*
X0067979Y0038300D01*
X0070791Y0035488D01*
X0070791Y0031512D01*
X0070791Y0031470D02*
X0070749Y0031470D01*
X0071665Y0030472D02*
X0069750Y0030472D01*
X0068752Y0029473D02*
X0072663Y0029473D01*
X0073662Y0028475D02*
X0049972Y0028475D01*
X0050971Y0029473D02*
X0063229Y0029473D01*
X0062231Y0030472D02*
X0051550Y0030472D01*
X0051963Y0031470D02*
X0061232Y0031470D01*
X0061191Y0032469D02*
X0052076Y0032469D01*
X0052076Y0033467D02*
X0061191Y0033467D01*
X0061191Y0034466D02*
X0051837Y0034466D01*
X0051423Y0035464D02*
X0061191Y0035464D01*
X0062165Y0036463D02*
X0050665Y0036463D01*
X0049569Y0037461D02*
X0063164Y0037461D01*
X0064002Y0038700D02*
X0067979Y0038700D01*
X0070791Y0041512D01*
X0070791Y0045488D01*
X0067979Y0048300D01*
X0064002Y0048300D01*
X0061191Y0045488D01*
X0061191Y0041512D01*
X0064002Y0038700D01*
X0063244Y0039458D02*
X0051113Y0039458D01*
X0051609Y0040457D02*
X0062245Y0040457D01*
X0061247Y0041455D02*
X0052023Y0041455D01*
X0052076Y0042454D02*
X0061191Y0042454D01*
X0061191Y0043452D02*
X0052076Y0043452D01*
X0051778Y0044451D02*
X0061191Y0044451D01*
X0061191Y0045449D02*
X0051364Y0045449D01*
X0050522Y0046448D02*
X0062150Y0046448D01*
X0063149Y0047446D02*
X0049225Y0047446D01*
X0049788Y0049443D02*
X0063259Y0049443D01*
X0064002Y0048700D02*
X0067979Y0048700D01*
X0070791Y0051512D01*
X0070791Y0055488D01*
X0067979Y0058300D01*
X0064002Y0058300D01*
X0061191Y0055488D01*
X0061191Y0051512D01*
X0064002Y0048700D01*
X0062260Y0050442D02*
X0050545Y0050442D01*
X0050958Y0051440D02*
X0061262Y0051440D01*
X0061191Y0052439D02*
X0051038Y0052439D01*
X0051009Y0053437D02*
X0061191Y0053437D01*
X0061191Y0054436D02*
X0050595Y0054436D01*
X0049910Y0055434D02*
X0061191Y0055434D01*
X0062135Y0056433D02*
X0048579Y0056433D01*
X0047750Y0056943D02*
X0049734Y0057765D01*
X0051253Y0059284D01*
X0052076Y0061268D01*
X0052076Y0063417D01*
X0051253Y0065401D01*
X0049734Y0066920D01*
X0048905Y0067264D01*
X0049734Y0067607D01*
X0051253Y0069126D01*
X0052076Y0071111D01*
X0052076Y0073259D01*
X0051253Y0075244D01*
X0049734Y0076763D01*
X0047955Y0077500D01*
X0049734Y0078237D01*
X0051253Y0079756D01*
X0052076Y0081741D01*
X0052076Y0083889D01*
X0051253Y0085874D01*
X0049734Y0087393D01*
X0048905Y0087736D01*
X0049734Y0088080D01*
X0051253Y0089599D01*
X0052076Y0091583D01*
X0052076Y0093732D01*
X0051253Y0095716D01*
X0049734Y0097235D01*
X0047750Y0098057D01*
X0045601Y0098057D01*
X0043617Y0097235D01*
X0042098Y0095716D01*
X0041276Y0093732D01*
X0041276Y0091583D01*
X0042098Y0089599D01*
X0043617Y0088080D01*
X0044446Y0087736D01*
X0043617Y0087393D01*
X0042098Y0085874D01*
X0041276Y0083889D01*
X0041276Y0081741D01*
X0042098Y0079756D01*
X0043617Y0078237D01*
X0045396Y0077500D01*
X0043617Y0076763D01*
X0042098Y0075244D01*
X0041276Y0073259D01*
X0041276Y0071111D01*
X0042098Y0069126D01*
X0043617Y0067607D01*
X0044446Y0067264D01*
X0043617Y0066920D01*
X0042098Y0065401D01*
X0041276Y0063417D01*
X0041276Y0061268D01*
X0042098Y0059284D01*
X0043617Y0057765D01*
X0045601Y0056943D01*
X0047750Y0056943D01*
X0048930Y0057432D02*
X0063134Y0057432D01*
X0064854Y0061426D02*
X0078391Y0061426D01*
X0078391Y0062424D02*
X0065559Y0062424D01*
X0065775Y0063423D02*
X0078391Y0063423D01*
X0079991Y0065500D02*
X0064991Y0065500D01*
X0062991Y0063500D01*
X0060423Y0062424D02*
X0052076Y0062424D01*
X0052076Y0061426D02*
X0061127Y0061426D01*
X0060206Y0063423D02*
X0052073Y0063423D01*
X0051660Y0064421D02*
X0060358Y0064421D01*
X0060973Y0065420D02*
X0051235Y0065420D01*
X0050237Y0066418D02*
X0063646Y0066418D01*
X0051786Y0070412D02*
X0078391Y0070412D01*
X0078391Y0069414D02*
X0051373Y0069414D01*
X0050542Y0068415D02*
X0078391Y0068415D01*
X0078391Y0067417D02*
X0049275Y0067417D01*
X0044077Y0067417D02*
X0014991Y0067417D01*
X0014991Y0066418D02*
X0043114Y0066418D01*
X0042116Y0065420D02*
X0014991Y0065420D01*
X0014991Y0064421D02*
X0041692Y0064421D01*
X0041278Y0063423D02*
X0014991Y0063423D01*
X0014991Y0062424D02*
X0041276Y0062424D01*
X0041276Y0061426D02*
X0014991Y0061426D01*
X0014991Y0060427D02*
X0041624Y0060427D01*
X0042038Y0059429D02*
X0014991Y0059429D01*
X0014991Y0058430D02*
X0042951Y0058430D01*
X0044421Y0057432D02*
X0030070Y0057432D01*
X0031260Y0056433D02*
X0044772Y0056433D01*
X0043441Y0055434D02*
X0032005Y0055434D01*
X0032460Y0054436D02*
X0042756Y0054436D01*
X0042342Y0053437D02*
X0032714Y0053437D01*
X0032695Y0051440D02*
X0042393Y0051440D01*
X0042313Y0052439D02*
X0027491Y0052439D01*
X0027491Y0053437D02*
X0026491Y0053437D01*
X0026490Y0052439D02*
X0014991Y0052439D01*
X0014991Y0053437D02*
X0021267Y0053437D01*
X0021521Y0054436D02*
X0014991Y0054436D01*
X0014991Y0055434D02*
X0021976Y0055434D01*
X0022721Y0056433D02*
X0014991Y0056433D01*
X0014991Y0057432D02*
X0023911Y0057432D01*
X0026491Y0057432D02*
X0027491Y0057432D01*
X0027491Y0056433D02*
X0026491Y0056433D01*
X0026491Y0055434D02*
X0027491Y0055434D01*
X0027491Y0054436D02*
X0026491Y0054436D01*
X0026491Y0051440D02*
X0027491Y0051440D01*
X0027491Y0050442D02*
X0026491Y0050442D01*
X0026491Y0049443D02*
X0027491Y0049443D01*
X0027491Y0048445D02*
X0026491Y0048445D01*
X0026491Y0047446D02*
X0027491Y0047446D01*
X0024133Y0047446D02*
X0014991Y0047446D01*
X0014991Y0048445D02*
X0022843Y0048445D01*
X0022042Y0049443D02*
X0014991Y0049443D01*
X0014991Y0050442D02*
X0021561Y0050442D01*
X0021286Y0051440D02*
X0014991Y0051440D01*
X0031939Y0049443D02*
X0043563Y0049443D01*
X0042806Y0050442D02*
X0032420Y0050442D01*
X0050400Y0058430D02*
X0078391Y0058430D01*
X0078391Y0059429D02*
X0051313Y0059429D01*
X0051727Y0060427D02*
X0078391Y0060427D01*
X0081591Y0060427D02*
X0082801Y0060427D01*
X0083799Y0059429D02*
X0081591Y0059429D01*
X0081591Y0058430D02*
X0084206Y0058430D01*
X0084419Y0057432D02*
X0081591Y0057432D01*
X0081186Y0056433D02*
X0085120Y0056433D01*
X0086991Y0058500D02*
X0079991Y0065500D01*
X0079991Y0057500D01*
X0075991Y0053500D01*
X0080791Y0053437D02*
X0140991Y0053437D01*
X0140991Y0052439D02*
X0080791Y0052439D01*
X0080791Y0054436D02*
X0140991Y0054436D01*
X0140991Y0055434D02*
X0080791Y0055434D01*
X0081591Y0061426D02*
X0081802Y0061426D01*
X0084331Y0063423D02*
X0140991Y0063423D01*
X0140991Y0064421D02*
X0083332Y0064421D01*
X0082334Y0065420D02*
X0140991Y0065420D01*
X0140991Y0066418D02*
X0081591Y0066418D01*
X0081591Y0067417D02*
X0140991Y0067417D01*
X0140991Y0068415D02*
X0081591Y0068415D01*
X0081591Y0069414D02*
X0140991Y0069414D01*
X0140991Y0070412D02*
X0081591Y0070412D01*
X0081591Y0071411D02*
X0140991Y0071411D01*
X0140991Y0072409D02*
X0081591Y0072409D01*
X0081591Y0073408D02*
X0140991Y0073408D01*
X0140991Y0074406D02*
X0081591Y0074406D01*
X0081591Y0075405D02*
X0140991Y0075405D01*
X0140991Y0076403D02*
X0081591Y0076403D01*
X0081591Y0077402D02*
X0140991Y0077402D01*
X0140991Y0078400D02*
X0081591Y0078400D01*
X0081591Y0079399D02*
X0122154Y0079399D01*
X0121434Y0080397D02*
X0081591Y0080397D01*
X0081591Y0081396D02*
X0121206Y0081396D01*
X0120834Y0082394D02*
X0081591Y0082394D01*
X0081591Y0083393D02*
X0119835Y0083393D01*
X0118836Y0084391D02*
X0081591Y0084391D01*
X0081591Y0085390D02*
X0117838Y0085390D01*
X0116839Y0086388D02*
X0081591Y0086388D01*
X0081591Y0087387D02*
X0115841Y0087387D01*
X0114842Y0088385D02*
X0081591Y0088385D01*
X0081591Y0089384D02*
X0113844Y0089384D01*
X0112845Y0090382D02*
X0081591Y0090382D01*
X0081591Y0091381D02*
X0111847Y0091381D01*
X0110848Y0092379D02*
X0081591Y0092379D01*
X0081591Y0093378D02*
X0110391Y0093378D01*
X0110391Y0094376D02*
X0081591Y0094376D01*
X0081591Y0095375D02*
X0110391Y0095375D01*
X0110391Y0096373D02*
X0081591Y0096373D01*
X0081591Y0097372D02*
X0110391Y0097372D01*
X0110391Y0098370D02*
X0081591Y0098370D01*
X0081591Y0099369D02*
X0110391Y0099369D01*
X0110391Y0100368D02*
X0081591Y0100368D01*
X0081591Y0101366D02*
X0110391Y0101366D01*
X0110391Y0102365D02*
X0081591Y0102365D01*
X0081591Y0103363D02*
X0110391Y0103363D01*
X0110391Y0104362D02*
X0081591Y0104362D01*
X0081591Y0105360D02*
X0110391Y0105360D01*
X0110391Y0106359D02*
X0081591Y0106359D01*
X0081591Y0107357D02*
X0110391Y0107357D01*
X0110391Y0108356D02*
X0081591Y0108356D01*
X0081782Y0109354D02*
X0110391Y0109354D01*
X0110391Y0110353D02*
X0082529Y0110353D01*
X0082775Y0111351D02*
X0110391Y0111351D01*
X0110391Y0112350D02*
X0108778Y0112350D01*
X0109527Y0113348D02*
X0110391Y0113348D01*
X0110391Y0114347D02*
X0109775Y0114347D01*
X0111991Y0115500D02*
X0109991Y0117500D01*
X0089991Y0137500D01*
X0089991Y0121500D01*
X0079991Y0111500D01*
X0079991Y0065500D01*
X0085329Y0062424D02*
X0140991Y0062424D01*
X0140991Y0061426D02*
X0086328Y0061426D01*
X0089001Y0060427D02*
X0140991Y0060427D01*
X0140991Y0059429D02*
X0089620Y0059429D01*
X0089775Y0058430D02*
X0140991Y0058430D01*
X0140991Y0057432D02*
X0089562Y0057432D01*
X0088861Y0056433D02*
X0140991Y0056433D01*
X0140991Y0051440D02*
X0118845Y0051440D01*
X0120200Y0050442D02*
X0140991Y0050442D01*
X0140991Y0049443D02*
X0120894Y0049443D01*
X0121308Y0048445D02*
X0140991Y0048445D01*
X0140991Y0047446D02*
X0121341Y0047446D01*
X0121263Y0046448D02*
X0140991Y0046448D01*
X0140991Y0045449D02*
X0120850Y0045449D01*
X0120093Y0044451D02*
X0140991Y0044451D01*
X0140991Y0037461D02*
X0079383Y0037461D01*
X0080382Y0036463D02*
X0140991Y0036463D01*
X0140991Y0035464D02*
X0081191Y0035464D01*
X0081191Y0034466D02*
X0140991Y0034466D01*
X0140991Y0033467D02*
X0076491Y0033467D01*
X0076491Y0032469D02*
X0075491Y0032469D01*
X0075491Y0031470D02*
X0076491Y0031470D01*
X0076491Y0030472D02*
X0075491Y0030472D01*
X0075491Y0029473D02*
X0076491Y0029473D01*
X0076491Y0028475D02*
X0075491Y0028475D01*
X0078319Y0028475D02*
X0140991Y0028475D01*
X0140991Y0029473D02*
X0079318Y0029473D01*
X0080316Y0030472D02*
X0140991Y0030472D01*
X0140991Y0031470D02*
X0081191Y0031470D01*
X0081191Y0032469D02*
X0140991Y0032469D01*
X0073596Y0038460D02*
X0050115Y0038460D01*
X0068737Y0039458D02*
X0073244Y0039458D01*
X0072245Y0040457D02*
X0069736Y0040457D01*
X0070734Y0041455D02*
X0071247Y0041455D01*
X0071191Y0042454D02*
X0070791Y0042454D01*
X0070791Y0043452D02*
X0071191Y0043452D01*
X0071191Y0044451D02*
X0070791Y0044451D01*
X0070791Y0045449D02*
X0071191Y0045449D01*
X0072150Y0046448D02*
X0069831Y0046448D01*
X0068832Y0047446D02*
X0073149Y0047446D01*
X0073259Y0049443D02*
X0068722Y0049443D01*
X0069721Y0050442D02*
X0072260Y0050442D01*
X0071262Y0051440D02*
X0070719Y0051440D01*
X0070791Y0052439D02*
X0071191Y0052439D01*
X0071191Y0053437D02*
X0070791Y0053437D01*
X0070791Y0054436D02*
X0071191Y0054436D01*
X0071191Y0055434D02*
X0070791Y0055434D01*
X0069846Y0056433D02*
X0072135Y0056433D01*
X0073134Y0057432D02*
X0068847Y0057432D01*
X0078391Y0071411D02*
X0052076Y0071411D01*
X0052076Y0072409D02*
X0078391Y0072409D01*
X0078391Y0073408D02*
X0052014Y0073408D01*
X0051600Y0074406D02*
X0078391Y0074406D01*
X0078391Y0075405D02*
X0051093Y0075405D01*
X0050094Y0076403D02*
X0078391Y0076403D01*
X0078391Y0077402D02*
X0048192Y0077402D01*
X0049898Y0078400D02*
X0078391Y0078400D01*
X0078391Y0079399D02*
X0050896Y0079399D01*
X0051519Y0080397D02*
X0078391Y0080397D01*
X0078391Y0081396D02*
X0051933Y0081396D01*
X0052076Y0082394D02*
X0078391Y0082394D01*
X0078391Y0083393D02*
X0052076Y0083393D01*
X0051868Y0084391D02*
X0078391Y0084391D01*
X0078391Y0085390D02*
X0051454Y0085390D01*
X0050739Y0086388D02*
X0078391Y0086388D01*
X0078391Y0087387D02*
X0049740Y0087387D01*
X0050040Y0088385D02*
X0078391Y0088385D01*
X0078391Y0089384D02*
X0051039Y0089384D01*
X0051578Y0090382D02*
X0078391Y0090382D01*
X0078391Y0091381D02*
X0051992Y0091381D01*
X0052076Y0092379D02*
X0078391Y0092379D01*
X0078391Y0093378D02*
X0052076Y0093378D01*
X0051808Y0094376D02*
X0078391Y0094376D01*
X0078391Y0095375D02*
X0051395Y0095375D01*
X0050596Y0096373D02*
X0078391Y0096373D01*
X0078391Y0097372D02*
X0049405Y0097372D01*
X0049147Y0098802D02*
X0050374Y0100029D01*
X0051038Y0101632D01*
X0051038Y0103368D01*
X0050374Y0104971D01*
X0049147Y0106198D01*
X0047543Y0106862D01*
X0045808Y0106862D01*
X0044205Y0106198D01*
X0042977Y0104971D01*
X0042313Y0103368D01*
X0042313Y0101632D01*
X0042977Y0100029D01*
X0044205Y0098802D01*
X0045808Y0098138D01*
X0047543Y0098138D01*
X0049147Y0098802D01*
X0049714Y0099369D02*
X0078391Y0099369D01*
X0078391Y0098370D02*
X0048105Y0098370D01*
X0045246Y0098370D02*
X0031063Y0098370D01*
X0030769Y0098076D02*
X0031415Y0098722D01*
X0031951Y0099460D01*
X0032366Y0100274D01*
X0032648Y0101142D01*
X0032784Y0102000D01*
X0027491Y0102000D01*
X0027491Y0103000D01*
X0032784Y0103000D01*
X0032648Y0103858D01*
X0032366Y0104726D01*
X0031951Y0105540D01*
X0031415Y0106278D01*
X0030769Y0106924D01*
X0030030Y0107461D01*
X0029217Y0107875D01*
X0028349Y0108157D01*
X0027491Y0108293D01*
X0027491Y0103000D01*
X0026491Y0103000D01*
X0026491Y0108293D01*
X0025632Y0108157D01*
X0024764Y0107875D01*
X0023951Y0107461D01*
X0023212Y0106924D01*
X0022567Y0106278D01*
X0022030Y0105540D01*
X0021615Y0104726D01*
X0021333Y0103858D01*
X0021197Y0103000D01*
X0026490Y0103000D01*
X0026490Y0102000D01*
X0021197Y0102000D01*
X0021333Y0101142D01*
X0021615Y0100274D01*
X0022030Y0099460D01*
X0022567Y0098722D01*
X0023212Y0098076D01*
X0023951Y0097539D01*
X0024764Y0097125D01*
X0025632Y0096843D01*
X0026491Y0096707D01*
X0026491Y0102000D01*
X0027491Y0102000D01*
X0027491Y0096707D01*
X0028349Y0096843D01*
X0029217Y0097125D01*
X0030030Y0097539D01*
X0030769Y0098076D01*
X0029702Y0097372D02*
X0043947Y0097372D01*
X0042755Y0096373D02*
X0014991Y0096373D01*
X0014991Y0095375D02*
X0041956Y0095375D01*
X0041543Y0094376D02*
X0014991Y0094376D01*
X0014991Y0093378D02*
X0041276Y0093378D01*
X0041276Y0092379D02*
X0014991Y0092379D01*
X0014991Y0091381D02*
X0041359Y0091381D01*
X0041773Y0090382D02*
X0014991Y0090382D01*
X0014991Y0089384D02*
X0042312Y0089384D01*
X0043311Y0088385D02*
X0014991Y0088385D01*
X0014991Y0087387D02*
X0043611Y0087387D01*
X0042612Y0086388D02*
X0029586Y0086388D01*
X0029462Y0086513D02*
X0027858Y0087177D01*
X0026123Y0087177D01*
X0024520Y0086513D01*
X0023292Y0085286D01*
X0022628Y0083683D01*
X0022628Y0081947D01*
X0023292Y0080344D01*
X0024520Y0079117D01*
X0026123Y0078453D01*
X0027858Y0078453D01*
X0029462Y0079117D01*
X0030689Y0080344D01*
X0031353Y0081947D01*
X0031353Y0083683D01*
X0030689Y0085286D01*
X0029462Y0086513D01*
X0030585Y0085390D02*
X0041897Y0085390D01*
X0041484Y0084391D02*
X0031059Y0084391D01*
X0031353Y0083393D02*
X0041276Y0083393D01*
X0041276Y0082394D02*
X0031353Y0082394D01*
X0031124Y0081396D02*
X0041419Y0081396D01*
X0041832Y0080397D02*
X0030711Y0080397D01*
X0029743Y0079399D02*
X0042455Y0079399D01*
X0043454Y0078400D02*
X0014991Y0078400D01*
X0014991Y0077402D02*
X0045159Y0077402D01*
X0043257Y0076403D02*
X0028206Y0076403D01*
X0027858Y0076547D02*
X0026123Y0076547D01*
X0024520Y0075883D01*
X0023292Y0074656D01*
X0022628Y0073053D01*
X0022628Y0071317D01*
X0023292Y0069714D01*
X0024520Y0068487D01*
X0026123Y0067823D01*
X0027858Y0067823D01*
X0029462Y0068487D01*
X0030689Y0069714D01*
X0031353Y0071317D01*
X0031353Y0073053D01*
X0030689Y0074656D01*
X0029462Y0075883D01*
X0027858Y0076547D01*
X0025775Y0076403D02*
X0018363Y0076403D01*
X0020097Y0075405D02*
X0024041Y0075405D01*
X0023189Y0074406D02*
X0020950Y0074406D01*
X0021363Y0073408D02*
X0022775Y0073408D01*
X0022628Y0072409D02*
X0021510Y0072409D01*
X0021510Y0071411D02*
X0022628Y0071411D01*
X0023003Y0070412D02*
X0021135Y0070412D01*
X0020546Y0069414D02*
X0023593Y0069414D01*
X0024693Y0068415D02*
X0019446Y0068415D01*
X0029288Y0068415D02*
X0042809Y0068415D01*
X0041979Y0069414D02*
X0030388Y0069414D01*
X0030978Y0070412D02*
X0041565Y0070412D01*
X0041276Y0071411D02*
X0031353Y0071411D01*
X0031353Y0072409D02*
X0041276Y0072409D01*
X0041337Y0073408D02*
X0031206Y0073408D01*
X0030792Y0074406D02*
X0041751Y0074406D01*
X0042259Y0075405D02*
X0029940Y0075405D01*
X0024238Y0079399D02*
X0019901Y0079399D01*
X0020868Y0080397D02*
X0023270Y0080397D01*
X0022857Y0081396D02*
X0021282Y0081396D01*
X0021510Y0082394D02*
X0022628Y0082394D01*
X0022628Y0083393D02*
X0021510Y0083393D01*
X0021217Y0084391D02*
X0022922Y0084391D01*
X0023396Y0085390D02*
X0020742Y0085390D01*
X0019744Y0086388D02*
X0024395Y0086388D01*
X0015933Y0076403D02*
X0014991Y0076403D01*
X0014991Y0097372D02*
X0024279Y0097372D01*
X0022918Y0098370D02*
X0014991Y0098370D01*
X0014991Y0099369D02*
X0022096Y0099369D01*
X0021585Y0100368D02*
X0014991Y0100368D01*
X0014991Y0101366D02*
X0021298Y0101366D01*
X0021255Y0103363D02*
X0014991Y0103363D01*
X0014991Y0102365D02*
X0026490Y0102365D01*
X0026491Y0103363D02*
X0027491Y0103363D01*
X0027491Y0102365D02*
X0042313Y0102365D01*
X0042313Y0103363D02*
X0032726Y0103363D01*
X0032484Y0104362D02*
X0042725Y0104362D01*
X0043367Y0105360D02*
X0032043Y0105360D01*
X0031334Y0106359D02*
X0044592Y0106359D01*
X0044601Y0107357D02*
X0030173Y0107357D01*
X0027491Y0107357D02*
X0026491Y0107357D01*
X0026491Y0106359D02*
X0027491Y0106359D01*
X0027491Y0105360D02*
X0026491Y0105360D01*
X0026491Y0104362D02*
X0027491Y0104362D01*
X0023808Y0107357D02*
X0014991Y0107357D01*
X0014991Y0106359D02*
X0022647Y0106359D01*
X0021938Y0105360D02*
X0014991Y0105360D01*
X0014991Y0104362D02*
X0021497Y0104362D01*
X0014991Y0108356D02*
X0043026Y0108356D01*
X0042069Y0109354D02*
X0014991Y0109354D01*
X0014991Y0110353D02*
X0041655Y0110353D01*
X0041276Y0111351D02*
X0014991Y0111351D01*
X0014991Y0112350D02*
X0041276Y0112350D01*
X0041276Y0113348D02*
X0014991Y0113348D01*
X0014991Y0114347D02*
X0041661Y0114347D01*
X0042074Y0115345D02*
X0014991Y0115345D01*
X0014991Y0116344D02*
X0043040Y0116344D01*
X0044256Y0117342D02*
X0014991Y0117342D01*
X0014991Y0118341D02*
X0015030Y0118341D01*
X0019266Y0118341D02*
X0024873Y0118341D01*
X0024520Y0118487D02*
X0026123Y0117823D01*
X0027858Y0117823D01*
X0029462Y0118487D01*
X0030689Y0119714D01*
X0031353Y0121317D01*
X0031353Y0123053D01*
X0030689Y0124656D01*
X0029462Y0125883D01*
X0027858Y0126547D01*
X0026123Y0126547D01*
X0024520Y0125883D01*
X0023292Y0124656D01*
X0022628Y0123053D01*
X0022628Y0121317D01*
X0023292Y0119714D01*
X0024520Y0118487D01*
X0023667Y0119339D02*
X0020471Y0119339D01*
X0021104Y0120338D02*
X0023034Y0120338D01*
X0022628Y0121336D02*
X0021510Y0121336D01*
X0021510Y0122335D02*
X0022628Y0122335D01*
X0022745Y0123333D02*
X0021394Y0123333D01*
X0020980Y0124332D02*
X0023158Y0124332D01*
X0023967Y0125330D02*
X0020172Y0125330D01*
X0018543Y0126329D02*
X0025596Y0126329D01*
X0024516Y0127327D02*
X0044979Y0127327D01*
X0043183Y0126329D02*
X0028386Y0126329D01*
X0030014Y0125330D02*
X0042184Y0125330D01*
X0041720Y0124332D02*
X0030823Y0124332D01*
X0031237Y0123333D02*
X0041306Y0123333D01*
X0041276Y0122335D02*
X0031353Y0122335D01*
X0031353Y0121336D02*
X0041276Y0121336D01*
X0041596Y0120338D02*
X0030947Y0120338D01*
X0030314Y0119339D02*
X0042009Y0119339D01*
X0042883Y0118341D02*
X0029109Y0118341D01*
X0017465Y0127327D02*
X0014991Y0127327D01*
X0014991Y0126329D02*
X0015753Y0126329D01*
X0016305Y0128326D02*
X0014991Y0128326D01*
X0014991Y0129324D02*
X0015306Y0129324D01*
X0025676Y0128326D02*
X0046902Y0128326D01*
X0045903Y0129324D02*
X0026675Y0129324D01*
X0027091Y0130323D02*
X0044905Y0130323D01*
X0043906Y0131321D02*
X0027505Y0131321D01*
X0027701Y0132320D02*
X0042908Y0132320D01*
X0041909Y0133318D02*
X0027701Y0133318D01*
X0027701Y0134317D02*
X0038911Y0134317D01*
X0037912Y0135315D02*
X0027348Y0135315D01*
X0026935Y0136314D02*
X0036914Y0136314D01*
X0035915Y0137312D02*
X0026298Y0137312D01*
X0025299Y0138311D02*
X0034917Y0138311D01*
X0033918Y0139309D02*
X0023607Y0139309D01*
X0018375Y0139309D02*
X0014991Y0139309D01*
X0014991Y0138311D02*
X0016682Y0138311D01*
X0015683Y0137312D02*
X0014991Y0137312D01*
X0014991Y0136314D02*
X0015046Y0136314D01*
X0014991Y0140308D02*
X0032920Y0140308D01*
X0031921Y0141306D02*
X0014991Y0141306D01*
X0014991Y0142305D02*
X0030923Y0142305D01*
X0030391Y0143303D02*
X0014991Y0143303D01*
X0014991Y0144302D02*
X0030391Y0144302D01*
X0030391Y0145301D02*
X0014991Y0145301D01*
X0014991Y0146299D02*
X0030391Y0146299D01*
X0030391Y0147298D02*
X0014991Y0147298D01*
X0014991Y0148296D02*
X0030391Y0148296D01*
X0030522Y0149295D02*
X0014991Y0149295D01*
X0014991Y0150293D02*
X0031521Y0150293D01*
X0032519Y0151292D02*
X0014991Y0151292D01*
X0014991Y0152290D02*
X0033277Y0152290D01*
X0034088Y0153289D02*
X0014991Y0153289D01*
X0014991Y0154287D02*
X0037607Y0154287D01*
X0037938Y0155286D02*
X0022629Y0155286D01*
X0024894Y0156284D02*
X0038658Y0156284D01*
X0041069Y0153799D02*
X0058991Y0135878D01*
X0058991Y0123500D01*
X0070991Y0111500D01*
X0074991Y0111500D01*
X0077080Y0113348D02*
X0077901Y0113348D01*
X0080574Y0114347D02*
X0070407Y0114347D01*
X0071405Y0113348D02*
X0072901Y0113348D01*
X0073199Y0109354D02*
X0058775Y0109354D01*
X0058651Y0110353D02*
X0069875Y0110353D01*
X0068877Y0111351D02*
X0058077Y0111351D01*
X0055991Y0109500D02*
X0052991Y0112500D01*
X0052991Y0124500D01*
X0041991Y0135500D01*
X0039991Y0135500D01*
X0031991Y0143500D01*
X0031991Y0148500D01*
X0034140Y0150650D01*
X0036345Y0150650D01*
X0044531Y0153289D02*
X0061092Y0153289D01*
X0062091Y0154287D02*
X0044531Y0154287D01*
X0044201Y0155286D02*
X0063089Y0155286D01*
X0064088Y0156284D02*
X0043481Y0156284D01*
X0044841Y0152290D02*
X0060094Y0152290D01*
X0059095Y0151292D02*
X0045840Y0151292D01*
X0046838Y0150293D02*
X0059091Y0150293D01*
X0059091Y0149295D02*
X0047837Y0149295D01*
X0048835Y0148296D02*
X0059091Y0148296D01*
X0059091Y0147298D02*
X0049834Y0147298D01*
X0050832Y0146299D02*
X0059091Y0146299D01*
X0059091Y0145301D02*
X0051831Y0145301D01*
X0052829Y0144302D02*
X0059091Y0144302D01*
X0059091Y0143303D02*
X0053828Y0143303D01*
X0054826Y0142305D02*
X0059091Y0142305D01*
X0059091Y0141306D02*
X0055825Y0141306D01*
X0056823Y0140308D02*
X0059091Y0140308D01*
X0059091Y0139309D02*
X0057822Y0139309D01*
X0058820Y0138311D02*
X0059091Y0138311D01*
X0056292Y0136314D02*
X0043439Y0136314D01*
X0044438Y0135315D02*
X0057290Y0135315D01*
X0057391Y0134317D02*
X0045436Y0134317D01*
X0046435Y0133318D02*
X0057391Y0133318D01*
X0057391Y0132320D02*
X0047433Y0132320D01*
X0048432Y0131321D02*
X0057391Y0131321D01*
X0057391Y0130323D02*
X0049430Y0130323D01*
X0050429Y0129324D02*
X0057391Y0129324D01*
X0057391Y0128326D02*
X0051427Y0128326D01*
X0052426Y0127327D02*
X0057391Y0127327D01*
X0057391Y0126329D02*
X0053424Y0126329D01*
X0054423Y0125330D02*
X0057391Y0125330D01*
X0057391Y0124332D02*
X0054591Y0124332D01*
X0054591Y0123333D02*
X0057391Y0123333D01*
X0057893Y0122335D02*
X0054591Y0122335D01*
X0054591Y0121336D02*
X0058892Y0121336D01*
X0059890Y0120338D02*
X0054591Y0120338D01*
X0054591Y0119339D02*
X0060889Y0119339D01*
X0061887Y0118341D02*
X0054591Y0118341D01*
X0054591Y0117342D02*
X0062886Y0117342D01*
X0063884Y0116344D02*
X0054591Y0116344D01*
X0054591Y0115345D02*
X0064883Y0115345D01*
X0065881Y0114347D02*
X0054591Y0114347D01*
X0054591Y0113348D02*
X0066880Y0113348D01*
X0067878Y0112350D02*
X0055404Y0112350D01*
X0052875Y0110353D02*
X0051696Y0110353D01*
X0051283Y0109354D02*
X0053206Y0109354D01*
X0053451Y0108356D02*
X0050325Y0108356D01*
X0048751Y0107357D02*
X0054196Y0107357D01*
X0057785Y0107357D02*
X0078391Y0107357D01*
X0078391Y0106359D02*
X0048759Y0106359D01*
X0049985Y0105360D02*
X0078391Y0105360D01*
X0078391Y0104362D02*
X0050626Y0104362D01*
X0051038Y0103363D02*
X0078391Y0103363D01*
X0078391Y0102365D02*
X0051038Y0102365D01*
X0050927Y0101366D02*
X0078391Y0101366D01*
X0078391Y0100368D02*
X0050514Y0100368D01*
X0043637Y0099369D02*
X0031885Y0099369D01*
X0032396Y0100368D02*
X0042837Y0100368D01*
X0042424Y0101366D02*
X0032683Y0101366D01*
X0027491Y0101366D02*
X0026491Y0101366D01*
X0026491Y0100368D02*
X0027491Y0100368D01*
X0027491Y0099369D02*
X0026491Y0099369D01*
X0026491Y0098370D02*
X0027491Y0098370D01*
X0027491Y0097372D02*
X0026491Y0097372D01*
X0058530Y0108356D02*
X0078391Y0108356D01*
X0078199Y0109354D02*
X0076782Y0109354D01*
X0083103Y0112350D02*
X0105203Y0112350D01*
X0104454Y0113348D02*
X0084101Y0113348D01*
X0085100Y0114347D02*
X0104206Y0114347D01*
X0104327Y0115345D02*
X0086098Y0115345D01*
X0087097Y0116344D02*
X0104897Y0116344D01*
X0106991Y0114500D02*
X0109991Y0117500D01*
X0111413Y0118341D02*
X0122043Y0118341D01*
X0121921Y0118219D02*
X0121191Y0116455D01*
X0121191Y0114545D01*
X0121921Y0112781D01*
X0123272Y0111431D01*
X0125036Y0110700D01*
X0126945Y0110700D01*
X0128710Y0111431D01*
X0130060Y0112781D01*
X0130791Y0114545D01*
X0130791Y0116455D01*
X0130060Y0118219D01*
X0128710Y0119569D01*
X0126945Y0120300D01*
X0125036Y0120300D01*
X0123272Y0119569D01*
X0121921Y0118219D01*
X0121558Y0117342D02*
X0112411Y0117342D01*
X0113410Y0116344D02*
X0121191Y0116344D01*
X0121191Y0115345D02*
X0113591Y0115345D01*
X0113591Y0114347D02*
X0121273Y0114347D01*
X0121686Y0113348D02*
X0113591Y0113348D01*
X0113591Y0112350D02*
X0122353Y0112350D01*
X0123464Y0111351D02*
X0113591Y0111351D01*
X0113591Y0110353D02*
X0140991Y0110353D01*
X0140991Y0111351D02*
X0128517Y0111351D01*
X0129628Y0112350D02*
X0140991Y0112350D01*
X0140991Y0113348D02*
X0130295Y0113348D01*
X0130708Y0114347D02*
X0140991Y0114347D01*
X0140991Y0115345D02*
X0130791Y0115345D01*
X0130791Y0116344D02*
X0140991Y0116344D01*
X0140991Y0117342D02*
X0130423Y0117342D01*
X0129938Y0118341D02*
X0140991Y0118341D01*
X0140991Y0119339D02*
X0128940Y0119339D01*
X0123042Y0119339D02*
X0110414Y0119339D01*
X0109416Y0120338D02*
X0140991Y0120338D01*
X0140991Y0121336D02*
X0108417Y0121336D01*
X0107419Y0122335D02*
X0140991Y0122335D01*
X0140991Y0123333D02*
X0106420Y0123333D01*
X0105421Y0124332D02*
X0140991Y0124332D01*
X0140991Y0125330D02*
X0128467Y0125330D01*
X0128710Y0125431D02*
X0130060Y0126781D01*
X0130791Y0128545D01*
X0130791Y0130455D01*
X0130060Y0132219D01*
X0128710Y0133569D01*
X0126945Y0134300D01*
X0125036Y0134300D01*
X0123272Y0133569D01*
X0121921Y0132219D01*
X0121191Y0130455D01*
X0121191Y0128545D01*
X0121921Y0126781D01*
X0123272Y0125431D01*
X0125036Y0124700D01*
X0126945Y0124700D01*
X0128710Y0125431D01*
X0129608Y0126329D02*
X0140991Y0126329D01*
X0140991Y0127327D02*
X0130286Y0127327D01*
X0130700Y0128326D02*
X0140991Y0128326D01*
X0140991Y0129324D02*
X0130791Y0129324D01*
X0130791Y0130323D02*
X0140991Y0130323D01*
X0140991Y0131321D02*
X0130432Y0131321D01*
X0129959Y0132320D02*
X0140991Y0132320D01*
X0140991Y0133318D02*
X0128960Y0133318D01*
X0128431Y0135315D02*
X0140991Y0135315D01*
X0140991Y0134317D02*
X0103525Y0134317D01*
X0103614Y0134406D02*
X0104053Y0135010D01*
X0104393Y0135677D01*
X0104624Y0136388D01*
X0104741Y0137126D01*
X0104741Y0137311D01*
X0100180Y0137311D01*
X0100180Y0132750D01*
X0100364Y0132750D01*
X0101103Y0132867D01*
X0101814Y0133098D01*
X0102480Y0133437D01*
X0103085Y0133877D01*
X0103614Y0134406D01*
X0104208Y0135315D02*
X0113550Y0135315D01*
X0112388Y0136314D02*
X0104600Y0136314D01*
X0104671Y0138311D02*
X0105493Y0138311D01*
X0104494Y0139309D02*
X0104397Y0139309D01*
X0100180Y0137312D02*
X0111701Y0137312D01*
X0113272Y0133569D02*
X0111921Y0132219D01*
X0111191Y0130455D01*
X0111191Y0128545D01*
X0111921Y0126781D01*
X0113272Y0125431D01*
X0115036Y0124700D01*
X0116945Y0124700D01*
X0118710Y0125431D01*
X0120060Y0126781D01*
X0120791Y0128545D01*
X0120791Y0130455D01*
X0120060Y0132219D01*
X0118710Y0133569D01*
X0116945Y0134300D01*
X0115036Y0134300D01*
X0113272Y0133569D01*
X0113021Y0133318D02*
X0102246Y0133318D01*
X0100180Y0133318D02*
X0099802Y0133318D01*
X0099802Y0134317D02*
X0100180Y0134317D01*
X0100180Y0135315D02*
X0099802Y0135315D01*
X0099802Y0136314D02*
X0100180Y0136314D01*
X0099801Y0137312D02*
X0094341Y0137312D01*
X0094341Y0136314D02*
X0095381Y0136314D01*
X0095773Y0135315D02*
X0094438Y0135315D01*
X0095436Y0134317D02*
X0096456Y0134317D01*
X0096435Y0133318D02*
X0097735Y0133318D01*
X0097433Y0132320D02*
X0112022Y0132320D01*
X0111550Y0131321D02*
X0098432Y0131321D01*
X0099430Y0130323D02*
X0111191Y0130323D01*
X0111191Y0129324D02*
X0100429Y0129324D01*
X0101427Y0128326D02*
X0111281Y0128326D01*
X0111695Y0127327D02*
X0102426Y0127327D01*
X0103424Y0126329D02*
X0112374Y0126329D01*
X0113514Y0125330D02*
X0104423Y0125330D01*
X0101895Y0123333D02*
X0091591Y0123333D01*
X0091591Y0122335D02*
X0102893Y0122335D01*
X0103892Y0121336D02*
X0091591Y0121336D01*
X0091091Y0120338D02*
X0104890Y0120338D01*
X0105889Y0119339D02*
X0090093Y0119339D01*
X0089094Y0118341D02*
X0106887Y0118341D01*
X0107570Y0117342D02*
X0088095Y0117342D01*
X0085567Y0119339D02*
X0065414Y0119339D01*
X0066413Y0118341D02*
X0084569Y0118341D01*
X0083570Y0117342D02*
X0067411Y0117342D01*
X0068410Y0116344D02*
X0082572Y0116344D01*
X0081573Y0115345D02*
X0069408Y0115345D01*
X0064416Y0120338D02*
X0086566Y0120338D01*
X0087564Y0121336D02*
X0063417Y0121336D01*
X0064763Y0122335D02*
X0088391Y0122335D01*
X0088391Y0123333D02*
X0065521Y0123333D01*
X0065775Y0124332D02*
X0088391Y0124332D01*
X0088391Y0125330D02*
X0065660Y0125330D01*
X0065099Y0126329D02*
X0088391Y0126329D01*
X0088391Y0127327D02*
X0062891Y0127327D01*
X0062891Y0128326D02*
X0088391Y0128326D01*
X0088391Y0129324D02*
X0062891Y0129324D01*
X0062891Y0130323D02*
X0088391Y0130323D01*
X0088391Y0131321D02*
X0062891Y0131321D01*
X0062891Y0132320D02*
X0088391Y0132320D01*
X0086117Y0133318D02*
X0062891Y0133318D01*
X0062891Y0134317D02*
X0085641Y0134317D01*
X0085641Y0135315D02*
X0062891Y0135315D01*
X0062891Y0136314D02*
X0085641Y0136314D01*
X0085641Y0137312D02*
X0062891Y0137312D01*
X0062891Y0138311D02*
X0085641Y0138311D01*
X0085641Y0139309D02*
X0062891Y0139309D01*
X0062891Y0140308D02*
X0085641Y0140308D01*
X0085741Y0141306D02*
X0062891Y0141306D01*
X0062891Y0142305D02*
X0092109Y0142305D01*
X0093107Y0143303D02*
X0062891Y0143303D01*
X0062891Y0144302D02*
X0094106Y0144302D01*
X0095104Y0145301D02*
X0062891Y0145301D01*
X0062891Y0146299D02*
X0111889Y0146299D01*
X0112024Y0146112D02*
X0112603Y0145534D01*
X0113265Y0145053D01*
X0113994Y0144681D01*
X0114773Y0144428D01*
X0115491Y0144314D01*
X0115491Y0149000D01*
X0116491Y0149000D01*
X0116491Y0150000D01*
X0120805Y0150000D01*
X0125490Y0150000D01*
X0125490Y0149000D01*
X0116491Y0149000D01*
X0116491Y0144314D01*
X0117208Y0144428D01*
X0117987Y0144681D01*
X0118716Y0145053D01*
X0119378Y0145534D01*
X0119957Y0146112D01*
X0120438Y0146775D01*
X0120810Y0147504D01*
X0120991Y0148061D01*
X0121172Y0147504D01*
X0121543Y0146775D01*
X0122024Y0146112D01*
X0122603Y0145534D01*
X0123265Y0145053D01*
X0123994Y0144681D01*
X0124773Y0144428D01*
X0125491Y0144314D01*
X0125491Y0149000D01*
X0126491Y0149000D01*
X0126491Y0150000D01*
X0131176Y0150000D01*
X0131062Y0150718D01*
X0130810Y0151496D01*
X0130438Y0152225D01*
X0129957Y0152888D01*
X0129378Y0153466D01*
X0128716Y0153947D01*
X0127987Y0154319D01*
X0127208Y0154572D01*
X0126491Y0154686D01*
X0126491Y0150000D01*
X0125491Y0150000D01*
X0125491Y0154686D01*
X0124773Y0154572D01*
X0123994Y0154319D01*
X0123265Y0153947D01*
X0122603Y0153466D01*
X0122024Y0152888D01*
X0121543Y0152225D01*
X0121172Y0151496D01*
X0120991Y0150939D01*
X0120810Y0151496D01*
X0120438Y0152225D01*
X0119957Y0152888D01*
X0119378Y0153466D01*
X0118716Y0153947D01*
X0117987Y0154319D01*
X0117208Y0154572D01*
X0116491Y0154686D01*
X0116491Y0150000D01*
X0115491Y0150000D01*
X0115491Y0154686D01*
X0114773Y0154572D01*
X0113994Y0154319D01*
X0113265Y0153947D01*
X0112603Y0153466D01*
X0112024Y0152888D01*
X0111543Y0152225D01*
X0111172Y0151496D01*
X0110919Y0150718D01*
X0110805Y0150000D01*
X0115490Y0150000D01*
X0115490Y0149000D01*
X0110805Y0149000D01*
X0110919Y0148282D01*
X0111172Y0147504D01*
X0111543Y0146775D01*
X0112024Y0146112D01*
X0112924Y0145301D02*
X0103877Y0145301D01*
X0104876Y0144302D02*
X0140991Y0144302D01*
X0140991Y0143303D02*
X0128975Y0143303D01*
X0129974Y0142305D02*
X0140991Y0142305D01*
X0140991Y0141306D02*
X0130438Y0141306D01*
X0130791Y0140308D02*
X0140991Y0140308D01*
X0140991Y0139309D02*
X0130791Y0139309D01*
X0130693Y0138311D02*
X0140991Y0138311D01*
X0140991Y0137312D02*
X0130280Y0137312D01*
X0129593Y0136314D02*
X0140991Y0136314D01*
X0127987Y0144681D02*
X0127208Y0144428D01*
X0126491Y0144314D01*
X0126491Y0149000D01*
X0131176Y0149000D01*
X0131062Y0148282D01*
X0130810Y0147504D01*
X0130438Y0146775D01*
X0129957Y0146112D01*
X0129378Y0145534D01*
X0128716Y0145053D01*
X0127987Y0144681D01*
X0129057Y0145301D02*
X0140991Y0145301D01*
X0140991Y0146299D02*
X0130092Y0146299D01*
X0130704Y0147298D02*
X0140991Y0147298D01*
X0140991Y0148296D02*
X0131065Y0148296D01*
X0131130Y0150293D02*
X0140991Y0150293D01*
X0140991Y0149295D02*
X0126491Y0149295D01*
X0126491Y0150293D02*
X0125491Y0150293D01*
X0125490Y0149295D02*
X0116491Y0149295D01*
X0116491Y0150293D02*
X0115491Y0150293D01*
X0115490Y0149295D02*
X0062891Y0149295D01*
X0062891Y0148296D02*
X0110916Y0148296D01*
X0111277Y0147298D02*
X0062891Y0147298D01*
X0063471Y0150293D02*
X0110851Y0150293D01*
X0111105Y0151292D02*
X0064469Y0151292D01*
X0065468Y0152290D02*
X0111590Y0152290D01*
X0112425Y0153289D02*
X0066466Y0153289D01*
X0067465Y0154287D02*
X0113932Y0154287D01*
X0115491Y0154287D02*
X0116491Y0154287D01*
X0116491Y0153289D02*
X0115491Y0153289D01*
X0115491Y0152290D02*
X0116491Y0152290D01*
X0116491Y0151292D02*
X0115491Y0151292D01*
X0115491Y0148296D02*
X0116491Y0148296D01*
X0116491Y0147298D02*
X0115491Y0147298D01*
X0115491Y0146299D02*
X0116491Y0146299D01*
X0116491Y0145301D02*
X0115491Y0145301D01*
X0113006Y0143303D02*
X0105874Y0143303D01*
X0106873Y0142305D02*
X0112007Y0142305D01*
X0118975Y0143303D02*
X0123006Y0143303D01*
X0122007Y0142305D02*
X0119974Y0142305D01*
X0119057Y0145301D02*
X0122924Y0145301D01*
X0121889Y0146299D02*
X0120092Y0146299D01*
X0120704Y0147298D02*
X0121277Y0147298D01*
X0121105Y0151292D02*
X0120876Y0151292D01*
X0120391Y0152290D02*
X0121590Y0152290D01*
X0122425Y0153289D02*
X0119556Y0153289D01*
X0118049Y0154287D02*
X0123932Y0154287D01*
X0125491Y0154287D02*
X0126491Y0154287D01*
X0126491Y0153289D02*
X0125491Y0153289D01*
X0125491Y0152290D02*
X0126491Y0152290D01*
X0126491Y0151292D02*
X0125491Y0151292D01*
X0125491Y0148296D02*
X0126491Y0148296D01*
X0126491Y0147298D02*
X0125491Y0147298D01*
X0125491Y0146299D02*
X0126491Y0146299D01*
X0126491Y0145301D02*
X0125491Y0145301D01*
X0130876Y0151292D02*
X0140991Y0151292D01*
X0140991Y0152290D02*
X0130391Y0152290D01*
X0129556Y0153289D02*
X0140991Y0153289D01*
X0140991Y0154287D02*
X0128049Y0154287D01*
X0140991Y0155286D02*
X0068463Y0155286D01*
X0069462Y0156284D02*
X0140991Y0156284D01*
X0140991Y0157283D02*
X0071711Y0157283D01*
X0072499Y0158281D02*
X0140991Y0158281D01*
X0140991Y0159280D02*
X0082708Y0159280D01*
X0082568Y0159140D02*
X0083351Y0159923D01*
X0083775Y0160946D01*
X0083775Y0162054D01*
X0083351Y0163077D01*
X0082568Y0163860D01*
X0081544Y0164284D01*
X0080469Y0164284D01*
X0077653Y0167100D01*
X0048328Y0167100D01*
X0047391Y0166163D01*
X0045391Y0164163D01*
X0045391Y0163838D01*
X0044630Y0163077D01*
X0044206Y0162054D01*
X0044206Y0160946D01*
X0044630Y0159923D01*
X0045413Y0159140D01*
X0046437Y0158716D01*
X0047544Y0158716D01*
X0048568Y0159140D01*
X0049351Y0159923D01*
X0049775Y0160946D01*
X0049775Y0162054D01*
X0049351Y0163077D01*
X0049091Y0163337D01*
X0049653Y0163900D01*
X0076328Y0163900D01*
X0078206Y0162022D01*
X0078206Y0160946D01*
X0078630Y0159923D01*
X0079413Y0159140D01*
X0080437Y0158716D01*
X0081544Y0158716D01*
X0082568Y0159140D01*
X0083498Y0160278D02*
X0140991Y0160278D01*
X0140991Y0161277D02*
X0083775Y0161277D01*
X0083683Y0162275D02*
X0140991Y0162275D01*
X0140991Y0163274D02*
X0083154Y0163274D01*
X0081573Y0164272D02*
X0140991Y0164272D01*
X0140991Y0165271D02*
X0079483Y0165271D01*
X0078484Y0166269D02*
X0140991Y0166269D01*
X0140991Y0167268D02*
X0025083Y0167268D01*
X0026081Y0166269D02*
X0047497Y0166269D01*
X0047391Y0166163D02*
X0047391Y0166163D01*
X0046499Y0165271D02*
X0026845Y0165271D01*
X0027259Y0164272D02*
X0045500Y0164272D01*
X0044827Y0163274D02*
X0027672Y0163274D01*
X0027701Y0162275D02*
X0044298Y0162275D01*
X0044206Y0161277D02*
X0027701Y0161277D01*
X0027594Y0160278D02*
X0044483Y0160278D01*
X0045273Y0159280D02*
X0027181Y0159280D01*
X0026767Y0158281D02*
X0066085Y0158281D01*
X0067083Y0159280D02*
X0048708Y0159280D01*
X0049498Y0160278D02*
X0067299Y0160278D01*
X0067830Y0161277D02*
X0049775Y0161277D01*
X0049683Y0162275D02*
X0069415Y0162275D01*
X0070566Y0162275D02*
X0077953Y0162275D01*
X0078206Y0161277D02*
X0072151Y0161277D01*
X0072682Y0160278D02*
X0078483Y0160278D01*
X0079273Y0159280D02*
X0072775Y0159280D01*
X0076954Y0163274D02*
X0049154Y0163274D01*
X0046991Y0163500D02*
X0048991Y0165500D01*
X0076991Y0165500D01*
X0080991Y0161500D01*
X0065086Y0157283D02*
X0025893Y0157283D01*
X0019352Y0155286D02*
X0014991Y0155286D01*
X0014991Y0156284D02*
X0017087Y0156284D01*
X0016088Y0157283D02*
X0014991Y0157283D01*
X0014991Y0158281D02*
X0015214Y0158281D01*
X0015136Y0165271D02*
X0014991Y0165271D01*
X0014991Y0166269D02*
X0015900Y0166269D01*
X0014991Y0167268D02*
X0016899Y0167268D01*
X0014991Y0168266D02*
X0018898Y0168266D01*
X0014991Y0169265D02*
X0098137Y0169265D01*
X0098220Y0169182D02*
X0098774Y0168780D01*
X0099384Y0168469D01*
X0100035Y0168257D01*
X0100711Y0168150D01*
X0100865Y0168150D01*
X0100865Y0172311D01*
X0101243Y0172311D01*
X0101243Y0168150D01*
X0101396Y0168150D01*
X0102072Y0168257D01*
X0102723Y0168469D01*
X0103333Y0168780D01*
X0103887Y0169182D01*
X0104372Y0169666D01*
X0104774Y0170220D01*
X0105085Y0170830D01*
X0105199Y0171181D01*
X0105579Y0170263D01*
X0104796Y0170263D01*
X0105579Y0170263D02*
X0106690Y0169151D01*
X0108142Y0168550D01*
X0109713Y0168550D01*
X0111165Y0169151D01*
X0112276Y0170263D01*
X0112878Y0171714D01*
X0112878Y0173286D01*
X0112276Y0174737D01*
X0111165Y0175849D01*
X0109713Y0176450D01*
X0108142Y0176450D01*
X0106690Y0175849D01*
X0105579Y0174737D01*
X0105199Y0173819D01*
X0105085Y0174170D01*
X0104774Y0174780D01*
X0104372Y0175334D01*
X0103887Y0175818D01*
X0103333Y0176220D01*
X0102723Y0176531D01*
X0102072Y0176743D01*
X0101396Y0176850D01*
X0101243Y0176850D01*
X0101243Y0172689D01*
X0100865Y0172689D01*
X0100865Y0176850D01*
X0100711Y0176850D01*
X0100035Y0176743D01*
X0099384Y0176531D01*
X0098774Y0176220D01*
X0098220Y0175818D01*
X0097736Y0175334D01*
X0097333Y0174780D01*
X0097022Y0174170D01*
X0096811Y0173519D01*
X0096704Y0172842D01*
X0096704Y0172689D01*
X0100864Y0172689D01*
X0100864Y0172311D01*
X0096704Y0172311D01*
X0096704Y0172158D01*
X0096811Y0171481D01*
X0097022Y0170830D01*
X0097333Y0170220D01*
X0097736Y0169666D01*
X0098220Y0169182D01*
X0097311Y0170263D02*
X0014991Y0170263D01*
X0014991Y0171262D02*
X0096882Y0171262D01*
X0096704Y0172260D02*
X0014991Y0172260D01*
X0014991Y0173259D02*
X0096770Y0173259D01*
X0097067Y0174257D02*
X0014991Y0174257D01*
X0014991Y0175256D02*
X0097679Y0175256D01*
X0098840Y0176254D02*
X0014991Y0176254D01*
X0014991Y0177253D02*
X0140991Y0177253D01*
X0140991Y0178251D02*
X0014991Y0178251D01*
X0014991Y0179250D02*
X0140991Y0179250D01*
X0140991Y0180248D02*
X0014991Y0180248D01*
X0014991Y0181247D02*
X0140991Y0181247D01*
X0140991Y0182245D02*
X0014991Y0182245D01*
X0014991Y0183244D02*
X0140991Y0183244D01*
X0140991Y0184242D02*
X0014991Y0184242D01*
X0014991Y0185241D02*
X0140991Y0185241D01*
X0140991Y0186239D02*
X0014991Y0186239D01*
X0014991Y0187238D02*
X0140991Y0187238D01*
X0140991Y0188237D02*
X0014991Y0188237D01*
X0014991Y0189235D02*
X0140991Y0189235D01*
X0140991Y0190234D02*
X0014991Y0190234D01*
X0014991Y0191232D02*
X0140991Y0191232D01*
X0140991Y0192231D02*
X0014991Y0192231D01*
X0014991Y0193229D02*
X0140991Y0193229D01*
X0140991Y0194228D02*
X0014991Y0194228D01*
X0023083Y0168266D02*
X0100007Y0168266D01*
X0100865Y0168266D02*
X0101243Y0168266D01*
X0102100Y0168266D02*
X0140991Y0168266D01*
X0140991Y0169265D02*
X0111278Y0169265D01*
X0112277Y0170263D02*
X0140991Y0170263D01*
X0140991Y0171262D02*
X0112690Y0171262D01*
X0112878Y0172260D02*
X0140991Y0172260D01*
X0140991Y0173259D02*
X0112878Y0173259D01*
X0112475Y0174257D02*
X0140991Y0174257D01*
X0140991Y0175256D02*
X0111758Y0175256D01*
X0110186Y0176254D02*
X0140991Y0176254D01*
X0107670Y0176254D02*
X0103267Y0176254D01*
X0104428Y0175256D02*
X0106097Y0175256D01*
X0105380Y0174257D02*
X0105040Y0174257D01*
X0101243Y0174257D02*
X0100865Y0174257D01*
X0100865Y0173259D02*
X0101243Y0173259D01*
X0101243Y0172260D02*
X0100865Y0172260D01*
X0100865Y0171262D02*
X0101243Y0171262D01*
X0101243Y0170263D02*
X0100865Y0170263D01*
X0100865Y0169265D02*
X0101243Y0169265D01*
X0103970Y0169265D02*
X0106577Y0169265D01*
X0101243Y0175256D02*
X0100865Y0175256D01*
X0100865Y0176254D02*
X0101243Y0176254D01*
X0046991Y0163500D02*
X0046991Y0161500D01*
X0045308Y0147298D02*
X0044531Y0147298D01*
X0044319Y0146299D02*
X0046307Y0146299D01*
X0047305Y0145301D02*
X0043766Y0145301D01*
X0043380Y0144302D02*
X0048304Y0144302D01*
X0049302Y0143303D02*
X0044309Y0143303D01*
X0044788Y0142305D02*
X0050301Y0142305D01*
X0051299Y0141306D02*
X0041357Y0141306D01*
X0041357Y0140913D02*
X0044931Y0140913D01*
X0044931Y0140820D01*
X0044783Y0140074D01*
X0044492Y0139371D01*
X0044069Y0138739D01*
X0043531Y0138201D01*
X0042899Y0137778D01*
X0042196Y0137487D01*
X0041450Y0137339D01*
X0041357Y0137339D01*
X0041357Y0140913D01*
X0040782Y0140913D02*
X0037207Y0140913D01*
X0037207Y0140820D01*
X0037275Y0140478D01*
X0036865Y0140888D01*
X0037034Y0140888D01*
X0038306Y0141415D01*
X0038379Y0141488D01*
X0040782Y0141488D01*
X0040782Y0140913D01*
X0040782Y0141306D02*
X0038043Y0141306D01*
X0040782Y0140308D02*
X0041357Y0140308D01*
X0041357Y0139309D02*
X0040782Y0139309D01*
X0040782Y0138311D02*
X0041357Y0138311D01*
X0040441Y0137312D02*
X0055293Y0137312D01*
X0054295Y0138311D02*
X0043641Y0138311D01*
X0044451Y0139309D02*
X0053296Y0139309D01*
X0052298Y0140308D02*
X0044830Y0140308D01*
X0091591Y0132320D02*
X0092908Y0132320D01*
X0093906Y0131321D02*
X0091591Y0131321D01*
X0091591Y0130323D02*
X0094905Y0130323D01*
X0095903Y0129324D02*
X0091591Y0129324D01*
X0091591Y0128326D02*
X0096902Y0128326D01*
X0097900Y0127327D02*
X0091591Y0127327D01*
X0091591Y0126329D02*
X0098899Y0126329D01*
X0099898Y0125330D02*
X0091591Y0125330D01*
X0091591Y0124332D02*
X0100896Y0124332D01*
X0111991Y0115500D02*
X0111991Y0093500D01*
X0123991Y0081500D01*
X0126547Y0080397D02*
X0140991Y0080397D01*
X0140991Y0079399D02*
X0125827Y0079399D01*
X0126775Y0081396D02*
X0140991Y0081396D01*
X0140991Y0082394D02*
X0126634Y0082394D01*
X0126035Y0083393D02*
X0140991Y0083393D01*
X0140991Y0084391D02*
X0123362Y0084391D01*
X0122363Y0085390D02*
X0140991Y0085390D01*
X0140991Y0086388D02*
X0121365Y0086388D01*
X0120366Y0087387D02*
X0140991Y0087387D01*
X0140991Y0088385D02*
X0119368Y0088385D01*
X0118369Y0089384D02*
X0140991Y0089384D01*
X0140991Y0090382D02*
X0117371Y0090382D01*
X0116372Y0091381D02*
X0140991Y0091381D01*
X0140991Y0092379D02*
X0115374Y0092379D01*
X0114375Y0093378D02*
X0140991Y0093378D01*
X0140991Y0094376D02*
X0113591Y0094376D01*
X0113591Y0095375D02*
X0140991Y0095375D01*
X0140991Y0096373D02*
X0113591Y0096373D01*
X0113591Y0097372D02*
X0140991Y0097372D01*
X0140991Y0098370D02*
X0113591Y0098370D01*
X0113591Y0099369D02*
X0140991Y0099369D01*
X0140991Y0100368D02*
X0113591Y0100368D01*
X0113591Y0101366D02*
X0123428Y0101366D01*
X0123272Y0101431D02*
X0125036Y0100700D01*
X0126945Y0100700D01*
X0128710Y0101431D01*
X0130060Y0102781D01*
X0130791Y0104545D01*
X0130791Y0106455D01*
X0130060Y0108219D01*
X0128710Y0109569D01*
X0126945Y0110300D01*
X0125036Y0110300D01*
X0123272Y0109569D01*
X0121921Y0108219D01*
X0121191Y0106455D01*
X0121191Y0104545D01*
X0121921Y0102781D01*
X0123272Y0101431D01*
X0122338Y0102365D02*
X0113591Y0102365D01*
X0113591Y0103363D02*
X0121680Y0103363D01*
X0121267Y0104362D02*
X0113591Y0104362D01*
X0113591Y0105360D02*
X0121191Y0105360D01*
X0121191Y0106359D02*
X0113591Y0106359D01*
X0113591Y0107357D02*
X0121564Y0107357D01*
X0122058Y0108356D02*
X0113591Y0108356D01*
X0113591Y0109354D02*
X0123056Y0109354D01*
X0128925Y0109354D02*
X0140991Y0109354D01*
X0140991Y0108356D02*
X0129923Y0108356D01*
X0130417Y0107357D02*
X0140991Y0107357D01*
X0140991Y0106359D02*
X0130791Y0106359D01*
X0130791Y0105360D02*
X0140991Y0105360D01*
X0140991Y0104362D02*
X0130714Y0104362D01*
X0130301Y0103363D02*
X0140991Y0103363D01*
X0140991Y0102365D02*
X0129643Y0102365D01*
X0128553Y0101366D02*
X0140991Y0101366D01*
X0123514Y0125330D02*
X0118467Y0125330D01*
X0119608Y0126329D02*
X0122374Y0126329D01*
X0121695Y0127327D02*
X0120286Y0127327D01*
X0120700Y0128326D02*
X0121281Y0128326D01*
X0121191Y0129324D02*
X0120791Y0129324D01*
X0120791Y0130323D02*
X0121191Y0130323D01*
X0121550Y0131321D02*
X0120432Y0131321D01*
X0119959Y0132320D02*
X0122022Y0132320D01*
X0123021Y0133318D02*
X0118960Y0133318D01*
X0118431Y0135315D02*
X0123550Y0135315D01*
X0122388Y0136314D02*
X0119593Y0136314D01*
X0120280Y0137312D02*
X0121701Y0137312D01*
X0097149Y0141306D02*
X0096484Y0141306D01*
X0096159Y0140308D02*
X0095486Y0140308D01*
X0095584Y0139309D02*
X0094487Y0139309D01*
X0094341Y0138311D02*
X0095310Y0138311D01*
X0072598Y0037461D02*
X0068817Y0037461D01*
X0069816Y0036463D02*
X0071599Y0036463D01*
X0070791Y0035464D02*
X0070791Y0035464D01*
X0070791Y0034466D02*
X0070791Y0034466D01*
X0024469Y0036463D02*
X0019669Y0036463D01*
X0020668Y0035464D02*
X0023471Y0035464D01*
X0022953Y0034466D02*
X0021186Y0034466D01*
X0021510Y0033467D02*
X0022628Y0033467D01*
X0022628Y0032469D02*
X0021510Y0032469D01*
X0021313Y0031470D02*
X0022826Y0031470D01*
X0023240Y0030472D02*
X0020899Y0030472D01*
X0019975Y0029473D02*
X0024163Y0029473D01*
D21*
X0062991Y0124500D02*
X0060991Y0126500D01*
X0060991Y0150500D01*
X0069991Y0159500D01*
X0089991Y0137500D02*
X0095991Y0143500D01*
X0102991Y0143500D01*
X0106991Y0139500D01*
X0115991Y0139500D01*
X0125991Y0139500D01*
X0089991Y0137500D02*
X0088491Y0136000D01*
M02*
