G75*
%MOIN*%
%OFA0B0*%
%FSLAX25Y25*%
%IPPOS*%
%LPD*%
%AMOC8*
5,1,8,0,0,1.08239X$1,22.5*
%
%ADD10C,0.00098*%
%ADD11C,0.00000*%
D10*
X0006700Y0014800D02*
X0006700Y0189800D01*
X0131700Y0189800D01*
X0231700Y0189800D02*
X0356700Y0189800D01*
X0356700Y0014800D01*
X0231700Y0014800D01*
X0131700Y0014800D02*
X0006700Y0014800D01*
X0023700Y0030250D02*
X0023702Y0030446D01*
X0023710Y0030643D01*
X0023722Y0030839D01*
X0023739Y0031034D01*
X0023760Y0031229D01*
X0023787Y0031424D01*
X0023818Y0031618D01*
X0023854Y0031811D01*
X0023894Y0032003D01*
X0023940Y0032194D01*
X0023990Y0032384D01*
X0024044Y0032572D01*
X0024104Y0032759D01*
X0024168Y0032945D01*
X0024236Y0033129D01*
X0024309Y0033311D01*
X0024386Y0033492D01*
X0024468Y0033670D01*
X0024554Y0033847D01*
X0024645Y0034021D01*
X0024739Y0034193D01*
X0024838Y0034363D01*
X0024941Y0034530D01*
X0025048Y0034695D01*
X0025159Y0034856D01*
X0025274Y0035016D01*
X0025393Y0035172D01*
X0025516Y0035325D01*
X0025642Y0035475D01*
X0025772Y0035622D01*
X0025906Y0035766D01*
X0026043Y0035907D01*
X0026184Y0036044D01*
X0026328Y0036178D01*
X0026475Y0036308D01*
X0026625Y0036434D01*
X0026778Y0036557D01*
X0026934Y0036676D01*
X0027094Y0036791D01*
X0027255Y0036902D01*
X0027420Y0037009D01*
X0027587Y0037112D01*
X0027757Y0037211D01*
X0027929Y0037305D01*
X0028103Y0037396D01*
X0028280Y0037482D01*
X0028458Y0037564D01*
X0028639Y0037641D01*
X0028821Y0037714D01*
X0029005Y0037782D01*
X0029191Y0037846D01*
X0029378Y0037906D01*
X0029566Y0037960D01*
X0029756Y0038010D01*
X0029947Y0038056D01*
X0030139Y0038096D01*
X0030332Y0038132D01*
X0030526Y0038163D01*
X0030721Y0038190D01*
X0030916Y0038211D01*
X0031111Y0038228D01*
X0031307Y0038240D01*
X0031504Y0038248D01*
X0031700Y0038250D01*
X0031896Y0038248D01*
X0032093Y0038240D01*
X0032289Y0038228D01*
X0032484Y0038211D01*
X0032679Y0038190D01*
X0032874Y0038163D01*
X0033068Y0038132D01*
X0033261Y0038096D01*
X0033453Y0038056D01*
X0033644Y0038010D01*
X0033834Y0037960D01*
X0034022Y0037906D01*
X0034209Y0037846D01*
X0034395Y0037782D01*
X0034579Y0037714D01*
X0034761Y0037641D01*
X0034942Y0037564D01*
X0035120Y0037482D01*
X0035297Y0037396D01*
X0035471Y0037305D01*
X0035643Y0037211D01*
X0035813Y0037112D01*
X0035980Y0037009D01*
X0036145Y0036902D01*
X0036306Y0036791D01*
X0036466Y0036676D01*
X0036622Y0036557D01*
X0036775Y0036434D01*
X0036925Y0036308D01*
X0037072Y0036178D01*
X0037216Y0036044D01*
X0037357Y0035907D01*
X0037494Y0035766D01*
X0037628Y0035622D01*
X0037758Y0035475D01*
X0037884Y0035325D01*
X0038007Y0035172D01*
X0038126Y0035016D01*
X0038241Y0034856D01*
X0038352Y0034695D01*
X0038459Y0034530D01*
X0038562Y0034363D01*
X0038661Y0034193D01*
X0038755Y0034021D01*
X0038846Y0033847D01*
X0038932Y0033670D01*
X0039014Y0033492D01*
X0039091Y0033311D01*
X0039164Y0033129D01*
X0039232Y0032945D01*
X0039296Y0032759D01*
X0039356Y0032572D01*
X0039410Y0032384D01*
X0039460Y0032194D01*
X0039506Y0032003D01*
X0039546Y0031811D01*
X0039582Y0031618D01*
X0039613Y0031424D01*
X0039640Y0031229D01*
X0039661Y0031034D01*
X0039678Y0030839D01*
X0039690Y0030643D01*
X0039698Y0030446D01*
X0039700Y0030250D01*
X0039698Y0030054D01*
X0039690Y0029857D01*
X0039678Y0029661D01*
X0039661Y0029466D01*
X0039640Y0029271D01*
X0039613Y0029076D01*
X0039582Y0028882D01*
X0039546Y0028689D01*
X0039506Y0028497D01*
X0039460Y0028306D01*
X0039410Y0028116D01*
X0039356Y0027928D01*
X0039296Y0027741D01*
X0039232Y0027555D01*
X0039164Y0027371D01*
X0039091Y0027189D01*
X0039014Y0027008D01*
X0038932Y0026830D01*
X0038846Y0026653D01*
X0038755Y0026479D01*
X0038661Y0026307D01*
X0038562Y0026137D01*
X0038459Y0025970D01*
X0038352Y0025805D01*
X0038241Y0025644D01*
X0038126Y0025484D01*
X0038007Y0025328D01*
X0037884Y0025175D01*
X0037758Y0025025D01*
X0037628Y0024878D01*
X0037494Y0024734D01*
X0037357Y0024593D01*
X0037216Y0024456D01*
X0037072Y0024322D01*
X0036925Y0024192D01*
X0036775Y0024066D01*
X0036622Y0023943D01*
X0036466Y0023824D01*
X0036306Y0023709D01*
X0036145Y0023598D01*
X0035980Y0023491D01*
X0035813Y0023388D01*
X0035643Y0023289D01*
X0035471Y0023195D01*
X0035297Y0023104D01*
X0035120Y0023018D01*
X0034942Y0022936D01*
X0034761Y0022859D01*
X0034579Y0022786D01*
X0034395Y0022718D01*
X0034209Y0022654D01*
X0034022Y0022594D01*
X0033834Y0022540D01*
X0033644Y0022490D01*
X0033453Y0022444D01*
X0033261Y0022404D01*
X0033068Y0022368D01*
X0032874Y0022337D01*
X0032679Y0022310D01*
X0032484Y0022289D01*
X0032289Y0022272D01*
X0032093Y0022260D01*
X0031896Y0022252D01*
X0031700Y0022250D01*
X0031504Y0022252D01*
X0031307Y0022260D01*
X0031111Y0022272D01*
X0030916Y0022289D01*
X0030721Y0022310D01*
X0030526Y0022337D01*
X0030332Y0022368D01*
X0030139Y0022404D01*
X0029947Y0022444D01*
X0029756Y0022490D01*
X0029566Y0022540D01*
X0029378Y0022594D01*
X0029191Y0022654D01*
X0029005Y0022718D01*
X0028821Y0022786D01*
X0028639Y0022859D01*
X0028458Y0022936D01*
X0028280Y0023018D01*
X0028103Y0023104D01*
X0027929Y0023195D01*
X0027757Y0023289D01*
X0027587Y0023388D01*
X0027420Y0023491D01*
X0027255Y0023598D01*
X0027094Y0023709D01*
X0026934Y0023824D01*
X0026778Y0023943D01*
X0026625Y0024066D01*
X0026475Y0024192D01*
X0026328Y0024322D01*
X0026184Y0024456D01*
X0026043Y0024593D01*
X0025906Y0024734D01*
X0025772Y0024878D01*
X0025642Y0025025D01*
X0025516Y0025175D01*
X0025393Y0025328D01*
X0025274Y0025484D01*
X0025159Y0025644D01*
X0025048Y0025805D01*
X0024941Y0025970D01*
X0024838Y0026137D01*
X0024739Y0026307D01*
X0024645Y0026479D01*
X0024554Y0026653D01*
X0024468Y0026830D01*
X0024386Y0027008D01*
X0024309Y0027189D01*
X0024236Y0027371D01*
X0024168Y0027555D01*
X0024104Y0027741D01*
X0024044Y0027928D01*
X0023990Y0028116D01*
X0023940Y0028306D01*
X0023894Y0028497D01*
X0023854Y0028689D01*
X0023818Y0028882D01*
X0023787Y0029076D01*
X0023760Y0029271D01*
X0023739Y0029466D01*
X0023722Y0029661D01*
X0023710Y0029857D01*
X0023702Y0030054D01*
X0023700Y0030250D01*
X0023700Y0174350D02*
X0023702Y0174546D01*
X0023710Y0174743D01*
X0023722Y0174939D01*
X0023739Y0175134D01*
X0023760Y0175329D01*
X0023787Y0175524D01*
X0023818Y0175718D01*
X0023854Y0175911D01*
X0023894Y0176103D01*
X0023940Y0176294D01*
X0023990Y0176484D01*
X0024044Y0176672D01*
X0024104Y0176859D01*
X0024168Y0177045D01*
X0024236Y0177229D01*
X0024309Y0177411D01*
X0024386Y0177592D01*
X0024468Y0177770D01*
X0024554Y0177947D01*
X0024645Y0178121D01*
X0024739Y0178293D01*
X0024838Y0178463D01*
X0024941Y0178630D01*
X0025048Y0178795D01*
X0025159Y0178956D01*
X0025274Y0179116D01*
X0025393Y0179272D01*
X0025516Y0179425D01*
X0025642Y0179575D01*
X0025772Y0179722D01*
X0025906Y0179866D01*
X0026043Y0180007D01*
X0026184Y0180144D01*
X0026328Y0180278D01*
X0026475Y0180408D01*
X0026625Y0180534D01*
X0026778Y0180657D01*
X0026934Y0180776D01*
X0027094Y0180891D01*
X0027255Y0181002D01*
X0027420Y0181109D01*
X0027587Y0181212D01*
X0027757Y0181311D01*
X0027929Y0181405D01*
X0028103Y0181496D01*
X0028280Y0181582D01*
X0028458Y0181664D01*
X0028639Y0181741D01*
X0028821Y0181814D01*
X0029005Y0181882D01*
X0029191Y0181946D01*
X0029378Y0182006D01*
X0029566Y0182060D01*
X0029756Y0182110D01*
X0029947Y0182156D01*
X0030139Y0182196D01*
X0030332Y0182232D01*
X0030526Y0182263D01*
X0030721Y0182290D01*
X0030916Y0182311D01*
X0031111Y0182328D01*
X0031307Y0182340D01*
X0031504Y0182348D01*
X0031700Y0182350D01*
X0031896Y0182348D01*
X0032093Y0182340D01*
X0032289Y0182328D01*
X0032484Y0182311D01*
X0032679Y0182290D01*
X0032874Y0182263D01*
X0033068Y0182232D01*
X0033261Y0182196D01*
X0033453Y0182156D01*
X0033644Y0182110D01*
X0033834Y0182060D01*
X0034022Y0182006D01*
X0034209Y0181946D01*
X0034395Y0181882D01*
X0034579Y0181814D01*
X0034761Y0181741D01*
X0034942Y0181664D01*
X0035120Y0181582D01*
X0035297Y0181496D01*
X0035471Y0181405D01*
X0035643Y0181311D01*
X0035813Y0181212D01*
X0035980Y0181109D01*
X0036145Y0181002D01*
X0036306Y0180891D01*
X0036466Y0180776D01*
X0036622Y0180657D01*
X0036775Y0180534D01*
X0036925Y0180408D01*
X0037072Y0180278D01*
X0037216Y0180144D01*
X0037357Y0180007D01*
X0037494Y0179866D01*
X0037628Y0179722D01*
X0037758Y0179575D01*
X0037884Y0179425D01*
X0038007Y0179272D01*
X0038126Y0179116D01*
X0038241Y0178956D01*
X0038352Y0178795D01*
X0038459Y0178630D01*
X0038562Y0178463D01*
X0038661Y0178293D01*
X0038755Y0178121D01*
X0038846Y0177947D01*
X0038932Y0177770D01*
X0039014Y0177592D01*
X0039091Y0177411D01*
X0039164Y0177229D01*
X0039232Y0177045D01*
X0039296Y0176859D01*
X0039356Y0176672D01*
X0039410Y0176484D01*
X0039460Y0176294D01*
X0039506Y0176103D01*
X0039546Y0175911D01*
X0039582Y0175718D01*
X0039613Y0175524D01*
X0039640Y0175329D01*
X0039661Y0175134D01*
X0039678Y0174939D01*
X0039690Y0174743D01*
X0039698Y0174546D01*
X0039700Y0174350D01*
X0039698Y0174154D01*
X0039690Y0173957D01*
X0039678Y0173761D01*
X0039661Y0173566D01*
X0039640Y0173371D01*
X0039613Y0173176D01*
X0039582Y0172982D01*
X0039546Y0172789D01*
X0039506Y0172597D01*
X0039460Y0172406D01*
X0039410Y0172216D01*
X0039356Y0172028D01*
X0039296Y0171841D01*
X0039232Y0171655D01*
X0039164Y0171471D01*
X0039091Y0171289D01*
X0039014Y0171108D01*
X0038932Y0170930D01*
X0038846Y0170753D01*
X0038755Y0170579D01*
X0038661Y0170407D01*
X0038562Y0170237D01*
X0038459Y0170070D01*
X0038352Y0169905D01*
X0038241Y0169744D01*
X0038126Y0169584D01*
X0038007Y0169428D01*
X0037884Y0169275D01*
X0037758Y0169125D01*
X0037628Y0168978D01*
X0037494Y0168834D01*
X0037357Y0168693D01*
X0037216Y0168556D01*
X0037072Y0168422D01*
X0036925Y0168292D01*
X0036775Y0168166D01*
X0036622Y0168043D01*
X0036466Y0167924D01*
X0036306Y0167809D01*
X0036145Y0167698D01*
X0035980Y0167591D01*
X0035813Y0167488D01*
X0035643Y0167389D01*
X0035471Y0167295D01*
X0035297Y0167204D01*
X0035120Y0167118D01*
X0034942Y0167036D01*
X0034761Y0166959D01*
X0034579Y0166886D01*
X0034395Y0166818D01*
X0034209Y0166754D01*
X0034022Y0166694D01*
X0033834Y0166640D01*
X0033644Y0166590D01*
X0033453Y0166544D01*
X0033261Y0166504D01*
X0033068Y0166468D01*
X0032874Y0166437D01*
X0032679Y0166410D01*
X0032484Y0166389D01*
X0032289Y0166372D01*
X0032093Y0166360D01*
X0031896Y0166352D01*
X0031700Y0166350D01*
X0031504Y0166352D01*
X0031307Y0166360D01*
X0031111Y0166372D01*
X0030916Y0166389D01*
X0030721Y0166410D01*
X0030526Y0166437D01*
X0030332Y0166468D01*
X0030139Y0166504D01*
X0029947Y0166544D01*
X0029756Y0166590D01*
X0029566Y0166640D01*
X0029378Y0166694D01*
X0029191Y0166754D01*
X0029005Y0166818D01*
X0028821Y0166886D01*
X0028639Y0166959D01*
X0028458Y0167036D01*
X0028280Y0167118D01*
X0028103Y0167204D01*
X0027929Y0167295D01*
X0027757Y0167389D01*
X0027587Y0167488D01*
X0027420Y0167591D01*
X0027255Y0167698D01*
X0027094Y0167809D01*
X0026934Y0167924D01*
X0026778Y0168043D01*
X0026625Y0168166D01*
X0026475Y0168292D01*
X0026328Y0168422D01*
X0026184Y0168556D01*
X0026043Y0168693D01*
X0025906Y0168834D01*
X0025772Y0168978D01*
X0025642Y0169125D01*
X0025516Y0169275D01*
X0025393Y0169428D01*
X0025274Y0169584D01*
X0025159Y0169744D01*
X0025048Y0169905D01*
X0024941Y0170070D01*
X0024838Y0170237D01*
X0024739Y0170407D01*
X0024645Y0170579D01*
X0024554Y0170753D01*
X0024468Y0170930D01*
X0024386Y0171108D01*
X0024309Y0171289D01*
X0024236Y0171471D01*
X0024168Y0171655D01*
X0024104Y0171841D01*
X0024044Y0172028D01*
X0023990Y0172216D01*
X0023940Y0172406D01*
X0023894Y0172597D01*
X0023854Y0172789D01*
X0023818Y0172982D01*
X0023787Y0173176D01*
X0023760Y0173371D01*
X0023739Y0173566D01*
X0023722Y0173761D01*
X0023710Y0173957D01*
X0023702Y0174154D01*
X0023700Y0174350D01*
X0323700Y0174350D02*
X0323702Y0174546D01*
X0323710Y0174743D01*
X0323722Y0174939D01*
X0323739Y0175134D01*
X0323760Y0175329D01*
X0323787Y0175524D01*
X0323818Y0175718D01*
X0323854Y0175911D01*
X0323894Y0176103D01*
X0323940Y0176294D01*
X0323990Y0176484D01*
X0324044Y0176672D01*
X0324104Y0176859D01*
X0324168Y0177045D01*
X0324236Y0177229D01*
X0324309Y0177411D01*
X0324386Y0177592D01*
X0324468Y0177770D01*
X0324554Y0177947D01*
X0324645Y0178121D01*
X0324739Y0178293D01*
X0324838Y0178463D01*
X0324941Y0178630D01*
X0325048Y0178795D01*
X0325159Y0178956D01*
X0325274Y0179116D01*
X0325393Y0179272D01*
X0325516Y0179425D01*
X0325642Y0179575D01*
X0325772Y0179722D01*
X0325906Y0179866D01*
X0326043Y0180007D01*
X0326184Y0180144D01*
X0326328Y0180278D01*
X0326475Y0180408D01*
X0326625Y0180534D01*
X0326778Y0180657D01*
X0326934Y0180776D01*
X0327094Y0180891D01*
X0327255Y0181002D01*
X0327420Y0181109D01*
X0327587Y0181212D01*
X0327757Y0181311D01*
X0327929Y0181405D01*
X0328103Y0181496D01*
X0328280Y0181582D01*
X0328458Y0181664D01*
X0328639Y0181741D01*
X0328821Y0181814D01*
X0329005Y0181882D01*
X0329191Y0181946D01*
X0329378Y0182006D01*
X0329566Y0182060D01*
X0329756Y0182110D01*
X0329947Y0182156D01*
X0330139Y0182196D01*
X0330332Y0182232D01*
X0330526Y0182263D01*
X0330721Y0182290D01*
X0330916Y0182311D01*
X0331111Y0182328D01*
X0331307Y0182340D01*
X0331504Y0182348D01*
X0331700Y0182350D01*
X0331896Y0182348D01*
X0332093Y0182340D01*
X0332289Y0182328D01*
X0332484Y0182311D01*
X0332679Y0182290D01*
X0332874Y0182263D01*
X0333068Y0182232D01*
X0333261Y0182196D01*
X0333453Y0182156D01*
X0333644Y0182110D01*
X0333834Y0182060D01*
X0334022Y0182006D01*
X0334209Y0181946D01*
X0334395Y0181882D01*
X0334579Y0181814D01*
X0334761Y0181741D01*
X0334942Y0181664D01*
X0335120Y0181582D01*
X0335297Y0181496D01*
X0335471Y0181405D01*
X0335643Y0181311D01*
X0335813Y0181212D01*
X0335980Y0181109D01*
X0336145Y0181002D01*
X0336306Y0180891D01*
X0336466Y0180776D01*
X0336622Y0180657D01*
X0336775Y0180534D01*
X0336925Y0180408D01*
X0337072Y0180278D01*
X0337216Y0180144D01*
X0337357Y0180007D01*
X0337494Y0179866D01*
X0337628Y0179722D01*
X0337758Y0179575D01*
X0337884Y0179425D01*
X0338007Y0179272D01*
X0338126Y0179116D01*
X0338241Y0178956D01*
X0338352Y0178795D01*
X0338459Y0178630D01*
X0338562Y0178463D01*
X0338661Y0178293D01*
X0338755Y0178121D01*
X0338846Y0177947D01*
X0338932Y0177770D01*
X0339014Y0177592D01*
X0339091Y0177411D01*
X0339164Y0177229D01*
X0339232Y0177045D01*
X0339296Y0176859D01*
X0339356Y0176672D01*
X0339410Y0176484D01*
X0339460Y0176294D01*
X0339506Y0176103D01*
X0339546Y0175911D01*
X0339582Y0175718D01*
X0339613Y0175524D01*
X0339640Y0175329D01*
X0339661Y0175134D01*
X0339678Y0174939D01*
X0339690Y0174743D01*
X0339698Y0174546D01*
X0339700Y0174350D01*
X0339698Y0174154D01*
X0339690Y0173957D01*
X0339678Y0173761D01*
X0339661Y0173566D01*
X0339640Y0173371D01*
X0339613Y0173176D01*
X0339582Y0172982D01*
X0339546Y0172789D01*
X0339506Y0172597D01*
X0339460Y0172406D01*
X0339410Y0172216D01*
X0339356Y0172028D01*
X0339296Y0171841D01*
X0339232Y0171655D01*
X0339164Y0171471D01*
X0339091Y0171289D01*
X0339014Y0171108D01*
X0338932Y0170930D01*
X0338846Y0170753D01*
X0338755Y0170579D01*
X0338661Y0170407D01*
X0338562Y0170237D01*
X0338459Y0170070D01*
X0338352Y0169905D01*
X0338241Y0169744D01*
X0338126Y0169584D01*
X0338007Y0169428D01*
X0337884Y0169275D01*
X0337758Y0169125D01*
X0337628Y0168978D01*
X0337494Y0168834D01*
X0337357Y0168693D01*
X0337216Y0168556D01*
X0337072Y0168422D01*
X0336925Y0168292D01*
X0336775Y0168166D01*
X0336622Y0168043D01*
X0336466Y0167924D01*
X0336306Y0167809D01*
X0336145Y0167698D01*
X0335980Y0167591D01*
X0335813Y0167488D01*
X0335643Y0167389D01*
X0335471Y0167295D01*
X0335297Y0167204D01*
X0335120Y0167118D01*
X0334942Y0167036D01*
X0334761Y0166959D01*
X0334579Y0166886D01*
X0334395Y0166818D01*
X0334209Y0166754D01*
X0334022Y0166694D01*
X0333834Y0166640D01*
X0333644Y0166590D01*
X0333453Y0166544D01*
X0333261Y0166504D01*
X0333068Y0166468D01*
X0332874Y0166437D01*
X0332679Y0166410D01*
X0332484Y0166389D01*
X0332289Y0166372D01*
X0332093Y0166360D01*
X0331896Y0166352D01*
X0331700Y0166350D01*
X0331504Y0166352D01*
X0331307Y0166360D01*
X0331111Y0166372D01*
X0330916Y0166389D01*
X0330721Y0166410D01*
X0330526Y0166437D01*
X0330332Y0166468D01*
X0330139Y0166504D01*
X0329947Y0166544D01*
X0329756Y0166590D01*
X0329566Y0166640D01*
X0329378Y0166694D01*
X0329191Y0166754D01*
X0329005Y0166818D01*
X0328821Y0166886D01*
X0328639Y0166959D01*
X0328458Y0167036D01*
X0328280Y0167118D01*
X0328103Y0167204D01*
X0327929Y0167295D01*
X0327757Y0167389D01*
X0327587Y0167488D01*
X0327420Y0167591D01*
X0327255Y0167698D01*
X0327094Y0167809D01*
X0326934Y0167924D01*
X0326778Y0168043D01*
X0326625Y0168166D01*
X0326475Y0168292D01*
X0326328Y0168422D01*
X0326184Y0168556D01*
X0326043Y0168693D01*
X0325906Y0168834D01*
X0325772Y0168978D01*
X0325642Y0169125D01*
X0325516Y0169275D01*
X0325393Y0169428D01*
X0325274Y0169584D01*
X0325159Y0169744D01*
X0325048Y0169905D01*
X0324941Y0170070D01*
X0324838Y0170237D01*
X0324739Y0170407D01*
X0324645Y0170579D01*
X0324554Y0170753D01*
X0324468Y0170930D01*
X0324386Y0171108D01*
X0324309Y0171289D01*
X0324236Y0171471D01*
X0324168Y0171655D01*
X0324104Y0171841D01*
X0324044Y0172028D01*
X0323990Y0172216D01*
X0323940Y0172406D01*
X0323894Y0172597D01*
X0323854Y0172789D01*
X0323818Y0172982D01*
X0323787Y0173176D01*
X0323760Y0173371D01*
X0323739Y0173566D01*
X0323722Y0173761D01*
X0323710Y0173957D01*
X0323702Y0174154D01*
X0323700Y0174350D01*
X0323700Y0030250D02*
X0323702Y0030446D01*
X0323710Y0030643D01*
X0323722Y0030839D01*
X0323739Y0031034D01*
X0323760Y0031229D01*
X0323787Y0031424D01*
X0323818Y0031618D01*
X0323854Y0031811D01*
X0323894Y0032003D01*
X0323940Y0032194D01*
X0323990Y0032384D01*
X0324044Y0032572D01*
X0324104Y0032759D01*
X0324168Y0032945D01*
X0324236Y0033129D01*
X0324309Y0033311D01*
X0324386Y0033492D01*
X0324468Y0033670D01*
X0324554Y0033847D01*
X0324645Y0034021D01*
X0324739Y0034193D01*
X0324838Y0034363D01*
X0324941Y0034530D01*
X0325048Y0034695D01*
X0325159Y0034856D01*
X0325274Y0035016D01*
X0325393Y0035172D01*
X0325516Y0035325D01*
X0325642Y0035475D01*
X0325772Y0035622D01*
X0325906Y0035766D01*
X0326043Y0035907D01*
X0326184Y0036044D01*
X0326328Y0036178D01*
X0326475Y0036308D01*
X0326625Y0036434D01*
X0326778Y0036557D01*
X0326934Y0036676D01*
X0327094Y0036791D01*
X0327255Y0036902D01*
X0327420Y0037009D01*
X0327587Y0037112D01*
X0327757Y0037211D01*
X0327929Y0037305D01*
X0328103Y0037396D01*
X0328280Y0037482D01*
X0328458Y0037564D01*
X0328639Y0037641D01*
X0328821Y0037714D01*
X0329005Y0037782D01*
X0329191Y0037846D01*
X0329378Y0037906D01*
X0329566Y0037960D01*
X0329756Y0038010D01*
X0329947Y0038056D01*
X0330139Y0038096D01*
X0330332Y0038132D01*
X0330526Y0038163D01*
X0330721Y0038190D01*
X0330916Y0038211D01*
X0331111Y0038228D01*
X0331307Y0038240D01*
X0331504Y0038248D01*
X0331700Y0038250D01*
X0331896Y0038248D01*
X0332093Y0038240D01*
X0332289Y0038228D01*
X0332484Y0038211D01*
X0332679Y0038190D01*
X0332874Y0038163D01*
X0333068Y0038132D01*
X0333261Y0038096D01*
X0333453Y0038056D01*
X0333644Y0038010D01*
X0333834Y0037960D01*
X0334022Y0037906D01*
X0334209Y0037846D01*
X0334395Y0037782D01*
X0334579Y0037714D01*
X0334761Y0037641D01*
X0334942Y0037564D01*
X0335120Y0037482D01*
X0335297Y0037396D01*
X0335471Y0037305D01*
X0335643Y0037211D01*
X0335813Y0037112D01*
X0335980Y0037009D01*
X0336145Y0036902D01*
X0336306Y0036791D01*
X0336466Y0036676D01*
X0336622Y0036557D01*
X0336775Y0036434D01*
X0336925Y0036308D01*
X0337072Y0036178D01*
X0337216Y0036044D01*
X0337357Y0035907D01*
X0337494Y0035766D01*
X0337628Y0035622D01*
X0337758Y0035475D01*
X0337884Y0035325D01*
X0338007Y0035172D01*
X0338126Y0035016D01*
X0338241Y0034856D01*
X0338352Y0034695D01*
X0338459Y0034530D01*
X0338562Y0034363D01*
X0338661Y0034193D01*
X0338755Y0034021D01*
X0338846Y0033847D01*
X0338932Y0033670D01*
X0339014Y0033492D01*
X0339091Y0033311D01*
X0339164Y0033129D01*
X0339232Y0032945D01*
X0339296Y0032759D01*
X0339356Y0032572D01*
X0339410Y0032384D01*
X0339460Y0032194D01*
X0339506Y0032003D01*
X0339546Y0031811D01*
X0339582Y0031618D01*
X0339613Y0031424D01*
X0339640Y0031229D01*
X0339661Y0031034D01*
X0339678Y0030839D01*
X0339690Y0030643D01*
X0339698Y0030446D01*
X0339700Y0030250D01*
X0339698Y0030054D01*
X0339690Y0029857D01*
X0339678Y0029661D01*
X0339661Y0029466D01*
X0339640Y0029271D01*
X0339613Y0029076D01*
X0339582Y0028882D01*
X0339546Y0028689D01*
X0339506Y0028497D01*
X0339460Y0028306D01*
X0339410Y0028116D01*
X0339356Y0027928D01*
X0339296Y0027741D01*
X0339232Y0027555D01*
X0339164Y0027371D01*
X0339091Y0027189D01*
X0339014Y0027008D01*
X0338932Y0026830D01*
X0338846Y0026653D01*
X0338755Y0026479D01*
X0338661Y0026307D01*
X0338562Y0026137D01*
X0338459Y0025970D01*
X0338352Y0025805D01*
X0338241Y0025644D01*
X0338126Y0025484D01*
X0338007Y0025328D01*
X0337884Y0025175D01*
X0337758Y0025025D01*
X0337628Y0024878D01*
X0337494Y0024734D01*
X0337357Y0024593D01*
X0337216Y0024456D01*
X0337072Y0024322D01*
X0336925Y0024192D01*
X0336775Y0024066D01*
X0336622Y0023943D01*
X0336466Y0023824D01*
X0336306Y0023709D01*
X0336145Y0023598D01*
X0335980Y0023491D01*
X0335813Y0023388D01*
X0335643Y0023289D01*
X0335471Y0023195D01*
X0335297Y0023104D01*
X0335120Y0023018D01*
X0334942Y0022936D01*
X0334761Y0022859D01*
X0334579Y0022786D01*
X0334395Y0022718D01*
X0334209Y0022654D01*
X0334022Y0022594D01*
X0333834Y0022540D01*
X0333644Y0022490D01*
X0333453Y0022444D01*
X0333261Y0022404D01*
X0333068Y0022368D01*
X0332874Y0022337D01*
X0332679Y0022310D01*
X0332484Y0022289D01*
X0332289Y0022272D01*
X0332093Y0022260D01*
X0331896Y0022252D01*
X0331700Y0022250D01*
X0331504Y0022252D01*
X0331307Y0022260D01*
X0331111Y0022272D01*
X0330916Y0022289D01*
X0330721Y0022310D01*
X0330526Y0022337D01*
X0330332Y0022368D01*
X0330139Y0022404D01*
X0329947Y0022444D01*
X0329756Y0022490D01*
X0329566Y0022540D01*
X0329378Y0022594D01*
X0329191Y0022654D01*
X0329005Y0022718D01*
X0328821Y0022786D01*
X0328639Y0022859D01*
X0328458Y0022936D01*
X0328280Y0023018D01*
X0328103Y0023104D01*
X0327929Y0023195D01*
X0327757Y0023289D01*
X0327587Y0023388D01*
X0327420Y0023491D01*
X0327255Y0023598D01*
X0327094Y0023709D01*
X0326934Y0023824D01*
X0326778Y0023943D01*
X0326625Y0024066D01*
X0326475Y0024192D01*
X0326328Y0024322D01*
X0326184Y0024456D01*
X0326043Y0024593D01*
X0325906Y0024734D01*
X0325772Y0024878D01*
X0325642Y0025025D01*
X0325516Y0025175D01*
X0325393Y0025328D01*
X0325274Y0025484D01*
X0325159Y0025644D01*
X0325048Y0025805D01*
X0324941Y0025970D01*
X0324838Y0026137D01*
X0324739Y0026307D01*
X0324645Y0026479D01*
X0324554Y0026653D01*
X0324468Y0026830D01*
X0324386Y0027008D01*
X0324309Y0027189D01*
X0324236Y0027371D01*
X0324168Y0027555D01*
X0324104Y0027741D01*
X0324044Y0027928D01*
X0323990Y0028116D01*
X0323940Y0028306D01*
X0323894Y0028497D01*
X0323854Y0028689D01*
X0323818Y0028882D01*
X0323787Y0029076D01*
X0323760Y0029271D01*
X0323739Y0029466D01*
X0323722Y0029661D01*
X0323710Y0029857D01*
X0323702Y0030054D01*
X0323700Y0030250D01*
D11*
X0231700Y0024800D02*
X0231700Y0014800D01*
X0231700Y0024800D02*
X0131700Y0024800D01*
X0131700Y0014800D01*
X0339338Y0120115D02*
X0339340Y0120212D01*
X0339346Y0120309D01*
X0339356Y0120405D01*
X0339370Y0120501D01*
X0339388Y0120597D01*
X0339409Y0120691D01*
X0339435Y0120785D01*
X0339464Y0120877D01*
X0339498Y0120968D01*
X0339534Y0121058D01*
X0339575Y0121146D01*
X0339619Y0121232D01*
X0339667Y0121317D01*
X0339718Y0121399D01*
X0339772Y0121480D01*
X0339830Y0121558D01*
X0339891Y0121633D01*
X0339954Y0121706D01*
X0340021Y0121777D01*
X0340091Y0121844D01*
X0340163Y0121909D01*
X0340238Y0121970D01*
X0340316Y0122029D01*
X0340395Y0122084D01*
X0340477Y0122136D01*
X0340561Y0122184D01*
X0340647Y0122229D01*
X0340735Y0122271D01*
X0340824Y0122309D01*
X0340915Y0122343D01*
X0341007Y0122373D01*
X0341100Y0122400D01*
X0341195Y0122422D01*
X0341290Y0122441D01*
X0341386Y0122456D01*
X0341482Y0122467D01*
X0341579Y0122474D01*
X0341676Y0122477D01*
X0341773Y0122476D01*
X0341870Y0122471D01*
X0341966Y0122462D01*
X0342062Y0122449D01*
X0342158Y0122432D01*
X0342253Y0122411D01*
X0342346Y0122387D01*
X0342439Y0122358D01*
X0342531Y0122326D01*
X0342621Y0122290D01*
X0342709Y0122251D01*
X0342796Y0122207D01*
X0342881Y0122161D01*
X0342964Y0122110D01*
X0343045Y0122057D01*
X0343123Y0122000D01*
X0343200Y0121940D01*
X0343273Y0121877D01*
X0343344Y0121811D01*
X0343412Y0121742D01*
X0343478Y0121670D01*
X0343540Y0121596D01*
X0343599Y0121519D01*
X0343655Y0121440D01*
X0343708Y0121358D01*
X0343758Y0121275D01*
X0343803Y0121189D01*
X0343846Y0121102D01*
X0343885Y0121013D01*
X0343920Y0120923D01*
X0343951Y0120831D01*
X0343978Y0120738D01*
X0344002Y0120644D01*
X0344022Y0120549D01*
X0344038Y0120453D01*
X0344050Y0120357D01*
X0344058Y0120260D01*
X0344062Y0120163D01*
X0344062Y0120067D01*
X0344058Y0119970D01*
X0344050Y0119873D01*
X0344038Y0119777D01*
X0344022Y0119681D01*
X0344002Y0119586D01*
X0343978Y0119492D01*
X0343951Y0119399D01*
X0343920Y0119307D01*
X0343885Y0119217D01*
X0343846Y0119128D01*
X0343803Y0119041D01*
X0343758Y0118955D01*
X0343708Y0118872D01*
X0343655Y0118790D01*
X0343599Y0118711D01*
X0343540Y0118634D01*
X0343478Y0118560D01*
X0343412Y0118488D01*
X0343344Y0118419D01*
X0343273Y0118353D01*
X0343200Y0118290D01*
X0343123Y0118230D01*
X0343045Y0118173D01*
X0342964Y0118120D01*
X0342881Y0118069D01*
X0342796Y0118023D01*
X0342709Y0117979D01*
X0342621Y0117940D01*
X0342531Y0117904D01*
X0342439Y0117872D01*
X0342346Y0117843D01*
X0342253Y0117819D01*
X0342158Y0117798D01*
X0342062Y0117781D01*
X0341966Y0117768D01*
X0341870Y0117759D01*
X0341773Y0117754D01*
X0341676Y0117753D01*
X0341579Y0117756D01*
X0341482Y0117763D01*
X0341386Y0117774D01*
X0341290Y0117789D01*
X0341195Y0117808D01*
X0341100Y0117830D01*
X0341007Y0117857D01*
X0340915Y0117887D01*
X0340824Y0117921D01*
X0340735Y0117959D01*
X0340647Y0118001D01*
X0340561Y0118046D01*
X0340477Y0118094D01*
X0340395Y0118146D01*
X0340316Y0118201D01*
X0340238Y0118260D01*
X0340163Y0118321D01*
X0340091Y0118386D01*
X0340021Y0118453D01*
X0339954Y0118524D01*
X0339891Y0118597D01*
X0339830Y0118672D01*
X0339772Y0118750D01*
X0339718Y0118831D01*
X0339667Y0118913D01*
X0339619Y0118998D01*
X0339575Y0119084D01*
X0339534Y0119172D01*
X0339498Y0119262D01*
X0339464Y0119353D01*
X0339435Y0119445D01*
X0339409Y0119539D01*
X0339388Y0119633D01*
X0339370Y0119729D01*
X0339356Y0119825D01*
X0339346Y0119921D01*
X0339340Y0120018D01*
X0339338Y0120115D01*
X0349181Y0120115D02*
X0349183Y0120212D01*
X0349189Y0120309D01*
X0349199Y0120405D01*
X0349213Y0120501D01*
X0349231Y0120597D01*
X0349252Y0120691D01*
X0349278Y0120785D01*
X0349307Y0120877D01*
X0349341Y0120968D01*
X0349377Y0121058D01*
X0349418Y0121146D01*
X0349462Y0121232D01*
X0349510Y0121317D01*
X0349561Y0121399D01*
X0349615Y0121480D01*
X0349673Y0121558D01*
X0349734Y0121633D01*
X0349797Y0121706D01*
X0349864Y0121777D01*
X0349934Y0121844D01*
X0350006Y0121909D01*
X0350081Y0121970D01*
X0350159Y0122029D01*
X0350238Y0122084D01*
X0350320Y0122136D01*
X0350404Y0122184D01*
X0350490Y0122229D01*
X0350578Y0122271D01*
X0350667Y0122309D01*
X0350758Y0122343D01*
X0350850Y0122373D01*
X0350943Y0122400D01*
X0351038Y0122422D01*
X0351133Y0122441D01*
X0351229Y0122456D01*
X0351325Y0122467D01*
X0351422Y0122474D01*
X0351519Y0122477D01*
X0351616Y0122476D01*
X0351713Y0122471D01*
X0351809Y0122462D01*
X0351905Y0122449D01*
X0352001Y0122432D01*
X0352096Y0122411D01*
X0352189Y0122387D01*
X0352282Y0122358D01*
X0352374Y0122326D01*
X0352464Y0122290D01*
X0352552Y0122251D01*
X0352639Y0122207D01*
X0352724Y0122161D01*
X0352807Y0122110D01*
X0352888Y0122057D01*
X0352966Y0122000D01*
X0353043Y0121940D01*
X0353116Y0121877D01*
X0353187Y0121811D01*
X0353255Y0121742D01*
X0353321Y0121670D01*
X0353383Y0121596D01*
X0353442Y0121519D01*
X0353498Y0121440D01*
X0353551Y0121358D01*
X0353601Y0121275D01*
X0353646Y0121189D01*
X0353689Y0121102D01*
X0353728Y0121013D01*
X0353763Y0120923D01*
X0353794Y0120831D01*
X0353821Y0120738D01*
X0353845Y0120644D01*
X0353865Y0120549D01*
X0353881Y0120453D01*
X0353893Y0120357D01*
X0353901Y0120260D01*
X0353905Y0120163D01*
X0353905Y0120067D01*
X0353901Y0119970D01*
X0353893Y0119873D01*
X0353881Y0119777D01*
X0353865Y0119681D01*
X0353845Y0119586D01*
X0353821Y0119492D01*
X0353794Y0119399D01*
X0353763Y0119307D01*
X0353728Y0119217D01*
X0353689Y0119128D01*
X0353646Y0119041D01*
X0353601Y0118955D01*
X0353551Y0118872D01*
X0353498Y0118790D01*
X0353442Y0118711D01*
X0353383Y0118634D01*
X0353321Y0118560D01*
X0353255Y0118488D01*
X0353187Y0118419D01*
X0353116Y0118353D01*
X0353043Y0118290D01*
X0352966Y0118230D01*
X0352888Y0118173D01*
X0352807Y0118120D01*
X0352724Y0118069D01*
X0352639Y0118023D01*
X0352552Y0117979D01*
X0352464Y0117940D01*
X0352374Y0117904D01*
X0352282Y0117872D01*
X0352189Y0117843D01*
X0352096Y0117819D01*
X0352001Y0117798D01*
X0351905Y0117781D01*
X0351809Y0117768D01*
X0351713Y0117759D01*
X0351616Y0117754D01*
X0351519Y0117753D01*
X0351422Y0117756D01*
X0351325Y0117763D01*
X0351229Y0117774D01*
X0351133Y0117789D01*
X0351038Y0117808D01*
X0350943Y0117830D01*
X0350850Y0117857D01*
X0350758Y0117887D01*
X0350667Y0117921D01*
X0350578Y0117959D01*
X0350490Y0118001D01*
X0350404Y0118046D01*
X0350320Y0118094D01*
X0350238Y0118146D01*
X0350159Y0118201D01*
X0350081Y0118260D01*
X0350006Y0118321D01*
X0349934Y0118386D01*
X0349864Y0118453D01*
X0349797Y0118524D01*
X0349734Y0118597D01*
X0349673Y0118672D01*
X0349615Y0118750D01*
X0349561Y0118831D01*
X0349510Y0118913D01*
X0349462Y0118998D01*
X0349418Y0119084D01*
X0349377Y0119172D01*
X0349341Y0119262D01*
X0349307Y0119353D01*
X0349278Y0119445D01*
X0349252Y0119539D01*
X0349231Y0119633D01*
X0349213Y0119729D01*
X0349199Y0119825D01*
X0349189Y0119921D01*
X0349183Y0120018D01*
X0349181Y0120115D01*
X0319653Y0139800D02*
X0319655Y0139897D01*
X0319661Y0139994D01*
X0319671Y0140090D01*
X0319685Y0140186D01*
X0319703Y0140282D01*
X0319724Y0140376D01*
X0319750Y0140470D01*
X0319779Y0140562D01*
X0319813Y0140653D01*
X0319849Y0140743D01*
X0319890Y0140831D01*
X0319934Y0140917D01*
X0319982Y0141002D01*
X0320033Y0141084D01*
X0320087Y0141165D01*
X0320145Y0141243D01*
X0320206Y0141318D01*
X0320269Y0141391D01*
X0320336Y0141462D01*
X0320406Y0141529D01*
X0320478Y0141594D01*
X0320553Y0141655D01*
X0320631Y0141714D01*
X0320710Y0141769D01*
X0320792Y0141821D01*
X0320876Y0141869D01*
X0320962Y0141914D01*
X0321050Y0141956D01*
X0321139Y0141994D01*
X0321230Y0142028D01*
X0321322Y0142058D01*
X0321415Y0142085D01*
X0321510Y0142107D01*
X0321605Y0142126D01*
X0321701Y0142141D01*
X0321797Y0142152D01*
X0321894Y0142159D01*
X0321991Y0142162D01*
X0322088Y0142161D01*
X0322185Y0142156D01*
X0322281Y0142147D01*
X0322377Y0142134D01*
X0322473Y0142117D01*
X0322568Y0142096D01*
X0322661Y0142072D01*
X0322754Y0142043D01*
X0322846Y0142011D01*
X0322936Y0141975D01*
X0323024Y0141936D01*
X0323111Y0141892D01*
X0323196Y0141846D01*
X0323279Y0141795D01*
X0323360Y0141742D01*
X0323438Y0141685D01*
X0323515Y0141625D01*
X0323588Y0141562D01*
X0323659Y0141496D01*
X0323727Y0141427D01*
X0323793Y0141355D01*
X0323855Y0141281D01*
X0323914Y0141204D01*
X0323970Y0141125D01*
X0324023Y0141043D01*
X0324073Y0140960D01*
X0324118Y0140874D01*
X0324161Y0140787D01*
X0324200Y0140698D01*
X0324235Y0140608D01*
X0324266Y0140516D01*
X0324293Y0140423D01*
X0324317Y0140329D01*
X0324337Y0140234D01*
X0324353Y0140138D01*
X0324365Y0140042D01*
X0324373Y0139945D01*
X0324377Y0139848D01*
X0324377Y0139752D01*
X0324373Y0139655D01*
X0324365Y0139558D01*
X0324353Y0139462D01*
X0324337Y0139366D01*
X0324317Y0139271D01*
X0324293Y0139177D01*
X0324266Y0139084D01*
X0324235Y0138992D01*
X0324200Y0138902D01*
X0324161Y0138813D01*
X0324118Y0138726D01*
X0324073Y0138640D01*
X0324023Y0138557D01*
X0323970Y0138475D01*
X0323914Y0138396D01*
X0323855Y0138319D01*
X0323793Y0138245D01*
X0323727Y0138173D01*
X0323659Y0138104D01*
X0323588Y0138038D01*
X0323515Y0137975D01*
X0323438Y0137915D01*
X0323360Y0137858D01*
X0323279Y0137805D01*
X0323196Y0137754D01*
X0323111Y0137708D01*
X0323024Y0137664D01*
X0322936Y0137625D01*
X0322846Y0137589D01*
X0322754Y0137557D01*
X0322661Y0137528D01*
X0322568Y0137504D01*
X0322473Y0137483D01*
X0322377Y0137466D01*
X0322281Y0137453D01*
X0322185Y0137444D01*
X0322088Y0137439D01*
X0321991Y0137438D01*
X0321894Y0137441D01*
X0321797Y0137448D01*
X0321701Y0137459D01*
X0321605Y0137474D01*
X0321510Y0137493D01*
X0321415Y0137515D01*
X0321322Y0137542D01*
X0321230Y0137572D01*
X0321139Y0137606D01*
X0321050Y0137644D01*
X0320962Y0137686D01*
X0320876Y0137731D01*
X0320792Y0137779D01*
X0320710Y0137831D01*
X0320631Y0137886D01*
X0320553Y0137945D01*
X0320478Y0138006D01*
X0320406Y0138071D01*
X0320336Y0138138D01*
X0320269Y0138209D01*
X0320206Y0138282D01*
X0320145Y0138357D01*
X0320087Y0138435D01*
X0320033Y0138516D01*
X0319982Y0138598D01*
X0319934Y0138683D01*
X0319890Y0138769D01*
X0319849Y0138857D01*
X0319813Y0138947D01*
X0319779Y0139038D01*
X0319750Y0139130D01*
X0319724Y0139224D01*
X0319703Y0139318D01*
X0319685Y0139414D01*
X0319671Y0139510D01*
X0319661Y0139606D01*
X0319655Y0139703D01*
X0319653Y0139800D01*
X0339338Y0159485D02*
X0339340Y0159582D01*
X0339346Y0159679D01*
X0339356Y0159775D01*
X0339370Y0159871D01*
X0339388Y0159967D01*
X0339409Y0160061D01*
X0339435Y0160155D01*
X0339464Y0160247D01*
X0339498Y0160338D01*
X0339534Y0160428D01*
X0339575Y0160516D01*
X0339619Y0160602D01*
X0339667Y0160687D01*
X0339718Y0160769D01*
X0339772Y0160850D01*
X0339830Y0160928D01*
X0339891Y0161003D01*
X0339954Y0161076D01*
X0340021Y0161147D01*
X0340091Y0161214D01*
X0340163Y0161279D01*
X0340238Y0161340D01*
X0340316Y0161399D01*
X0340395Y0161454D01*
X0340477Y0161506D01*
X0340561Y0161554D01*
X0340647Y0161599D01*
X0340735Y0161641D01*
X0340824Y0161679D01*
X0340915Y0161713D01*
X0341007Y0161743D01*
X0341100Y0161770D01*
X0341195Y0161792D01*
X0341290Y0161811D01*
X0341386Y0161826D01*
X0341482Y0161837D01*
X0341579Y0161844D01*
X0341676Y0161847D01*
X0341773Y0161846D01*
X0341870Y0161841D01*
X0341966Y0161832D01*
X0342062Y0161819D01*
X0342158Y0161802D01*
X0342253Y0161781D01*
X0342346Y0161757D01*
X0342439Y0161728D01*
X0342531Y0161696D01*
X0342621Y0161660D01*
X0342709Y0161621D01*
X0342796Y0161577D01*
X0342881Y0161531D01*
X0342964Y0161480D01*
X0343045Y0161427D01*
X0343123Y0161370D01*
X0343200Y0161310D01*
X0343273Y0161247D01*
X0343344Y0161181D01*
X0343412Y0161112D01*
X0343478Y0161040D01*
X0343540Y0160966D01*
X0343599Y0160889D01*
X0343655Y0160810D01*
X0343708Y0160728D01*
X0343758Y0160645D01*
X0343803Y0160559D01*
X0343846Y0160472D01*
X0343885Y0160383D01*
X0343920Y0160293D01*
X0343951Y0160201D01*
X0343978Y0160108D01*
X0344002Y0160014D01*
X0344022Y0159919D01*
X0344038Y0159823D01*
X0344050Y0159727D01*
X0344058Y0159630D01*
X0344062Y0159533D01*
X0344062Y0159437D01*
X0344058Y0159340D01*
X0344050Y0159243D01*
X0344038Y0159147D01*
X0344022Y0159051D01*
X0344002Y0158956D01*
X0343978Y0158862D01*
X0343951Y0158769D01*
X0343920Y0158677D01*
X0343885Y0158587D01*
X0343846Y0158498D01*
X0343803Y0158411D01*
X0343758Y0158325D01*
X0343708Y0158242D01*
X0343655Y0158160D01*
X0343599Y0158081D01*
X0343540Y0158004D01*
X0343478Y0157930D01*
X0343412Y0157858D01*
X0343344Y0157789D01*
X0343273Y0157723D01*
X0343200Y0157660D01*
X0343123Y0157600D01*
X0343045Y0157543D01*
X0342964Y0157490D01*
X0342881Y0157439D01*
X0342796Y0157393D01*
X0342709Y0157349D01*
X0342621Y0157310D01*
X0342531Y0157274D01*
X0342439Y0157242D01*
X0342346Y0157213D01*
X0342253Y0157189D01*
X0342158Y0157168D01*
X0342062Y0157151D01*
X0341966Y0157138D01*
X0341870Y0157129D01*
X0341773Y0157124D01*
X0341676Y0157123D01*
X0341579Y0157126D01*
X0341482Y0157133D01*
X0341386Y0157144D01*
X0341290Y0157159D01*
X0341195Y0157178D01*
X0341100Y0157200D01*
X0341007Y0157227D01*
X0340915Y0157257D01*
X0340824Y0157291D01*
X0340735Y0157329D01*
X0340647Y0157371D01*
X0340561Y0157416D01*
X0340477Y0157464D01*
X0340395Y0157516D01*
X0340316Y0157571D01*
X0340238Y0157630D01*
X0340163Y0157691D01*
X0340091Y0157756D01*
X0340021Y0157823D01*
X0339954Y0157894D01*
X0339891Y0157967D01*
X0339830Y0158042D01*
X0339772Y0158120D01*
X0339718Y0158201D01*
X0339667Y0158283D01*
X0339619Y0158368D01*
X0339575Y0158454D01*
X0339534Y0158542D01*
X0339498Y0158632D01*
X0339464Y0158723D01*
X0339435Y0158815D01*
X0339409Y0158909D01*
X0339388Y0159003D01*
X0339370Y0159099D01*
X0339356Y0159195D01*
X0339346Y0159291D01*
X0339340Y0159388D01*
X0339338Y0159485D01*
X0349181Y0159485D02*
X0349183Y0159582D01*
X0349189Y0159679D01*
X0349199Y0159775D01*
X0349213Y0159871D01*
X0349231Y0159967D01*
X0349252Y0160061D01*
X0349278Y0160155D01*
X0349307Y0160247D01*
X0349341Y0160338D01*
X0349377Y0160428D01*
X0349418Y0160516D01*
X0349462Y0160602D01*
X0349510Y0160687D01*
X0349561Y0160769D01*
X0349615Y0160850D01*
X0349673Y0160928D01*
X0349734Y0161003D01*
X0349797Y0161076D01*
X0349864Y0161147D01*
X0349934Y0161214D01*
X0350006Y0161279D01*
X0350081Y0161340D01*
X0350159Y0161399D01*
X0350238Y0161454D01*
X0350320Y0161506D01*
X0350404Y0161554D01*
X0350490Y0161599D01*
X0350578Y0161641D01*
X0350667Y0161679D01*
X0350758Y0161713D01*
X0350850Y0161743D01*
X0350943Y0161770D01*
X0351038Y0161792D01*
X0351133Y0161811D01*
X0351229Y0161826D01*
X0351325Y0161837D01*
X0351422Y0161844D01*
X0351519Y0161847D01*
X0351616Y0161846D01*
X0351713Y0161841D01*
X0351809Y0161832D01*
X0351905Y0161819D01*
X0352001Y0161802D01*
X0352096Y0161781D01*
X0352189Y0161757D01*
X0352282Y0161728D01*
X0352374Y0161696D01*
X0352464Y0161660D01*
X0352552Y0161621D01*
X0352639Y0161577D01*
X0352724Y0161531D01*
X0352807Y0161480D01*
X0352888Y0161427D01*
X0352966Y0161370D01*
X0353043Y0161310D01*
X0353116Y0161247D01*
X0353187Y0161181D01*
X0353255Y0161112D01*
X0353321Y0161040D01*
X0353383Y0160966D01*
X0353442Y0160889D01*
X0353498Y0160810D01*
X0353551Y0160728D01*
X0353601Y0160645D01*
X0353646Y0160559D01*
X0353689Y0160472D01*
X0353728Y0160383D01*
X0353763Y0160293D01*
X0353794Y0160201D01*
X0353821Y0160108D01*
X0353845Y0160014D01*
X0353865Y0159919D01*
X0353881Y0159823D01*
X0353893Y0159727D01*
X0353901Y0159630D01*
X0353905Y0159533D01*
X0353905Y0159437D01*
X0353901Y0159340D01*
X0353893Y0159243D01*
X0353881Y0159147D01*
X0353865Y0159051D01*
X0353845Y0158956D01*
X0353821Y0158862D01*
X0353794Y0158769D01*
X0353763Y0158677D01*
X0353728Y0158587D01*
X0353689Y0158498D01*
X0353646Y0158411D01*
X0353601Y0158325D01*
X0353551Y0158242D01*
X0353498Y0158160D01*
X0353442Y0158081D01*
X0353383Y0158004D01*
X0353321Y0157930D01*
X0353255Y0157858D01*
X0353187Y0157789D01*
X0353116Y0157723D01*
X0353043Y0157660D01*
X0352966Y0157600D01*
X0352888Y0157543D01*
X0352807Y0157490D01*
X0352724Y0157439D01*
X0352639Y0157393D01*
X0352552Y0157349D01*
X0352464Y0157310D01*
X0352374Y0157274D01*
X0352282Y0157242D01*
X0352189Y0157213D01*
X0352096Y0157189D01*
X0352001Y0157168D01*
X0351905Y0157151D01*
X0351809Y0157138D01*
X0351713Y0157129D01*
X0351616Y0157124D01*
X0351519Y0157123D01*
X0351422Y0157126D01*
X0351325Y0157133D01*
X0351229Y0157144D01*
X0351133Y0157159D01*
X0351038Y0157178D01*
X0350943Y0157200D01*
X0350850Y0157227D01*
X0350758Y0157257D01*
X0350667Y0157291D01*
X0350578Y0157329D01*
X0350490Y0157371D01*
X0350404Y0157416D01*
X0350320Y0157464D01*
X0350238Y0157516D01*
X0350159Y0157571D01*
X0350081Y0157630D01*
X0350006Y0157691D01*
X0349934Y0157756D01*
X0349864Y0157823D01*
X0349797Y0157894D01*
X0349734Y0157967D01*
X0349673Y0158042D01*
X0349615Y0158120D01*
X0349561Y0158201D01*
X0349510Y0158283D01*
X0349462Y0158368D01*
X0349418Y0158454D01*
X0349377Y0158542D01*
X0349341Y0158632D01*
X0349307Y0158723D01*
X0349278Y0158815D01*
X0349252Y0158909D01*
X0349231Y0159003D01*
X0349213Y0159099D01*
X0349199Y0159195D01*
X0349189Y0159291D01*
X0349183Y0159388D01*
X0349181Y0159485D01*
X0231700Y0179800D02*
X0231700Y0189800D01*
X0231700Y0179800D02*
X0131700Y0179800D01*
X0131700Y0189800D01*
M02*
