G75*
%MOIN*%
%OFA0B0*%
%FSLAX25Y25*%
%IPPOS*%
%LPD*%
%AMOC8*
5,1,8,0,0,1.08239X$1,22.5*
%
%ADD10C,0.08600*%
%ADD11C,0.07400*%
%ADD12R,0.07400X0.07400*%
%ADD13C,0.04724*%
%ADD14C,0.11220*%
%ADD15C,0.01600*%
%ADD16C,0.20000*%
D10*
X0322015Y0121410D03*
X0322015Y0131253D03*
X0341700Y0141095D03*
X0322015Y0150938D03*
X0322015Y0160780D03*
D11*
X0281700Y0143595D03*
X0271700Y0143595D03*
X0261700Y0143595D03*
X0251700Y0143595D03*
X0241700Y0143595D03*
X0231700Y0143595D03*
X0221700Y0143595D03*
X0211700Y0143595D03*
X0201700Y0143595D03*
X0191700Y0143595D03*
X0181700Y0143595D03*
X0171700Y0143595D03*
X0161700Y0138595D03*
X0161700Y0128595D03*
X0161700Y0118595D03*
X0161700Y0108595D03*
X0161700Y0098595D03*
X0161700Y0088595D03*
X0171700Y0083595D03*
X0181700Y0083595D03*
X0191700Y0083595D03*
X0201700Y0083595D03*
X0211700Y0083595D03*
X0221700Y0083595D03*
X0231700Y0083595D03*
X0241700Y0083595D03*
X0251700Y0083595D03*
X0261700Y0083595D03*
X0271700Y0083595D03*
X0281700Y0083595D03*
X0257325Y0132345D03*
X0247325Y0132345D03*
X0216075Y0132345D03*
X0206075Y0132345D03*
X0186700Y0166095D03*
X0226700Y0166095D03*
X0241700Y0166095D03*
X0251700Y0166095D03*
X0127200Y0162595D03*
X0127200Y0152595D03*
X0127200Y0142595D03*
X0127200Y0132595D03*
X0127200Y0122595D03*
X0127200Y0112595D03*
X0127200Y0102595D03*
X0026700Y0113595D03*
X0026700Y0123595D03*
X0026700Y0133595D03*
D12*
X0127200Y0092595D03*
D13*
X0326621Y0092394D03*
X0331346Y0089245D03*
X0326621Y0086095D03*
X0331346Y0082946D03*
X0326621Y0079796D03*
D14*
X0346700Y0071725D03*
X0346700Y0100465D03*
D15*
X0322015Y0121410D02*
X0316700Y0116095D01*
X0254200Y0116095D01*
X0221700Y0083595D01*
X0231700Y0083595D02*
X0219200Y0071095D01*
X0156700Y0071095D01*
X0146700Y0081095D01*
X0146700Y0123095D01*
X0127200Y0142595D01*
X0127200Y0122595D02*
X0141700Y0108095D01*
X0141700Y0078595D01*
X0154200Y0066095D01*
X0224200Y0066095D01*
X0241700Y0083595D01*
X0251700Y0083595D02*
X0229200Y0061095D01*
X0099200Y0061095D01*
X0026700Y0133595D01*
X0211700Y0083595D02*
X0249200Y0121095D01*
X0281700Y0121095D01*
X0321385Y0160780D01*
X0322015Y0160780D01*
X0251700Y0166095D02*
X0251700Y0143595D01*
X0241700Y0166095D02*
X0226700Y0166095D01*
D16*
X0031700Y0041545D03*
X0031700Y0185645D03*
X0331700Y0185645D03*
X0331700Y0041545D03*
M02*
