G75*
%MOIN*%
%OFA0B0*%
%FSLAX25Y25*%
%IPPOS*%
%LPD*%
%AMOC8*
5,1,8,0,0,1.08239X$1,22.5*
%
%ADD10C,0.00400*%
%ADD11R,0.40000X0.15000*%
%ADD12C,0.01200*%
%ADD13C,0.00800*%
%ADD14C,0.00591*%
D10*
X0068247Y0029562D02*
X0069014Y0028795D01*
X0068247Y0029562D02*
X0068247Y0032632D01*
X0067480Y0031864D02*
X0069014Y0031864D01*
X0070549Y0031864D02*
X0070549Y0028795D01*
X0070549Y0030330D02*
X0072083Y0031864D01*
X0072851Y0031864D01*
X0074385Y0031097D02*
X0075153Y0031864D01*
X0076687Y0031864D01*
X0077455Y0031097D01*
X0077455Y0030330D01*
X0074385Y0030330D01*
X0074385Y0031097D02*
X0074385Y0029562D01*
X0075153Y0028795D01*
X0076687Y0028795D01*
X0078989Y0029562D02*
X0079757Y0030330D01*
X0082059Y0030330D01*
X0082059Y0031097D02*
X0082059Y0028795D01*
X0079757Y0028795D01*
X0078989Y0029562D01*
X0079757Y0031864D02*
X0081291Y0031864D01*
X0082059Y0031097D01*
X0083593Y0031864D02*
X0085128Y0031864D01*
X0084361Y0032632D02*
X0084361Y0029562D01*
X0085128Y0028795D01*
X0091266Y0029562D02*
X0091266Y0031097D01*
X0092034Y0031864D01*
X0094336Y0031864D01*
X0095870Y0031864D02*
X0096638Y0031864D01*
X0096638Y0028795D01*
X0097405Y0028795D02*
X0095870Y0028795D01*
X0094336Y0028795D02*
X0094336Y0033399D01*
X0096638Y0033399D02*
X0096638Y0034166D01*
X0098940Y0031097D02*
X0099707Y0031864D01*
X0102009Y0031864D01*
X0103544Y0031864D02*
X0105846Y0031864D01*
X0106613Y0031097D01*
X0106613Y0029562D01*
X0105846Y0028795D01*
X0103544Y0028795D01*
X0103544Y0027261D02*
X0103544Y0031864D01*
X0102009Y0029562D02*
X0101242Y0030330D01*
X0099707Y0030330D01*
X0098940Y0031097D01*
X0098940Y0028795D02*
X0101242Y0028795D01*
X0102009Y0029562D01*
X0108148Y0029562D02*
X0108148Y0031097D01*
X0108915Y0031864D01*
X0110450Y0031864D01*
X0111217Y0031097D01*
X0111217Y0030330D01*
X0108148Y0030330D01*
X0108148Y0029562D02*
X0108915Y0028795D01*
X0110450Y0028795D01*
X0112751Y0028795D02*
X0112751Y0031864D01*
X0115053Y0031864D01*
X0115821Y0031097D01*
X0115821Y0028795D01*
X0117355Y0028795D02*
X0119657Y0028795D01*
X0120425Y0029562D01*
X0119657Y0030330D01*
X0118123Y0030330D01*
X0117355Y0031097D01*
X0118123Y0031864D01*
X0120425Y0031864D01*
X0121959Y0031097D02*
X0122727Y0031864D01*
X0124261Y0031864D01*
X0125029Y0031097D01*
X0125029Y0030330D01*
X0121959Y0030330D01*
X0121959Y0031097D02*
X0121959Y0029562D01*
X0122727Y0028795D01*
X0124261Y0028795D01*
X0126563Y0028795D02*
X0126563Y0031864D01*
X0126563Y0030330D02*
X0128098Y0031864D01*
X0128865Y0031864D01*
X0094336Y0028795D02*
X0092034Y0028795D01*
X0091266Y0029562D01*
X0156900Y0069562D02*
X0156900Y0073399D01*
X0159969Y0073399D02*
X0159969Y0069562D01*
X0159202Y0068795D01*
X0157667Y0068795D01*
X0156900Y0069562D01*
X0161504Y0068795D02*
X0164573Y0068795D01*
X0163039Y0068795D02*
X0163039Y0073399D01*
X0161504Y0071864D01*
X0145073Y0082295D02*
X0142004Y0082295D01*
X0145073Y0085364D01*
X0145073Y0086132D01*
X0144306Y0086899D01*
X0142771Y0086899D01*
X0142004Y0086132D01*
X0140469Y0086899D02*
X0140469Y0083062D01*
X0139702Y0082295D01*
X0138167Y0082295D01*
X0137400Y0083062D01*
X0137400Y0086899D01*
X0234326Y0032364D02*
X0234326Y0029295D01*
X0234326Y0030830D02*
X0235861Y0032364D01*
X0236628Y0032364D01*
X0238163Y0031597D02*
X0238930Y0032364D01*
X0240465Y0032364D01*
X0241232Y0031597D01*
X0241232Y0030830D01*
X0238163Y0030830D01*
X0238163Y0031597D02*
X0238163Y0030062D01*
X0238930Y0029295D01*
X0240465Y0029295D01*
X0242767Y0032364D02*
X0244301Y0029295D01*
X0245836Y0032364D01*
X0251974Y0031597D02*
X0254276Y0031597D01*
X0255044Y0030830D01*
X0255044Y0030062D01*
X0254276Y0029295D01*
X0251974Y0029295D01*
X0251974Y0033899D01*
X0254276Y0033899D01*
X0255044Y0033132D01*
X0255044Y0032364D01*
X0254276Y0031597D01*
X0261182Y0029295D02*
X0264252Y0033899D01*
X0270390Y0031597D02*
X0271157Y0030830D01*
X0272692Y0030830D01*
X0273459Y0030062D01*
X0272692Y0029295D01*
X0270390Y0029295D01*
X0270390Y0031597D02*
X0271157Y0032364D01*
X0273459Y0032364D01*
X0274994Y0032364D02*
X0277296Y0032364D01*
X0278063Y0031597D01*
X0278063Y0029295D01*
X0279598Y0029295D02*
X0279598Y0030062D01*
X0280365Y0030062D01*
X0280365Y0029295D01*
X0279598Y0029295D01*
X0279598Y0031597D02*
X0279598Y0032364D01*
X0280365Y0032364D01*
X0280365Y0031597D01*
X0279598Y0031597D01*
X0274994Y0032364D02*
X0274994Y0029295D01*
X0327857Y0061157D02*
X0328624Y0060390D01*
X0329391Y0060390D01*
X0330159Y0061157D01*
X0330159Y0064994D01*
X0330926Y0064994D02*
X0329391Y0064994D01*
X0332461Y0064994D02*
X0334763Y0064994D01*
X0335530Y0064226D01*
X0335530Y0062692D01*
X0334763Y0061924D01*
X0332461Y0061924D01*
X0332461Y0060390D02*
X0332461Y0064994D01*
X0337065Y0063459D02*
X0338599Y0064994D01*
X0338599Y0060390D01*
X0337065Y0060390D02*
X0340134Y0060390D01*
X0328677Y0167795D02*
X0325608Y0167795D01*
X0328677Y0170864D01*
X0328677Y0171632D01*
X0327910Y0172399D01*
X0326375Y0172399D01*
X0325608Y0171632D01*
X0324073Y0171632D02*
X0324073Y0170097D01*
X0323306Y0169330D01*
X0321004Y0169330D01*
X0321004Y0167795D02*
X0321004Y0172399D01*
X0323306Y0172399D01*
X0324073Y0171632D01*
X0319469Y0172399D02*
X0317935Y0172399D01*
X0318702Y0172399D02*
X0318702Y0168562D01*
X0317935Y0167795D01*
X0317167Y0167795D01*
X0316400Y0168562D01*
X0248977Y0178397D02*
X0245908Y0178397D01*
X0248210Y0180699D01*
X0248210Y0176095D01*
X0244373Y0178397D02*
X0243606Y0177630D01*
X0241304Y0177630D01*
X0241304Y0176095D02*
X0241304Y0180699D01*
X0243606Y0180699D01*
X0244373Y0179932D01*
X0244373Y0178397D01*
X0239769Y0180699D02*
X0238235Y0180699D01*
X0239002Y0180699D02*
X0239002Y0176862D01*
X0238235Y0176095D01*
X0237467Y0176095D01*
X0236700Y0176862D01*
X0204573Y0176295D02*
X0201504Y0176295D01*
X0203039Y0176295D02*
X0203039Y0180899D01*
X0201504Y0179364D01*
X0199969Y0178597D02*
X0199202Y0177830D01*
X0196900Y0177830D01*
X0198435Y0177830D02*
X0199969Y0176295D01*
X0199969Y0178597D02*
X0199969Y0180132D01*
X0199202Y0180899D01*
X0196900Y0180899D01*
X0196900Y0176295D01*
X0030165Y0102832D02*
X0030165Y0102064D01*
X0029398Y0101297D01*
X0030165Y0100530D01*
X0030165Y0099762D01*
X0029398Y0098995D01*
X0027863Y0098995D01*
X0027096Y0099762D01*
X0025561Y0101297D02*
X0024794Y0100530D01*
X0022492Y0100530D01*
X0022492Y0098995D02*
X0022492Y0103599D01*
X0024794Y0103599D01*
X0025561Y0102832D01*
X0025561Y0101297D01*
X0027096Y0102832D02*
X0027863Y0103599D01*
X0029398Y0103599D01*
X0030165Y0102832D01*
X0029398Y0101297D02*
X0028631Y0101297D01*
X0020957Y0103599D02*
X0019423Y0103599D01*
X0020190Y0103599D02*
X0020190Y0099762D01*
X0019423Y0098995D01*
X0018656Y0098995D01*
X0017888Y0099762D01*
D11*
X0301700Y0033595D03*
D12*
X0326200Y0070595D02*
X0361700Y0070595D01*
X0361700Y0101595D01*
X0326200Y0101595D01*
X0326200Y0070595D01*
X0286700Y0078595D02*
X0156700Y0078595D01*
X0156700Y0148595D01*
X0286700Y0148595D01*
X0286700Y0078595D01*
X0132200Y0052095D02*
X0132200Y0177095D01*
X0132161Y0177300D01*
X0132117Y0177504D01*
X0132069Y0177707D01*
X0132015Y0177908D01*
X0131957Y0178109D01*
X0131894Y0178307D01*
X0131826Y0178505D01*
X0131753Y0178700D01*
X0131676Y0178894D01*
X0131594Y0179085D01*
X0131507Y0179275D01*
X0131416Y0179463D01*
X0131320Y0179648D01*
X0131220Y0179831D01*
X0131115Y0180011D01*
X0131007Y0180189D01*
X0130893Y0180365D01*
X0130776Y0180537D01*
X0130655Y0180707D01*
X0130529Y0180873D01*
X0130399Y0181037D01*
X0130266Y0181197D01*
X0130129Y0181354D01*
X0129988Y0181508D01*
X0129843Y0181658D01*
X0129695Y0181804D01*
X0129543Y0181947D01*
X0129388Y0182087D01*
X0129229Y0182222D01*
X0129067Y0182354D01*
X0128903Y0182482D01*
X0128735Y0182605D01*
X0128564Y0182725D01*
X0128390Y0182841D01*
X0128214Y0182952D01*
X0128035Y0183059D01*
X0127853Y0183161D01*
X0127669Y0183259D01*
X0127483Y0183353D01*
X0127294Y0183442D01*
X0127103Y0183527D01*
X0126911Y0183607D01*
X0126716Y0183682D01*
X0126520Y0183752D01*
X0126322Y0183818D01*
X0126122Y0183879D01*
X0125922Y0183935D01*
X0125719Y0183986D01*
X0125516Y0184033D01*
X0125312Y0184074D01*
X0125106Y0184111D01*
X0124900Y0184142D01*
X0124693Y0184169D01*
X0124486Y0184190D01*
X0124278Y0184207D01*
X0124069Y0184218D01*
X0123861Y0184224D01*
X0123652Y0184226D01*
X0123444Y0184222D01*
X0123236Y0184213D01*
X0123027Y0184200D01*
X0122820Y0184181D01*
X0122612Y0184157D01*
X0122406Y0184128D01*
X0122200Y0184095D01*
X0052200Y0184095D01*
X0051991Y0184129D01*
X0051781Y0184158D01*
X0051571Y0184182D01*
X0051360Y0184201D01*
X0051148Y0184214D01*
X0050937Y0184223D01*
X0050725Y0184226D01*
X0050513Y0184224D01*
X0050301Y0184217D01*
X0050090Y0184204D01*
X0049879Y0184187D01*
X0049668Y0184164D01*
X0049458Y0184136D01*
X0049249Y0184103D01*
X0049040Y0184065D01*
X0048833Y0184022D01*
X0048627Y0183973D01*
X0048422Y0183920D01*
X0048218Y0183861D01*
X0048016Y0183798D01*
X0047816Y0183730D01*
X0047617Y0183657D01*
X0047420Y0183578D01*
X0047225Y0183496D01*
X0047032Y0183408D01*
X0046842Y0183316D01*
X0046653Y0183218D01*
X0046467Y0183117D01*
X0046284Y0183011D01*
X0046103Y0182900D01*
X0045925Y0182785D01*
X0045750Y0182666D01*
X0045578Y0182542D01*
X0045409Y0182414D01*
X0045244Y0182283D01*
X0045081Y0182147D01*
X0044922Y0182007D01*
X0044767Y0181863D01*
X0044614Y0181716D01*
X0044466Y0181564D01*
X0044321Y0181410D01*
X0044181Y0181251D01*
X0044044Y0181090D01*
X0043911Y0180925D01*
X0043782Y0180756D01*
X0043658Y0180585D01*
X0043537Y0180411D01*
X0043421Y0180233D01*
X0043310Y0180053D01*
X0043203Y0179871D01*
X0043100Y0179685D01*
X0043002Y0179498D01*
X0042908Y0179308D01*
X0042820Y0179115D01*
X0042735Y0178921D01*
X0042656Y0178724D01*
X0042582Y0178526D01*
X0042512Y0178326D01*
X0042448Y0178124D01*
X0042388Y0177921D01*
X0042334Y0177716D01*
X0042284Y0177510D01*
X0042240Y0177303D01*
X0042200Y0177095D01*
X0042200Y0052095D01*
X0042203Y0051853D01*
X0042212Y0051612D01*
X0042226Y0051371D01*
X0042247Y0051130D01*
X0042273Y0050890D01*
X0042305Y0050650D01*
X0042343Y0050411D01*
X0042386Y0050174D01*
X0042436Y0049937D01*
X0042491Y0049702D01*
X0042551Y0049468D01*
X0042618Y0049236D01*
X0042689Y0049005D01*
X0042767Y0048776D01*
X0042850Y0048549D01*
X0042938Y0048324D01*
X0043032Y0048101D01*
X0043131Y0047881D01*
X0043236Y0047663D01*
X0043345Y0047448D01*
X0043460Y0047235D01*
X0043580Y0047025D01*
X0043705Y0046819D01*
X0043835Y0046615D01*
X0043970Y0046414D01*
X0044110Y0046217D01*
X0044254Y0046023D01*
X0044403Y0045833D01*
X0044557Y0045647D01*
X0044715Y0045464D01*
X0044877Y0045285D01*
X0045044Y0045110D01*
X0045215Y0044939D01*
X0045390Y0044772D01*
X0045569Y0044610D01*
X0045752Y0044452D01*
X0045938Y0044298D01*
X0046128Y0044149D01*
X0046322Y0044005D01*
X0046519Y0043865D01*
X0046720Y0043730D01*
X0046924Y0043600D01*
X0047130Y0043475D01*
X0047340Y0043355D01*
X0047553Y0043240D01*
X0047768Y0043131D01*
X0047986Y0043026D01*
X0048206Y0042927D01*
X0048429Y0042833D01*
X0048654Y0042745D01*
X0048881Y0042662D01*
X0049110Y0042584D01*
X0049341Y0042513D01*
X0049573Y0042446D01*
X0049807Y0042386D01*
X0050042Y0042331D01*
X0050279Y0042281D01*
X0050516Y0042238D01*
X0050755Y0042200D01*
X0050995Y0042168D01*
X0051235Y0042142D01*
X0051476Y0042121D01*
X0051717Y0042107D01*
X0051958Y0042098D01*
X0052200Y0042095D01*
X0071200Y0042095D01*
X0072200Y0043095D01*
X0102200Y0043095D01*
X0103200Y0042095D01*
X0122200Y0042095D01*
X0122442Y0042098D01*
X0122683Y0042107D01*
X0122924Y0042121D01*
X0123165Y0042142D01*
X0123405Y0042168D01*
X0123645Y0042200D01*
X0123884Y0042238D01*
X0124121Y0042281D01*
X0124358Y0042331D01*
X0124593Y0042386D01*
X0124827Y0042446D01*
X0125059Y0042513D01*
X0125290Y0042584D01*
X0125519Y0042662D01*
X0125746Y0042745D01*
X0125971Y0042833D01*
X0126194Y0042927D01*
X0126414Y0043026D01*
X0126632Y0043131D01*
X0126847Y0043240D01*
X0127060Y0043355D01*
X0127270Y0043475D01*
X0127476Y0043600D01*
X0127680Y0043730D01*
X0127881Y0043865D01*
X0128078Y0044005D01*
X0128272Y0044149D01*
X0128462Y0044298D01*
X0128648Y0044452D01*
X0128831Y0044610D01*
X0129010Y0044772D01*
X0129185Y0044939D01*
X0129356Y0045110D01*
X0129523Y0045285D01*
X0129685Y0045464D01*
X0129843Y0045647D01*
X0129997Y0045833D01*
X0130146Y0046023D01*
X0130290Y0046217D01*
X0130430Y0046414D01*
X0130565Y0046615D01*
X0130695Y0046819D01*
X0130820Y0047025D01*
X0130940Y0047235D01*
X0131055Y0047448D01*
X0131164Y0047663D01*
X0131269Y0047881D01*
X0131368Y0048101D01*
X0131462Y0048324D01*
X0131550Y0048549D01*
X0131633Y0048776D01*
X0131711Y0049005D01*
X0131782Y0049236D01*
X0131849Y0049468D01*
X0131909Y0049702D01*
X0131964Y0049937D01*
X0132014Y0050174D01*
X0132057Y0050411D01*
X0132095Y0050650D01*
X0132127Y0050890D01*
X0132153Y0051130D01*
X0132174Y0051371D01*
X0132188Y0051612D01*
X0132197Y0051853D01*
X0132200Y0052095D01*
D13*
X0031700Y0111095D02*
X0031700Y0116095D01*
X0029200Y0118595D01*
X0031700Y0121095D01*
X0031700Y0126095D01*
X0029200Y0128595D01*
X0031700Y0131095D01*
X0031700Y0136095D01*
X0029200Y0138595D01*
X0024200Y0138595D01*
X0021700Y0136095D01*
X0021700Y0131095D01*
X0024200Y0128595D01*
X0021700Y0126095D01*
X0021700Y0121095D01*
X0024200Y0118595D01*
X0021700Y0116095D01*
X0021700Y0111095D01*
X0024200Y0108595D01*
X0029200Y0108595D01*
X0031700Y0111095D01*
X0194298Y0161371D02*
X0219102Y0161371D01*
X0219102Y0170820D01*
X0194298Y0170820D01*
X0194298Y0161371D01*
X0236700Y0163595D02*
X0239200Y0161095D01*
X0244200Y0161095D01*
X0246700Y0163595D01*
X0249200Y0161095D01*
X0254200Y0161095D01*
X0256700Y0163595D01*
X0256700Y0168595D01*
X0254200Y0171095D01*
X0249200Y0171095D01*
X0246700Y0168595D01*
X0244200Y0171095D01*
X0239200Y0171095D01*
X0236700Y0168595D01*
X0236700Y0163595D01*
X0312172Y0164717D02*
X0312172Y0117473D01*
X0316109Y0117473D01*
X0327920Y0117473D02*
X0355480Y0117473D01*
X0355480Y0164717D01*
X0327920Y0164717D01*
X0316109Y0164717D02*
X0312172Y0164717D01*
D14*
X0052744Y0031682D02*
X0050839Y0031875D01*
X0050839Y0033315D01*
X0052744Y0033509D01*
X0052949Y0034149D01*
X0053257Y0034747D01*
X0052046Y0036231D01*
X0053064Y0037249D01*
X0054548Y0036038D01*
X0055146Y0036346D01*
X0055787Y0036551D01*
X0055980Y0038457D01*
X0057420Y0038457D01*
X0057613Y0036551D01*
X0058254Y0036346D01*
X0058852Y0036038D01*
X0060336Y0037249D01*
X0061354Y0036231D01*
X0060143Y0034747D01*
X0060451Y0034149D01*
X0060656Y0033509D01*
X0062561Y0033315D01*
X0062561Y0031875D01*
X0060656Y0031682D01*
X0060451Y0031041D01*
X0060143Y0030444D01*
X0061354Y0028959D01*
X0060336Y0027942D01*
X0058852Y0029152D01*
X0058254Y0028844D01*
X0057406Y0030890D01*
X0057791Y0031107D01*
X0058114Y0031409D01*
X0058355Y0031779D01*
X0058501Y0032196D01*
X0058545Y0032635D01*
X0058482Y0033073D01*
X0058318Y0033482D01*
X0058060Y0033842D01*
X0057725Y0034129D01*
X0057331Y0034329D01*
X0056901Y0034429D01*
X0056459Y0034424D01*
X0056031Y0034315D01*
X0055641Y0034106D01*
X0055312Y0033812D01*
X0055063Y0033447D01*
X0054907Y0033034D01*
X0054854Y0032595D01*
X0054905Y0032164D01*
X0055055Y0031757D01*
X0055297Y0031396D01*
X0055615Y0031102D01*
X0055994Y0030890D01*
X0055146Y0028844D01*
X0054548Y0029152D01*
X0053064Y0027942D01*
X0052046Y0028959D01*
X0053257Y0030444D01*
X0052949Y0031041D01*
X0052744Y0031682D01*
X0052835Y0031397D02*
X0055296Y0031397D01*
X0054971Y0031986D02*
X0050839Y0031986D01*
X0050839Y0032575D02*
X0054857Y0032575D01*
X0054956Y0033164D02*
X0050839Y0033164D01*
X0052822Y0033753D02*
X0055272Y0033753D01*
X0056138Y0034342D02*
X0053048Y0034342D01*
X0053106Y0034931D02*
X0060294Y0034931D01*
X0060352Y0034342D02*
X0057274Y0034342D01*
X0058124Y0033753D02*
X0060578Y0033753D01*
X0060774Y0035520D02*
X0052626Y0035520D01*
X0052146Y0036109D02*
X0054462Y0036109D01*
X0054686Y0036109D02*
X0058714Y0036109D01*
X0058938Y0036109D02*
X0061254Y0036109D01*
X0060886Y0036698D02*
X0059661Y0036698D01*
X0057598Y0036698D02*
X0055802Y0036698D01*
X0055861Y0037287D02*
X0057539Y0037287D01*
X0057479Y0037876D02*
X0055921Y0037876D01*
X0053739Y0036698D02*
X0052514Y0036698D01*
X0058445Y0033164D02*
X0062561Y0033164D01*
X0062561Y0032575D02*
X0058539Y0032575D01*
X0058428Y0031986D02*
X0062561Y0031986D01*
X0060565Y0031397D02*
X0058101Y0031397D01*
X0057440Y0030808D02*
X0060331Y0030808D01*
X0060327Y0030219D02*
X0057684Y0030219D01*
X0057928Y0029630D02*
X0060807Y0029630D01*
X0061287Y0029040D02*
X0058988Y0029040D01*
X0058635Y0029040D02*
X0058173Y0029040D01*
X0059711Y0028451D02*
X0060846Y0028451D01*
X0055960Y0030808D02*
X0053069Y0030808D01*
X0053073Y0030219D02*
X0055716Y0030219D01*
X0055471Y0029630D02*
X0052593Y0029630D01*
X0052113Y0029040D02*
X0054412Y0029040D01*
X0054765Y0029040D02*
X0055227Y0029040D01*
X0053689Y0028451D02*
X0052554Y0028451D01*
M02*
